%TF.GenerationSoftware,KiCad,Pcbnew,8.0.1*%
%TF.CreationDate,2024-05-26T21:08:22+02:00*%
%TF.ProjectId,RadarPCB,52616461-7250-4434-922e-6b696361645f,R1.3*%
%TF.SameCoordinates,Original*%
%TF.FileFunction,Copper,L1,Top*%
%TF.FilePolarity,Positive*%
%FSLAX46Y46*%
G04 Gerber Fmt 4.6, Leading zero omitted, Abs format (unit mm)*
G04 Created by KiCad (PCBNEW 8.0.1) date 2024-05-26 21:08:22*
%MOMM*%
%LPD*%
G01*
G04 APERTURE LIST*
%TA.AperFunction,ComponentPad*%
%ADD10R,1.700000X1.700000*%
%TD*%
%TA.AperFunction,ComponentPad*%
%ADD11C,1.600000*%
%TD*%
%TA.AperFunction,ComponentPad*%
%ADD12O,1.600000X1.600000*%
%TD*%
%TA.AperFunction,ComponentPad*%
%ADD13R,1.800000X1.800000*%
%TD*%
%TA.AperFunction,ComponentPad*%
%ADD14C,1.800000*%
%TD*%
%TA.AperFunction,ComponentPad*%
%ADD15R,1.600000X1.600000*%
%TD*%
%TA.AperFunction,ComponentPad*%
%ADD16C,2.000000*%
%TD*%
%TA.AperFunction,ComponentPad*%
%ADD17O,1.700000X1.700000*%
%TD*%
%TA.AperFunction,Conductor*%
%ADD18C,0.350000*%
%TD*%
G04 APERTURE END LIST*
D10*
%TO.P,GND_TP4,1,1*%
%TO.N,GND*%
X103730000Y-81080000D03*
%TD*%
%TO.P,HPF1_TP,1,1*%
%TO.N,Net-(U1--)*%
X151020000Y-80910000D03*
%TD*%
D11*
%TO.P,R4,1*%
%TO.N,/Vin1*%
X149850000Y-85420000D03*
D12*
%TO.P,R4,2*%
%TO.N,GND*%
X160010000Y-85420000D03*
%TD*%
D10*
%TO.P,GND_TP3,1,1*%
%TO.N,GND*%
X121800000Y-97820000D03*
%TD*%
D11*
%TO.P,R2,1*%
%TO.N,Net-(D1-A)*%
X115930000Y-55770000D03*
D12*
%TO.P,R2,2*%
%TO.N,+5V*%
X105770000Y-55770000D03*
%TD*%
D11*
%TO.P,C3,1*%
%TO.N,Net-(C3-Pad1)*%
X150800000Y-73800000D03*
%TO.P,C3,2*%
%TO.N,/Signal*%
X152800000Y-73800000D03*
%TD*%
D10*
%TO.P,GND_TP2,1,1*%
%TO.N,GND*%
X106530000Y-62990000D03*
%TD*%
D11*
%TO.P,R9,1*%
%TO.N,Net-(U1--)*%
X123330000Y-79190000D03*
D12*
%TO.P,R9,2*%
%TO.N,/OP1_out*%
X123330000Y-69030000D03*
%TD*%
D11*
%TO.P,R6,1*%
%TO.N,Net-(D3-A)*%
X158070000Y-55680000D03*
D12*
%TO.P,R6,2*%
%TO.N,/LED_Orange*%
X147910000Y-55680000D03*
%TD*%
D10*
%TO.P,Signal_TP1,1,1*%
%TO.N,/Signal*%
X158500000Y-81750000D03*
%TD*%
D13*
%TO.P,D4,1,K*%
%TO.N,GND*%
X140950000Y-62710000D03*
D14*
%TO.P,D4,2,A*%
%TO.N,Net-(D4-A)*%
X138410000Y-62710000D03*
%TD*%
D11*
%TO.P,R11,1*%
%TO.N,Net-(U2--)*%
X118120000Y-82740000D03*
D12*
%TO.P,R11,2*%
%TO.N,/OP2_out*%
X118120000Y-92900000D03*
%TD*%
D11*
%TO.P,C5,1*%
%TO.N,/OP1_out*%
X106600000Y-73490000D03*
%TO.P,C5,2*%
%TO.N,Net-(C5-Pad2)*%
X106600000Y-75490000D03*
%TD*%
D13*
%TO.P,D3,1,K*%
%TO.N,GND*%
X146145000Y-62710000D03*
D14*
%TO.P,D3,2,A*%
%TO.N,Net-(D3-A)*%
X148685000Y-62710000D03*
%TD*%
D10*
%TO.P,OP2_TP1,1,1*%
%TO.N,/OP2_out*%
X144810000Y-89580000D03*
%TD*%
D11*
%TO.P,R12,1*%
%TO.N,/OP2_out*%
X135790000Y-93380000D03*
D12*
%TO.P,R12,2*%
%TO.N,/Vout*%
X145950000Y-93380000D03*
%TD*%
D11*
%TO.P,R3,1*%
%TO.N,+5V*%
X146310000Y-83070000D03*
D12*
%TO.P,R3,2*%
%TO.N,/Vin1*%
X136150000Y-83070000D03*
%TD*%
D11*
%TO.P,C1,1*%
%TO.N,/Vin1*%
X159680000Y-90400000D03*
%TO.P,C1,2*%
%TO.N,GND*%
X159680000Y-92400000D03*
%TD*%
D10*
%TO.P,GND_TP5,1,1*%
%TO.N,GND*%
X161810000Y-67780000D03*
%TD*%
D11*
%TO.P,C6,1*%
%TO.N,Net-(U2--)*%
X112500000Y-87800000D03*
%TO.P,C6,2*%
%TO.N,/OP2_out*%
X112500000Y-92800000D03*
%TD*%
%TO.P,R5,1*%
%TO.N,Net-(D2-A)*%
X161900000Y-62900000D03*
D12*
%TO.P,R5,2*%
%TO.N,/LED_Green*%
X161900000Y-52740000D03*
%TD*%
D13*
%TO.P,D2,1,K*%
%TO.N,GND*%
X153595000Y-62760000D03*
D14*
%TO.P,D2,2,A*%
%TO.N,Net-(D2-A)*%
X156135000Y-62760000D03*
%TD*%
D11*
%TO.P,R1,1*%
%TO.N,+5V*%
X120250000Y-55780000D03*
D12*
%TO.P,R1,2*%
%TO.N,/PushButton*%
X130410000Y-55780000D03*
%TD*%
D10*
%TO.P,VtgD_TP,1,1*%
%TO.N,/Vin1*%
X165630000Y-88870000D03*
%TD*%
%TO.P,GND_TP6,1,1*%
%TO.N,GND*%
X105850000Y-50450000D03*
%TD*%
D13*
%TO.P,D1,1,K*%
%TO.N,GND*%
X116040000Y-62730000D03*
D14*
%TO.P,D1,2,A*%
%TO.N,Net-(D1-A)*%
X118580000Y-62730000D03*
%TD*%
D15*
%TO.P,U2,1,NC*%
%TO.N,unconnected-(U2-NC-Pad1)*%
X131470000Y-91700000D03*
D12*
%TO.P,U2,2,-*%
%TO.N,Net-(U2--)*%
X131470000Y-89160000D03*
%TO.P,U2,3,+*%
%TO.N,/Vin1*%
X131470000Y-86620000D03*
%TO.P,U2,4,V-*%
%TO.N,GND*%
X131470000Y-84080000D03*
%TO.P,U2,5,NC*%
%TO.N,unconnected-(U2-NC-Pad5)*%
X123850000Y-84080000D03*
%TO.P,U2,6*%
%TO.N,/OP2_out*%
X123850000Y-86620000D03*
%TO.P,U2,7,V+*%
%TO.N,+5V*%
X123850000Y-89160000D03*
%TO.P,U2,8,NC*%
%TO.N,unconnected-(U2-NC-Pad8)*%
X123850000Y-91700000D03*
%TD*%
D15*
%TO.P,U1,1,NC*%
%TO.N,unconnected-(U1-NC-Pad1)*%
X138400000Y-77610000D03*
D12*
%TO.P,U1,2,-*%
%TO.N,Net-(U1--)*%
X138400000Y-75070000D03*
%TO.P,U1,3,+*%
%TO.N,/Vin1*%
X138400000Y-72530000D03*
%TO.P,U1,4,V-*%
%TO.N,GND*%
X138400000Y-69990000D03*
%TO.P,U1,5,NC*%
%TO.N,unconnected-(U1-NC-Pad5)*%
X130780000Y-69990000D03*
%TO.P,U1,6*%
%TO.N,/OP1_out*%
X130780000Y-72530000D03*
%TO.P,U1,7,V+*%
%TO.N,+5V*%
X130780000Y-75070000D03*
%TO.P,U1,8,NC*%
%TO.N,unconnected-(U1-NC-Pad8)*%
X130780000Y-77610000D03*
%TD*%
D10*
%TO.P,GND_TP1,1,1*%
%TO.N,GND*%
X165300000Y-83740000D03*
%TD*%
D11*
%TO.P,R7,1*%
%TO.N,Net-(D4-A)*%
X134430000Y-55740000D03*
D12*
%TO.P,R7,2*%
%TO.N,/LED_Red*%
X144590000Y-55740000D03*
%TD*%
D11*
%TO.P,R8,1*%
%TO.N,Net-(C3-Pad1)*%
X144110000Y-68940000D03*
D12*
%TO.P,R8,2*%
%TO.N,Net-(U1--)*%
X144110000Y-79100000D03*
%TD*%
D11*
%TO.P,C2,1*%
%TO.N,/Vin1*%
X149970000Y-92300000D03*
%TO.P,C2,2*%
%TO.N,GND*%
X154970000Y-92300000D03*
%TD*%
D16*
%TO.P,SW1,1,1*%
%TO.N,/PushButton*%
X126180000Y-60100000D03*
X132680000Y-60100000D03*
%TO.P,SW1,2,2*%
%TO.N,GND*%
X126180000Y-64600000D03*
X132680000Y-64600000D03*
%TD*%
D11*
%TO.P,R10,1*%
%TO.N,Net-(C5-Pad2)*%
X107960000Y-79380000D03*
D12*
%TO.P,R10,2*%
%TO.N,Net-(U2--)*%
X118120000Y-79380000D03*
%TD*%
D10*
%TO.P,HPF2_TP,1,1*%
%TO.N,Net-(U2--)*%
X137420000Y-89490000D03*
%TD*%
D11*
%TO.P,C4,1*%
%TO.N,Net-(U1--)*%
X115580000Y-75350000D03*
%TO.P,C4,2*%
%TO.N,/OP1_out*%
X115580000Y-70350000D03*
%TD*%
D10*
%TO.P,J5,1,Pin_1*%
%TO.N,GND*%
X157080000Y-76965000D03*
D17*
%TO.P,J5,2,Pin_2*%
%TO.N,/Signal*%
X157080000Y-74425000D03*
%TO.P,J5,3,Pin_3*%
%TO.N,+5V*%
X157080000Y-71885000D03*
%TD*%
D10*
%TO.P,OP1_TP1,1,1*%
%TO.N,/OP1_out*%
X106630000Y-68000000D03*
%TD*%
%TO.P,J1,1,Pin_1*%
%TO.N,unconnected-(J1-Pin_1-Pad1)*%
X127940000Y-97460000D03*
D17*
%TO.P,J1,2,Pin_2*%
%TO.N,/IOREF*%
X130480000Y-97460000D03*
%TO.P,J1,3,Pin_3*%
%TO.N,/~{RESET}*%
X133020000Y-97460000D03*
%TO.P,J1,4,Pin_4*%
%TO.N,unconnected-(J1-Pin_4-Pad4)*%
X135560000Y-97460000D03*
%TO.P,J1,5,Pin_5*%
%TO.N,+5V*%
X138100000Y-97460000D03*
%TO.P,J1,6,Pin_6*%
%TO.N,GND*%
X140640000Y-97460000D03*
%TO.P,J1,7,Pin_7*%
X143180000Y-97460000D03*
%TO.P,J1,8,Pin_8*%
%TO.N,/Vin*%
X145720000Y-97460000D03*
%TD*%
D10*
%TO.P,J3,1,Pin_1*%
%TO.N,/Vout*%
X150800000Y-97460000D03*
D17*
%TO.P,J3,2,Pin_2*%
%TO.N,/A1*%
X153340000Y-97460000D03*
%TO.P,J3,3,Pin_3*%
%TO.N,/A2*%
X155880000Y-97460000D03*
%TO.P,J3,4,Pin_4*%
%TO.N,/A3*%
X158420000Y-97460000D03*
%TO.P,J3,5,Pin_5*%
%TO.N,unconnected-(J3-Pin_5-Pad5)*%
X160960000Y-97460000D03*
%TO.P,J3,6,Pin_6*%
%TO.N,unconnected-(J3-Pin_6-Pad6)*%
X163500000Y-97460000D03*
%TD*%
D10*
%TO.P,J2,1,Pin_1*%
%TO.N,unconnected-(J2-Pin_1-Pad1)*%
X118796000Y-49200000D03*
D17*
%TO.P,J2,2,Pin_2*%
%TO.N,unconnected-(J2-Pin_2-Pad2)*%
X121336000Y-49200000D03*
%TO.P,J2,3,Pin_3*%
%TO.N,/AREF*%
X123876000Y-49200000D03*
%TO.P,J2,4,Pin_4*%
%TO.N,GND*%
X126416000Y-49200000D03*
%TO.P,J2,5,Pin_5*%
%TO.N,/13*%
X128956000Y-49200000D03*
%TO.P,J2,6,Pin_6*%
%TO.N,/12*%
X131496000Y-49200000D03*
%TO.P,J2,7,Pin_7*%
%TO.N,/\u002A11*%
X134036000Y-49200000D03*
%TO.P,J2,8,Pin_8*%
%TO.N,/\u002A10*%
X136576000Y-49200000D03*
%TO.P,J2,9,Pin_9*%
%TO.N,/\u002A9*%
X139116000Y-49200000D03*
%TO.P,J2,10,Pin_10*%
%TO.N,/8*%
X141656000Y-49200000D03*
%TD*%
D10*
%TO.P,J4,1,Pin_1*%
%TO.N,/PushButton*%
X145720000Y-49200000D03*
D17*
%TO.P,J4,2,Pin_2*%
%TO.N,/LED_Red*%
X148260000Y-49200000D03*
%TO.P,J4,3,Pin_3*%
%TO.N,/LED_Orange*%
X150800000Y-49200000D03*
%TO.P,J4,4,Pin_4*%
%TO.N,/LED_Green*%
X153340000Y-49200000D03*
%TO.P,J4,5,Pin_5*%
%TO.N,/\u002A3*%
X155880000Y-49200000D03*
%TO.P,J4,6,Pin_6*%
%TO.N,/2*%
X158420000Y-49200000D03*
%TO.P,J4,7,Pin_7*%
%TO.N,/TX{slash}1*%
X160960000Y-49200000D03*
%TO.P,J4,8,Pin_8*%
%TO.N,/RX{slash}0*%
X163500000Y-49200000D03*
%TD*%
D18*
%TO.N,/Vin1*%
X159640000Y-90440000D02*
X151830000Y-90440000D01*
X159680000Y-90400000D02*
X159640000Y-90440000D01*
X164100000Y-90400000D02*
X165630000Y-88870000D01*
X151830000Y-90440000D02*
X149970000Y-92300000D01*
X149850000Y-85420000D02*
X149850000Y-92180000D01*
X159680000Y-90400000D02*
X164100000Y-90400000D01*
X149850000Y-92180000D02*
X149970000Y-92300000D01*
%TO.N,Net-(C3-Pad1)*%
X150800000Y-73800000D02*
X148970000Y-73800000D01*
X148970000Y-73800000D02*
X144110000Y-68940000D01*
%TO.N,/Signal*%
X157080000Y-74425000D02*
X153425000Y-74425000D01*
X152800000Y-73800000D02*
X152800000Y-76820000D01*
X153425000Y-74425000D02*
X152800000Y-73800000D01*
X152800000Y-76820000D02*
X157730000Y-81750000D01*
X157730000Y-81750000D02*
X158500000Y-81750000D01*
%TO.N,/OP1_out*%
X113230000Y-68000000D02*
X115580000Y-70350000D01*
X126830000Y-72530000D02*
X123330000Y-69030000D01*
X106610000Y-70640000D02*
X106610000Y-73480000D01*
X106610000Y-73480000D02*
X106600000Y-73490000D01*
X123330000Y-69030000D02*
X116900000Y-69030000D01*
X116900000Y-69030000D02*
X115580000Y-70350000D01*
X106630000Y-70620000D02*
X106610000Y-70640000D01*
X106630000Y-68000000D02*
X113230000Y-68000000D01*
X106630000Y-68000000D02*
X106630000Y-70620000D01*
X130780000Y-72530000D02*
X126830000Y-72530000D01*
%TO.N,Net-(U1--)*%
X123330000Y-79190000D02*
X119490000Y-75350000D01*
X144110000Y-79100000D02*
X149210000Y-79100000D01*
X134280000Y-79190000D02*
X123330000Y-79190000D01*
X119490000Y-75350000D02*
X115580000Y-75350000D01*
X149210000Y-79100000D02*
X151020000Y-80910000D01*
X144110000Y-79100000D02*
X142430000Y-79100000D01*
X138400000Y-75070000D02*
X134280000Y-79190000D01*
X142430000Y-79100000D02*
X138400000Y-75070000D01*
%TO.N,Net-(C5-Pad2)*%
X106600000Y-75490000D02*
X106600000Y-77620000D01*
X106600000Y-77620000D02*
X107960000Y-78980000D01*
X107960000Y-78980000D02*
X107960000Y-79380000D01*
%TO.N,/OP2_out*%
X112500000Y-92800000D02*
X118020000Y-92800000D01*
X118120000Y-92900000D02*
X123850000Y-87170000D01*
X123850000Y-87170000D02*
X123850000Y-86620000D01*
X118020000Y-92800000D02*
X118120000Y-92900000D01*
%TO.N,Net-(U2--)*%
X125050000Y-82740000D02*
X131470000Y-89160000D01*
X137090000Y-89160000D02*
X137420000Y-89490000D01*
X118120000Y-82740000D02*
X125050000Y-82740000D01*
X131470000Y-89160000D02*
X137090000Y-89160000D01*
X118120000Y-82740000D02*
X113060000Y-87800000D01*
X118120000Y-79380000D02*
X118120000Y-82740000D01*
X113060000Y-87800000D02*
X112500000Y-87800000D01*
%TO.N,Net-(D1-A)*%
X118580000Y-62730000D02*
X118580000Y-58420000D01*
X118580000Y-58420000D02*
X115930000Y-55770000D01*
%TO.N,Net-(D2-A)*%
X156275000Y-62900000D02*
X156135000Y-62760000D01*
X161900000Y-62900000D02*
X156275000Y-62900000D01*
%TO.N,Net-(D3-A)*%
X155715000Y-55680000D02*
X148685000Y-62710000D01*
X158070000Y-55680000D02*
X155715000Y-55680000D01*
%TO.N,Net-(D4-A)*%
X138410000Y-62710000D02*
X138410000Y-59720000D01*
X138410000Y-59720000D02*
X134430000Y-55740000D01*
%TO.N,/Vout*%
X145950000Y-93380000D02*
X146130000Y-93200000D01*
X146130000Y-93200000D02*
X146540000Y-93200000D01*
X146540000Y-93200000D02*
X150800000Y-97460000D01*
%TO.N,/PushButton*%
X130410000Y-57830000D02*
X132680000Y-60100000D01*
X130410000Y-55780000D02*
X130410000Y-57830000D01*
X145060000Y-49200000D02*
X141790000Y-52470000D01*
X145720000Y-49200000D02*
X145060000Y-49200000D01*
X132680000Y-60100000D02*
X126180000Y-60100000D01*
X133720000Y-52470000D02*
X130410000Y-55780000D01*
X141790000Y-52470000D02*
X133720000Y-52470000D01*
%TO.N,/LED_Red*%
X144590000Y-52870000D02*
X144590000Y-55740000D01*
X148260000Y-49200000D02*
X144590000Y-52870000D01*
%TO.N,/LED_Green*%
X153340000Y-49200000D02*
X156880000Y-52740000D01*
X156880000Y-52740000D02*
X161900000Y-52740000D01*
%TO.N,/LED_Orange*%
X147910000Y-52090000D02*
X150800000Y-49200000D01*
X147910000Y-55680000D02*
X147910000Y-52090000D01*
%TD*%
%TA.AperFunction,Conductor*%
%TO.N,GND*%
G36*
X142714075Y-97267007D02*
G01*
X142680000Y-97394174D01*
X142680000Y-97525826D01*
X142714075Y-97652993D01*
X142746988Y-97710000D01*
X141073012Y-97710000D01*
X141105925Y-97652993D01*
X141140000Y-97525826D01*
X141140000Y-97394174D01*
X141105925Y-97267007D01*
X141073012Y-97210000D01*
X142746988Y-97210000D01*
X142714075Y-97267007D01*
G37*
%TD.AperFunction*%
%TA.AperFunction,Conductor*%
G36*
X163484404Y-46755185D02*
G01*
X163505046Y-46771819D01*
X165928181Y-49194954D01*
X165961666Y-49256277D01*
X165964500Y-49282635D01*
X165964500Y-59344982D01*
X165964500Y-59375018D01*
X165975994Y-59402767D01*
X165975995Y-59402768D01*
X168468181Y-61894954D01*
X168501666Y-61956277D01*
X168504500Y-61982635D01*
X168504500Y-96107364D01*
X168484815Y-96174403D01*
X168468181Y-96195045D01*
X165997233Y-98665994D01*
X165975995Y-98687231D01*
X165964500Y-98714982D01*
X165964500Y-99231907D01*
X165963903Y-99244062D01*
X165952505Y-99359778D01*
X165947763Y-99383618D01*
X165917832Y-99482290D01*
X165915789Y-99489024D01*
X165906486Y-99511482D01*
X165854561Y-99608627D01*
X165841056Y-99628839D01*
X165771176Y-99713988D01*
X165753988Y-99731176D01*
X165668839Y-99801056D01*
X165648627Y-99814561D01*
X165551482Y-99866486D01*
X165529028Y-99875787D01*
X165487028Y-99888528D01*
X165423618Y-99907763D01*
X165399778Y-99912505D01*
X165291162Y-99923203D01*
X165284060Y-99923903D01*
X165271907Y-99924500D01*
X100768093Y-99924500D01*
X100755939Y-99923903D01*
X100747995Y-99923120D01*
X100640221Y-99912505D01*
X100616381Y-99907763D01*
X100599445Y-99902625D01*
X100510968Y-99875786D01*
X100488517Y-99866486D01*
X100391372Y-99814561D01*
X100371160Y-99801056D01*
X100286011Y-99731176D01*
X100268823Y-99713988D01*
X100198943Y-99628839D01*
X100185438Y-99608627D01*
X100133510Y-99511476D01*
X100124215Y-99489037D01*
X100092234Y-99383612D01*
X100087494Y-99359777D01*
X100076097Y-99244061D01*
X100075500Y-99231907D01*
X100075500Y-98717844D01*
X120450000Y-98717844D01*
X120456401Y-98777372D01*
X120456403Y-98777379D01*
X120506645Y-98912086D01*
X120506649Y-98912093D01*
X120592809Y-99027187D01*
X120592812Y-99027190D01*
X120707906Y-99113350D01*
X120707913Y-99113354D01*
X120842620Y-99163596D01*
X120842627Y-99163598D01*
X120902155Y-99169999D01*
X120902172Y-99170000D01*
X121550000Y-99170000D01*
X121550000Y-98253012D01*
X121607007Y-98285925D01*
X121734174Y-98320000D01*
X121865826Y-98320000D01*
X121992993Y-98285925D01*
X122050000Y-98253012D01*
X122050000Y-99170000D01*
X122697828Y-99170000D01*
X122697844Y-99169999D01*
X122757372Y-99163598D01*
X122757379Y-99163596D01*
X122892086Y-99113354D01*
X122892093Y-99113350D01*
X123007187Y-99027190D01*
X123007190Y-99027187D01*
X123093350Y-98912093D01*
X123093354Y-98912086D01*
X123143596Y-98777379D01*
X123143598Y-98777372D01*
X123149999Y-98717844D01*
X123150000Y-98717827D01*
X123150000Y-98358654D01*
X126581500Y-98358654D01*
X126588011Y-98419202D01*
X126588011Y-98419204D01*
X126639111Y-98556204D01*
X126726739Y-98673261D01*
X126843796Y-98760889D01*
X126980799Y-98811989D01*
X127008050Y-98814918D01*
X127041345Y-98818499D01*
X127041362Y-98818500D01*
X128838638Y-98818500D01*
X128838654Y-98818499D01*
X128865692Y-98815591D01*
X128899201Y-98811989D01*
X129036204Y-98760889D01*
X129153261Y-98673261D01*
X129240889Y-98556204D01*
X129286138Y-98434887D01*
X129328009Y-98378956D01*
X129393474Y-98354539D01*
X129461746Y-98369391D01*
X129493545Y-98394236D01*
X129556760Y-98462906D01*
X129734424Y-98601189D01*
X129734425Y-98601189D01*
X129734427Y-98601191D01*
X129861135Y-98669761D01*
X129932426Y-98708342D01*
X130145365Y-98781444D01*
X130367431Y-98818500D01*
X130592569Y-98818500D01*
X130814635Y-98781444D01*
X131027574Y-98708342D01*
X131225576Y-98601189D01*
X131403240Y-98462906D01*
X131524594Y-98331082D01*
X131555715Y-98297276D01*
X131555715Y-98297275D01*
X131555722Y-98297268D01*
X131646193Y-98158790D01*
X131699338Y-98113437D01*
X131768569Y-98104013D01*
X131831905Y-98133515D01*
X131853804Y-98158787D01*
X131944278Y-98297268D01*
X131944283Y-98297273D01*
X131944284Y-98297276D01*
X132070968Y-98434889D01*
X132096760Y-98462906D01*
X132274424Y-98601189D01*
X132274425Y-98601189D01*
X132274427Y-98601191D01*
X132401135Y-98669761D01*
X132472426Y-98708342D01*
X132685365Y-98781444D01*
X132907431Y-98818500D01*
X133132569Y-98818500D01*
X133354635Y-98781444D01*
X133567574Y-98708342D01*
X133765576Y-98601189D01*
X133943240Y-98462906D01*
X134064594Y-98331082D01*
X134095715Y-98297276D01*
X134095715Y-98297275D01*
X134095722Y-98297268D01*
X134186193Y-98158790D01*
X134239338Y-98113437D01*
X134308569Y-98104013D01*
X134371905Y-98133515D01*
X134393804Y-98158787D01*
X134484278Y-98297268D01*
X134484283Y-98297273D01*
X134484284Y-98297276D01*
X134610968Y-98434889D01*
X134636760Y-98462906D01*
X134814424Y-98601189D01*
X134814425Y-98601189D01*
X134814427Y-98601191D01*
X134941135Y-98669761D01*
X135012426Y-98708342D01*
X135225365Y-98781444D01*
X135447431Y-98818500D01*
X135672569Y-98818500D01*
X135894635Y-98781444D01*
X136107574Y-98708342D01*
X136305576Y-98601189D01*
X136483240Y-98462906D01*
X136604594Y-98331082D01*
X136635715Y-98297276D01*
X136635715Y-98297275D01*
X136635722Y-98297268D01*
X136726193Y-98158790D01*
X136779338Y-98113437D01*
X136848569Y-98104013D01*
X136911905Y-98133515D01*
X136933804Y-98158787D01*
X137024278Y-98297268D01*
X137024283Y-98297273D01*
X137024284Y-98297276D01*
X137150968Y-98434889D01*
X137176760Y-98462906D01*
X137354424Y-98601189D01*
X137354425Y-98601189D01*
X137354427Y-98601191D01*
X137481135Y-98669761D01*
X137552426Y-98708342D01*
X137765365Y-98781444D01*
X137987431Y-98818500D01*
X138212569Y-98818500D01*
X138434635Y-98781444D01*
X138647574Y-98708342D01*
X138845576Y-98601189D01*
X139023240Y-98462906D01*
X139144594Y-98331082D01*
X139175715Y-98297276D01*
X139175715Y-98297275D01*
X139175722Y-98297268D01*
X139269749Y-98153347D01*
X139322894Y-98107994D01*
X139392125Y-98098570D01*
X139455461Y-98128072D01*
X139475130Y-98150048D01*
X139601890Y-98331078D01*
X139768917Y-98498105D01*
X139962421Y-98633600D01*
X140176507Y-98733429D01*
X140176516Y-98733433D01*
X140390000Y-98790634D01*
X140390000Y-97893012D01*
X140447007Y-97925925D01*
X140574174Y-97960000D01*
X140705826Y-97960000D01*
X140832993Y-97925925D01*
X140890000Y-97893012D01*
X140890000Y-98790633D01*
X141103483Y-98733433D01*
X141103492Y-98733429D01*
X141317578Y-98633600D01*
X141511082Y-98498105D01*
X141678105Y-98331082D01*
X141808425Y-98144968D01*
X141863002Y-98101344D01*
X141932501Y-98094151D01*
X141994855Y-98125673D01*
X142011575Y-98144968D01*
X142141894Y-98331082D01*
X142308917Y-98498105D01*
X142502421Y-98633600D01*
X142716507Y-98733429D01*
X142716516Y-98733433D01*
X142930000Y-98790634D01*
X142930000Y-97893012D01*
X142987007Y-97925925D01*
X143114174Y-97960000D01*
X143245826Y-97960000D01*
X143372993Y-97925925D01*
X143430000Y-97893012D01*
X143430000Y-98790633D01*
X143643483Y-98733433D01*
X143643492Y-98733429D01*
X143857578Y-98633600D01*
X144051082Y-98498105D01*
X144218105Y-98331082D01*
X144344868Y-98150048D01*
X144399445Y-98106423D01*
X144468944Y-98099231D01*
X144531298Y-98130753D01*
X144550251Y-98153350D01*
X144644276Y-98297265D01*
X144644284Y-98297276D01*
X144770968Y-98434889D01*
X144796760Y-98462906D01*
X144974424Y-98601189D01*
X144974425Y-98601189D01*
X144974427Y-98601191D01*
X145101135Y-98669761D01*
X145172426Y-98708342D01*
X145385365Y-98781444D01*
X145607431Y-98818500D01*
X145832569Y-98818500D01*
X146054635Y-98781444D01*
X146267574Y-98708342D01*
X146465576Y-98601189D01*
X146643240Y-98462906D01*
X146764594Y-98331082D01*
X146795715Y-98297276D01*
X146795717Y-98297273D01*
X146795722Y-98297268D01*
X146918860Y-98108791D01*
X147009296Y-97902616D01*
X147064564Y-97684368D01*
X147074041Y-97570000D01*
X147083156Y-97460005D01*
X147083156Y-97459994D01*
X147064565Y-97235640D01*
X147064563Y-97235628D01*
X147043637Y-97152993D01*
X147009296Y-97017384D01*
X146918860Y-96811209D01*
X146902706Y-96786484D01*
X146795723Y-96622734D01*
X146795715Y-96622723D01*
X146643243Y-96457097D01*
X146643238Y-96457092D01*
X146465577Y-96318812D01*
X146465572Y-96318808D01*
X146267580Y-96211661D01*
X146267577Y-96211659D01*
X146267574Y-96211658D01*
X146267571Y-96211657D01*
X146267569Y-96211656D01*
X146054637Y-96138556D01*
X145832569Y-96101500D01*
X145607431Y-96101500D01*
X145385362Y-96138556D01*
X145172430Y-96211656D01*
X145172419Y-96211661D01*
X144974427Y-96318808D01*
X144974422Y-96318812D01*
X144796761Y-96457092D01*
X144796756Y-96457097D01*
X144644284Y-96622723D01*
X144644276Y-96622734D01*
X144550251Y-96766650D01*
X144497105Y-96812007D01*
X144427873Y-96821430D01*
X144364538Y-96791928D01*
X144344868Y-96769951D01*
X144218113Y-96588926D01*
X144218108Y-96588920D01*
X144051082Y-96421894D01*
X143857578Y-96286399D01*
X143643492Y-96186570D01*
X143643486Y-96186567D01*
X143430000Y-96129364D01*
X143430000Y-97026988D01*
X143372993Y-96994075D01*
X143245826Y-96960000D01*
X143114174Y-96960000D01*
X142987007Y-96994075D01*
X142930000Y-97026988D01*
X142930000Y-96129364D01*
X142929999Y-96129364D01*
X142716513Y-96186567D01*
X142716507Y-96186570D01*
X142502422Y-96286399D01*
X142502420Y-96286400D01*
X142308926Y-96421886D01*
X142308920Y-96421891D01*
X142141891Y-96588920D01*
X142141890Y-96588922D01*
X142011575Y-96775031D01*
X141956998Y-96818655D01*
X141887499Y-96825848D01*
X141825145Y-96794326D01*
X141808425Y-96775031D01*
X141678109Y-96588922D01*
X141678108Y-96588920D01*
X141511082Y-96421894D01*
X141317578Y-96286399D01*
X141103492Y-96186570D01*
X141103486Y-96186567D01*
X140890000Y-96129364D01*
X140890000Y-97026988D01*
X140832993Y-96994075D01*
X140705826Y-96960000D01*
X140574174Y-96960000D01*
X140447007Y-96994075D01*
X140390000Y-97026988D01*
X140390000Y-96129364D01*
X140389999Y-96129364D01*
X140176513Y-96186567D01*
X140176507Y-96186570D01*
X139962422Y-96286399D01*
X139962420Y-96286400D01*
X139768926Y-96421886D01*
X139768920Y-96421891D01*
X139601891Y-96588920D01*
X139601890Y-96588922D01*
X139475131Y-96769952D01*
X139420554Y-96813577D01*
X139351055Y-96820769D01*
X139288701Y-96789247D01*
X139269752Y-96766656D01*
X139175722Y-96622732D01*
X139175715Y-96622725D01*
X139175715Y-96622723D01*
X139023243Y-96457097D01*
X139023238Y-96457092D01*
X138845577Y-96318812D01*
X138845572Y-96318808D01*
X138647580Y-96211661D01*
X138647577Y-96211659D01*
X138647574Y-96211658D01*
X138647571Y-96211657D01*
X138647569Y-96211656D01*
X138434637Y-96138556D01*
X138212569Y-96101500D01*
X137987431Y-96101500D01*
X137765362Y-96138556D01*
X137552430Y-96211656D01*
X137552419Y-96211661D01*
X137354427Y-96318808D01*
X137354422Y-96318812D01*
X137176761Y-96457092D01*
X137176756Y-96457097D01*
X137024284Y-96622723D01*
X137024276Y-96622734D01*
X136933808Y-96761206D01*
X136880662Y-96806562D01*
X136811431Y-96815986D01*
X136748095Y-96786484D01*
X136726192Y-96761206D01*
X136635723Y-96622734D01*
X136635715Y-96622723D01*
X136483243Y-96457097D01*
X136483238Y-96457092D01*
X136305577Y-96318812D01*
X136305572Y-96318808D01*
X136107580Y-96211661D01*
X136107577Y-96211659D01*
X136107574Y-96211658D01*
X136107571Y-96211657D01*
X136107569Y-96211656D01*
X135894637Y-96138556D01*
X135672569Y-96101500D01*
X135447431Y-96101500D01*
X135225362Y-96138556D01*
X135012430Y-96211656D01*
X135012419Y-96211661D01*
X134814427Y-96318808D01*
X134814422Y-96318812D01*
X134636761Y-96457092D01*
X134636756Y-96457097D01*
X134484284Y-96622723D01*
X134484276Y-96622734D01*
X134393808Y-96761206D01*
X134340662Y-96806562D01*
X134271431Y-96815986D01*
X134208095Y-96786484D01*
X134186192Y-96761206D01*
X134095723Y-96622734D01*
X134095715Y-96622723D01*
X133943243Y-96457097D01*
X133943238Y-96457092D01*
X133765577Y-96318812D01*
X133765572Y-96318808D01*
X133567580Y-96211661D01*
X133567577Y-96211659D01*
X133567574Y-96211658D01*
X133567571Y-96211657D01*
X133567569Y-96211656D01*
X133354637Y-96138556D01*
X133132569Y-96101500D01*
X132907431Y-96101500D01*
X132685362Y-96138556D01*
X132472430Y-96211656D01*
X132472419Y-96211661D01*
X132274427Y-96318808D01*
X132274422Y-96318812D01*
X132096761Y-96457092D01*
X132096756Y-96457097D01*
X131944284Y-96622723D01*
X131944276Y-96622734D01*
X131853808Y-96761206D01*
X131800662Y-96806562D01*
X131731431Y-96815986D01*
X131668095Y-96786484D01*
X131646192Y-96761206D01*
X131555723Y-96622734D01*
X131555715Y-96622723D01*
X131403243Y-96457097D01*
X131403238Y-96457092D01*
X131225577Y-96318812D01*
X131225572Y-96318808D01*
X131027580Y-96211661D01*
X131027577Y-96211659D01*
X131027574Y-96211658D01*
X131027571Y-96211657D01*
X131027569Y-96211656D01*
X130814637Y-96138556D01*
X130592569Y-96101500D01*
X130367431Y-96101500D01*
X130145362Y-96138556D01*
X129932430Y-96211656D01*
X129932419Y-96211661D01*
X129734427Y-96318808D01*
X129734422Y-96318812D01*
X129556761Y-96457092D01*
X129493548Y-96525760D01*
X129433661Y-96561750D01*
X129363823Y-96559649D01*
X129306207Y-96520124D01*
X129286138Y-96485110D01*
X129240889Y-96363796D01*
X129207214Y-96318812D01*
X129153261Y-96246739D01*
X129036204Y-96159111D01*
X129035172Y-96158726D01*
X128899203Y-96108011D01*
X128838654Y-96101500D01*
X128838638Y-96101500D01*
X127041362Y-96101500D01*
X127041345Y-96101500D01*
X126980797Y-96108011D01*
X126980795Y-96108011D01*
X126843795Y-96159111D01*
X126726739Y-96246739D01*
X126639111Y-96363795D01*
X126588011Y-96500795D01*
X126588011Y-96500797D01*
X126581500Y-96561345D01*
X126581500Y-98358654D01*
X123150000Y-98358654D01*
X123150000Y-98070000D01*
X122233012Y-98070000D01*
X122265925Y-98012993D01*
X122300000Y-97885826D01*
X122300000Y-97754174D01*
X122265925Y-97627007D01*
X122233012Y-97570000D01*
X123150000Y-97570000D01*
X123150000Y-96922172D01*
X123149999Y-96922155D01*
X123143598Y-96862627D01*
X123143596Y-96862620D01*
X123093354Y-96727913D01*
X123093350Y-96727906D01*
X123007190Y-96612812D01*
X123007187Y-96612809D01*
X122892093Y-96526649D01*
X122892086Y-96526645D01*
X122757379Y-96476403D01*
X122757372Y-96476401D01*
X122697844Y-96470000D01*
X122050000Y-96470000D01*
X122050000Y-97386988D01*
X121992993Y-97354075D01*
X121865826Y-97320000D01*
X121734174Y-97320000D01*
X121607007Y-97354075D01*
X121550000Y-97386988D01*
X121550000Y-96470000D01*
X120902155Y-96470000D01*
X120842627Y-96476401D01*
X120842620Y-96476403D01*
X120707913Y-96526645D01*
X120707906Y-96526649D01*
X120592812Y-96612809D01*
X120592809Y-96612812D01*
X120506649Y-96727906D01*
X120506645Y-96727913D01*
X120456403Y-96862620D01*
X120456401Y-96862627D01*
X120450000Y-96922155D01*
X120450000Y-97570000D01*
X121366988Y-97570000D01*
X121334075Y-97627007D01*
X121300000Y-97754174D01*
X121300000Y-97885826D01*
X121334075Y-98012993D01*
X121366988Y-98070000D01*
X120450000Y-98070000D01*
X120450000Y-98717844D01*
X100075500Y-98717844D01*
X100075500Y-92800001D01*
X111186502Y-92800001D01*
X111206456Y-93028081D01*
X111206457Y-93028089D01*
X111265714Y-93249238D01*
X111265718Y-93249249D01*
X111326689Y-93380001D01*
X111362477Y-93456749D01*
X111493802Y-93644300D01*
X111655700Y-93806198D01*
X111843251Y-93937523D01*
X111968091Y-93995736D01*
X112050750Y-94034281D01*
X112050752Y-94034281D01*
X112050757Y-94034284D01*
X112271913Y-94093543D01*
X112434832Y-94107796D01*
X112499998Y-94113498D01*
X112500000Y-94113498D01*
X112500002Y-94113498D01*
X112557021Y-94108509D01*
X112728087Y-94093543D01*
X112949243Y-94034284D01*
X113156749Y-93937523D01*
X113344300Y-93806198D01*
X113506198Y-93644300D01*
X113581768Y-93536374D01*
X113636344Y-93492752D01*
X113683342Y-93483500D01*
X116869324Y-93483500D01*
X116936363Y-93503185D01*
X116979297Y-93552337D01*
X116979772Y-93552063D01*
X116981164Y-93554475D01*
X116981706Y-93555095D01*
X116982476Y-93556748D01*
X116982477Y-93556749D01*
X117113802Y-93744300D01*
X117275700Y-93906198D01*
X117463251Y-94037523D01*
X117583385Y-94093542D01*
X117670750Y-94134281D01*
X117670752Y-94134281D01*
X117670757Y-94134284D01*
X117891913Y-94193543D01*
X118054832Y-94207796D01*
X118119998Y-94213498D01*
X118120000Y-94213498D01*
X118120002Y-94213498D01*
X118177021Y-94208509D01*
X118348087Y-94193543D01*
X118569243Y-94134284D01*
X118776749Y-94037523D01*
X118964300Y-93906198D01*
X119126198Y-93744300D01*
X119257523Y-93556749D01*
X119339941Y-93380001D01*
X134476502Y-93380001D01*
X134496456Y-93608081D01*
X134496457Y-93608089D01*
X134555714Y-93829238D01*
X134555718Y-93829249D01*
X134651328Y-94034285D01*
X134652477Y-94036749D01*
X134783802Y-94224300D01*
X134945700Y-94386198D01*
X135133251Y-94517523D01*
X135258091Y-94575736D01*
X135340750Y-94614281D01*
X135340752Y-94614281D01*
X135340757Y-94614284D01*
X135561913Y-94673543D01*
X135724832Y-94687796D01*
X135789998Y-94693498D01*
X135790000Y-94693498D01*
X135790002Y-94693498D01*
X135847021Y-94688509D01*
X136018087Y-94673543D01*
X136239243Y-94614284D01*
X136446749Y-94517523D01*
X136634300Y-94386198D01*
X136796198Y-94224300D01*
X136927523Y-94036749D01*
X137024284Y-93829243D01*
X137083543Y-93608087D01*
X137103498Y-93380001D01*
X144636502Y-93380001D01*
X144656456Y-93608081D01*
X144656457Y-93608089D01*
X144715714Y-93829238D01*
X144715718Y-93829249D01*
X144811328Y-94034285D01*
X144812477Y-94036749D01*
X144943802Y-94224300D01*
X145105700Y-94386198D01*
X145293251Y-94517523D01*
X145418091Y-94575736D01*
X145500750Y-94614281D01*
X145500752Y-94614281D01*
X145500757Y-94614284D01*
X145721913Y-94673543D01*
X145884832Y-94687796D01*
X145949998Y-94693498D01*
X145950000Y-94693498D01*
X145950002Y-94693498D01*
X146007021Y-94688509D01*
X146178087Y-94673543D01*
X146399243Y-94614284D01*
X146606749Y-94517523D01*
X146688651Y-94460173D01*
X146754852Y-94437847D01*
X146822620Y-94454856D01*
X146847453Y-94474068D01*
X149405181Y-97031796D01*
X149438666Y-97093119D01*
X149441500Y-97119477D01*
X149441500Y-98358654D01*
X149448011Y-98419202D01*
X149448011Y-98419204D01*
X149499111Y-98556204D01*
X149586739Y-98673261D01*
X149703796Y-98760889D01*
X149840799Y-98811989D01*
X149868050Y-98814918D01*
X149901345Y-98818499D01*
X149901362Y-98818500D01*
X151698638Y-98818500D01*
X151698654Y-98818499D01*
X151725692Y-98815591D01*
X151759201Y-98811989D01*
X151896204Y-98760889D01*
X152013261Y-98673261D01*
X152100889Y-98556204D01*
X152146138Y-98434887D01*
X152188009Y-98378956D01*
X152253474Y-98354539D01*
X152321746Y-98369391D01*
X152353545Y-98394236D01*
X152416760Y-98462906D01*
X152594424Y-98601189D01*
X152594425Y-98601189D01*
X152594427Y-98601191D01*
X152721135Y-98669761D01*
X152792426Y-98708342D01*
X153005365Y-98781444D01*
X153227431Y-98818500D01*
X153452569Y-98818500D01*
X153674635Y-98781444D01*
X153887574Y-98708342D01*
X154085576Y-98601189D01*
X154263240Y-98462906D01*
X154384594Y-98331082D01*
X154415715Y-98297276D01*
X154415715Y-98297275D01*
X154415722Y-98297268D01*
X154506193Y-98158790D01*
X154559338Y-98113437D01*
X154628569Y-98104013D01*
X154691905Y-98133515D01*
X154713804Y-98158787D01*
X154804278Y-98297268D01*
X154804283Y-98297273D01*
X154804284Y-98297276D01*
X154930968Y-98434889D01*
X154956760Y-98462906D01*
X155134424Y-98601189D01*
X155134425Y-98601189D01*
X155134427Y-98601191D01*
X155261135Y-98669761D01*
X155332426Y-98708342D01*
X155545365Y-98781444D01*
X155767431Y-98818500D01*
X155992569Y-98818500D01*
X156214635Y-98781444D01*
X156427574Y-98708342D01*
X156625576Y-98601189D01*
X156803240Y-98462906D01*
X156924594Y-98331082D01*
X156955715Y-98297276D01*
X156955715Y-98297275D01*
X156955722Y-98297268D01*
X157046193Y-98158790D01*
X157099338Y-98113437D01*
X157168569Y-98104013D01*
X157231905Y-98133515D01*
X157253804Y-98158787D01*
X157344278Y-98297268D01*
X157344283Y-98297273D01*
X157344284Y-98297276D01*
X157470968Y-98434889D01*
X157496760Y-98462906D01*
X157674424Y-98601189D01*
X157674425Y-98601189D01*
X157674427Y-98601191D01*
X157801135Y-98669761D01*
X157872426Y-98708342D01*
X158085365Y-98781444D01*
X158307431Y-98818500D01*
X158532569Y-98818500D01*
X158754635Y-98781444D01*
X158967574Y-98708342D01*
X159165576Y-98601189D01*
X159343240Y-98462906D01*
X159464594Y-98331082D01*
X159495715Y-98297276D01*
X159495715Y-98297275D01*
X159495722Y-98297268D01*
X159586193Y-98158790D01*
X159639338Y-98113437D01*
X159708569Y-98104013D01*
X159771905Y-98133515D01*
X159793804Y-98158787D01*
X159884278Y-98297268D01*
X159884283Y-98297273D01*
X159884284Y-98297276D01*
X160010968Y-98434889D01*
X160036760Y-98462906D01*
X160214424Y-98601189D01*
X160214425Y-98601189D01*
X160214427Y-98601191D01*
X160341135Y-98669761D01*
X160412426Y-98708342D01*
X160625365Y-98781444D01*
X160847431Y-98818500D01*
X161072569Y-98818500D01*
X161294635Y-98781444D01*
X161507574Y-98708342D01*
X161705576Y-98601189D01*
X161883240Y-98462906D01*
X162004594Y-98331082D01*
X162035715Y-98297276D01*
X162035715Y-98297275D01*
X162035722Y-98297268D01*
X162126193Y-98158790D01*
X162179338Y-98113437D01*
X162248569Y-98104013D01*
X162311905Y-98133515D01*
X162333804Y-98158787D01*
X162424278Y-98297268D01*
X162424283Y-98297273D01*
X162424284Y-98297276D01*
X162550968Y-98434889D01*
X162576760Y-98462906D01*
X162754424Y-98601189D01*
X162754425Y-98601189D01*
X162754427Y-98601191D01*
X162881135Y-98669761D01*
X162952426Y-98708342D01*
X163165365Y-98781444D01*
X163387431Y-98818500D01*
X163612569Y-98818500D01*
X163834635Y-98781444D01*
X164047574Y-98708342D01*
X164245576Y-98601189D01*
X164423240Y-98462906D01*
X164544594Y-98331082D01*
X164575715Y-98297276D01*
X164575717Y-98297273D01*
X164575722Y-98297268D01*
X164698860Y-98108791D01*
X164789296Y-97902616D01*
X164844564Y-97684368D01*
X164854041Y-97570000D01*
X164863156Y-97460005D01*
X164863156Y-97459994D01*
X164844565Y-97235640D01*
X164844563Y-97235628D01*
X164823637Y-97152993D01*
X164789296Y-97017384D01*
X164698860Y-96811209D01*
X164682706Y-96786484D01*
X164575723Y-96622734D01*
X164575715Y-96622723D01*
X164423243Y-96457097D01*
X164423238Y-96457092D01*
X164245577Y-96318812D01*
X164245572Y-96318808D01*
X164047580Y-96211661D01*
X164047577Y-96211659D01*
X164047574Y-96211658D01*
X164047571Y-96211657D01*
X164047569Y-96211656D01*
X163834637Y-96138556D01*
X163612569Y-96101500D01*
X163387431Y-96101500D01*
X163165362Y-96138556D01*
X162952430Y-96211656D01*
X162952419Y-96211661D01*
X162754427Y-96318808D01*
X162754422Y-96318812D01*
X162576761Y-96457092D01*
X162576756Y-96457097D01*
X162424284Y-96622723D01*
X162424276Y-96622734D01*
X162333808Y-96761206D01*
X162280662Y-96806562D01*
X162211431Y-96815986D01*
X162148095Y-96786484D01*
X162126192Y-96761206D01*
X162035723Y-96622734D01*
X162035715Y-96622723D01*
X161883243Y-96457097D01*
X161883238Y-96457092D01*
X161705577Y-96318812D01*
X161705572Y-96318808D01*
X161507580Y-96211661D01*
X161507577Y-96211659D01*
X161507574Y-96211658D01*
X161507571Y-96211657D01*
X161507569Y-96211656D01*
X161294637Y-96138556D01*
X161072569Y-96101500D01*
X160847431Y-96101500D01*
X160625362Y-96138556D01*
X160412430Y-96211656D01*
X160412419Y-96211661D01*
X160214427Y-96318808D01*
X160214422Y-96318812D01*
X160036761Y-96457092D01*
X160036756Y-96457097D01*
X159884284Y-96622723D01*
X159884276Y-96622734D01*
X159793808Y-96761206D01*
X159740662Y-96806562D01*
X159671431Y-96815986D01*
X159608095Y-96786484D01*
X159586192Y-96761206D01*
X159495723Y-96622734D01*
X159495715Y-96622723D01*
X159343243Y-96457097D01*
X159343238Y-96457092D01*
X159165577Y-96318812D01*
X159165572Y-96318808D01*
X158967580Y-96211661D01*
X158967577Y-96211659D01*
X158967574Y-96211658D01*
X158967571Y-96211657D01*
X158967569Y-96211656D01*
X158754637Y-96138556D01*
X158532569Y-96101500D01*
X158307431Y-96101500D01*
X158085362Y-96138556D01*
X157872430Y-96211656D01*
X157872419Y-96211661D01*
X157674427Y-96318808D01*
X157674422Y-96318812D01*
X157496761Y-96457092D01*
X157496756Y-96457097D01*
X157344284Y-96622723D01*
X157344276Y-96622734D01*
X157253808Y-96761206D01*
X157200662Y-96806562D01*
X157131431Y-96815986D01*
X157068095Y-96786484D01*
X157046192Y-96761206D01*
X156955723Y-96622734D01*
X156955715Y-96622723D01*
X156803243Y-96457097D01*
X156803238Y-96457092D01*
X156625577Y-96318812D01*
X156625572Y-96318808D01*
X156427580Y-96211661D01*
X156427577Y-96211659D01*
X156427574Y-96211658D01*
X156427571Y-96211657D01*
X156427569Y-96211656D01*
X156214637Y-96138556D01*
X155992569Y-96101500D01*
X155767431Y-96101500D01*
X155545362Y-96138556D01*
X155332430Y-96211656D01*
X155332419Y-96211661D01*
X155134427Y-96318808D01*
X155134422Y-96318812D01*
X154956761Y-96457092D01*
X154956756Y-96457097D01*
X154804284Y-96622723D01*
X154804276Y-96622734D01*
X154713808Y-96761206D01*
X154660662Y-96806562D01*
X154591431Y-96815986D01*
X154528095Y-96786484D01*
X154506192Y-96761206D01*
X154415723Y-96622734D01*
X154415715Y-96622723D01*
X154263243Y-96457097D01*
X154263238Y-96457092D01*
X154085577Y-96318812D01*
X154085572Y-96318808D01*
X153887580Y-96211661D01*
X153887577Y-96211659D01*
X153887574Y-96211658D01*
X153887571Y-96211657D01*
X153887569Y-96211656D01*
X153674637Y-96138556D01*
X153452569Y-96101500D01*
X153227431Y-96101500D01*
X153005362Y-96138556D01*
X152792430Y-96211656D01*
X152792419Y-96211661D01*
X152594427Y-96318808D01*
X152594422Y-96318812D01*
X152416761Y-96457092D01*
X152353548Y-96525760D01*
X152293661Y-96561750D01*
X152223823Y-96559649D01*
X152166207Y-96520124D01*
X152146138Y-96485110D01*
X152100889Y-96363796D01*
X152067214Y-96318812D01*
X152013261Y-96246739D01*
X151896204Y-96159111D01*
X151895172Y-96158726D01*
X151759203Y-96108011D01*
X151698654Y-96101500D01*
X151698638Y-96101500D01*
X150459477Y-96101500D01*
X150392438Y-96081815D01*
X150371796Y-96065181D01*
X147153359Y-92846744D01*
X147128660Y-92811472D01*
X147087523Y-92723251D01*
X146956198Y-92535700D01*
X146794300Y-92373802D01*
X146606749Y-92242477D01*
X146606745Y-92242475D01*
X146399249Y-92145718D01*
X146399238Y-92145714D01*
X146178089Y-92086457D01*
X146178081Y-92086456D01*
X145950002Y-92066502D01*
X145949998Y-92066502D01*
X145721918Y-92086456D01*
X145721910Y-92086457D01*
X145500761Y-92145714D01*
X145500750Y-92145718D01*
X145293254Y-92242475D01*
X145293252Y-92242476D01*
X145293251Y-92242477D01*
X145105700Y-92373802D01*
X145105698Y-92373803D01*
X145105695Y-92373806D01*
X144943806Y-92535695D01*
X144943803Y-92535698D01*
X144943802Y-92535700D01*
X144892336Y-92609201D01*
X144812476Y-92723252D01*
X144812475Y-92723254D01*
X144715718Y-92930750D01*
X144715714Y-92930761D01*
X144656457Y-93151910D01*
X144656456Y-93151918D01*
X144636502Y-93379998D01*
X144636502Y-93380001D01*
X137103498Y-93380001D01*
X137103498Y-93380000D01*
X137083543Y-93151913D01*
X137024284Y-92930757D01*
X137009942Y-92900001D01*
X136977899Y-92831284D01*
X136927523Y-92723251D01*
X136796198Y-92535700D01*
X136634300Y-92373802D01*
X136446749Y-92242477D01*
X136446745Y-92242475D01*
X136239249Y-92145718D01*
X136239238Y-92145714D01*
X136018089Y-92086457D01*
X136018081Y-92086456D01*
X135790002Y-92066502D01*
X135789998Y-92066502D01*
X135561918Y-92086456D01*
X135561910Y-92086457D01*
X135340761Y-92145714D01*
X135340750Y-92145718D01*
X135133254Y-92242475D01*
X135133252Y-92242476D01*
X135133251Y-92242477D01*
X134945700Y-92373802D01*
X134945698Y-92373803D01*
X134945695Y-92373806D01*
X134783806Y-92535695D01*
X134783803Y-92535698D01*
X134783802Y-92535700D01*
X134732336Y-92609201D01*
X134652476Y-92723252D01*
X134652475Y-92723254D01*
X134555718Y-92930750D01*
X134555714Y-92930761D01*
X134496457Y-93151910D01*
X134496456Y-93151918D01*
X134476502Y-93379998D01*
X134476502Y-93380001D01*
X119339941Y-93380001D01*
X119354284Y-93349243D01*
X119413543Y-93128087D01*
X119433498Y-92900000D01*
X119413543Y-92671913D01*
X119411184Y-92663109D01*
X119412847Y-92593259D01*
X119443276Y-92543337D01*
X122414699Y-89571914D01*
X122476020Y-89538431D01*
X122545712Y-89543415D01*
X122601645Y-89585287D01*
X122614760Y-89607193D01*
X122696630Y-89782766D01*
X122712477Y-89816749D01*
X122843802Y-90004300D01*
X123005700Y-90166198D01*
X123190565Y-90295642D01*
X123193251Y-90297523D01*
X123236345Y-90317618D01*
X123288784Y-90363791D01*
X123307936Y-90430984D01*
X123287720Y-90497865D01*
X123236345Y-90542382D01*
X123193251Y-90562476D01*
X123151533Y-90591688D01*
X123005700Y-90693802D01*
X123005698Y-90693803D01*
X123005695Y-90693806D01*
X122843806Y-90855695D01*
X122843803Y-90855698D01*
X122843802Y-90855700D01*
X122790384Y-90931989D01*
X122712476Y-91043252D01*
X122712475Y-91043254D01*
X122615718Y-91250750D01*
X122615714Y-91250761D01*
X122556457Y-91471910D01*
X122556456Y-91471918D01*
X122536502Y-91699998D01*
X122536502Y-91700001D01*
X122556456Y-91928081D01*
X122556457Y-91928089D01*
X122615714Y-92149238D01*
X122615718Y-92149249D01*
X122709683Y-92350757D01*
X122712477Y-92356749D01*
X122843802Y-92544300D01*
X123005700Y-92706198D01*
X123193251Y-92837523D01*
X123213026Y-92846744D01*
X123400750Y-92934281D01*
X123400752Y-92934281D01*
X123400757Y-92934284D01*
X123621913Y-92993543D01*
X123784832Y-93007796D01*
X123849998Y-93013498D01*
X123850000Y-93013498D01*
X123850002Y-93013498D01*
X123907139Y-93008499D01*
X124078087Y-92993543D01*
X124299243Y-92934284D01*
X124506749Y-92837523D01*
X124694300Y-92706198D01*
X124856198Y-92544300D01*
X124987523Y-92356749D01*
X125084284Y-92149243D01*
X125143543Y-91928087D01*
X125163498Y-91700000D01*
X125160991Y-91671350D01*
X125151750Y-91565716D01*
X125143543Y-91471913D01*
X125084284Y-91250757D01*
X125061429Y-91201745D01*
X125024943Y-91123500D01*
X124987523Y-91043251D01*
X124856198Y-90855700D01*
X124694300Y-90693802D01*
X124506749Y-90562477D01*
X124497583Y-90558203D01*
X124463655Y-90542382D01*
X124411215Y-90496210D01*
X124392063Y-90429017D01*
X124412278Y-90362136D01*
X124463655Y-90317618D01*
X124466882Y-90316112D01*
X124506749Y-90297523D01*
X124694300Y-90166198D01*
X124856198Y-90004300D01*
X124987523Y-89816749D01*
X125084284Y-89609243D01*
X125143543Y-89388087D01*
X125163498Y-89160000D01*
X125143543Y-88931913D01*
X125084284Y-88710757D01*
X124987523Y-88503251D01*
X124856198Y-88315700D01*
X124694300Y-88153802D01*
X124506749Y-88022477D01*
X124463655Y-88002382D01*
X124411215Y-87956210D01*
X124392063Y-87889017D01*
X124412278Y-87822136D01*
X124463655Y-87777618D01*
X124471853Y-87773795D01*
X124506749Y-87757523D01*
X124694300Y-87626198D01*
X124856198Y-87464300D01*
X124987523Y-87276749D01*
X125084284Y-87069243D01*
X125143543Y-86848087D01*
X125163498Y-86620000D01*
X125143543Y-86391913D01*
X125084284Y-86170757D01*
X124987523Y-85963251D01*
X124856198Y-85775700D01*
X124694300Y-85613802D01*
X124506749Y-85482477D01*
X124485698Y-85472661D01*
X124463655Y-85462382D01*
X124411215Y-85416210D01*
X124392063Y-85349017D01*
X124412278Y-85282136D01*
X124463655Y-85237618D01*
X124466882Y-85236112D01*
X124506749Y-85217523D01*
X124694300Y-85086198D01*
X124856198Y-84924300D01*
X124987523Y-84736749D01*
X125084284Y-84529243D01*
X125143543Y-84308087D01*
X125161229Y-84105924D01*
X125186681Y-84040858D01*
X125243272Y-83999879D01*
X125313034Y-83996001D01*
X125372438Y-84029053D01*
X130146721Y-88803336D01*
X130180206Y-88864659D01*
X130178817Y-88923102D01*
X130176459Y-88931902D01*
X130176456Y-88931919D01*
X130156502Y-89159998D01*
X130156502Y-89160001D01*
X130176456Y-89388081D01*
X130176457Y-89388089D01*
X130235714Y-89609238D01*
X130235718Y-89609249D01*
X130331082Y-89813758D01*
X130332477Y-89816749D01*
X130463802Y-90004300D01*
X130625700Y-90166198D01*
X130633370Y-90171568D01*
X130676993Y-90226144D01*
X130684185Y-90295642D01*
X130652663Y-90357997D01*
X130592433Y-90393410D01*
X130575501Y-90396430D01*
X130560797Y-90398011D01*
X130560795Y-90398011D01*
X130423795Y-90449111D01*
X130306739Y-90536739D01*
X130219111Y-90653795D01*
X130168011Y-90790795D01*
X130168011Y-90790797D01*
X130161500Y-90851345D01*
X130161500Y-92548654D01*
X130168011Y-92609202D01*
X130168011Y-92609204D01*
X130204189Y-92706198D01*
X130219111Y-92746204D01*
X130306739Y-92863261D01*
X130423796Y-92950889D01*
X130560799Y-93001989D01*
X130588050Y-93004918D01*
X130621345Y-93008499D01*
X130621362Y-93008500D01*
X132318638Y-93008500D01*
X132318654Y-93008499D01*
X132345692Y-93005591D01*
X132379201Y-93001989D01*
X132516204Y-92950889D01*
X132633261Y-92863261D01*
X132720889Y-92746204D01*
X132771989Y-92609201D01*
X132775998Y-92571910D01*
X132778499Y-92548654D01*
X132778500Y-92548637D01*
X132778500Y-90851362D01*
X132778499Y-90851345D01*
X132775157Y-90820270D01*
X132771989Y-90790799D01*
X132764188Y-90769885D01*
X132749522Y-90730564D01*
X132720889Y-90653796D01*
X132633261Y-90536739D01*
X132516204Y-90449111D01*
X132379203Y-90398011D01*
X132364498Y-90396430D01*
X132299947Y-90369691D01*
X132260100Y-90312298D01*
X132257607Y-90242473D01*
X132293261Y-90182385D01*
X132306624Y-90171572D01*
X132314300Y-90166198D01*
X132476198Y-90004300D01*
X132551768Y-89896374D01*
X132606344Y-89852752D01*
X132653342Y-89843500D01*
X135937500Y-89843500D01*
X136004539Y-89863185D01*
X136050294Y-89915989D01*
X136061500Y-89967500D01*
X136061500Y-90388654D01*
X136068011Y-90449202D01*
X136068011Y-90449204D01*
X136102766Y-90542382D01*
X136119111Y-90586204D01*
X136206739Y-90703261D01*
X136323796Y-90790889D01*
X136460799Y-90841989D01*
X136488050Y-90844918D01*
X136521345Y-90848499D01*
X136521362Y-90848500D01*
X138318638Y-90848500D01*
X138318654Y-90848499D01*
X138345692Y-90845591D01*
X138379201Y-90841989D01*
X138516204Y-90790889D01*
X138633261Y-90703261D01*
X138720889Y-90586204D01*
X138761003Y-90478654D01*
X143451500Y-90478654D01*
X143458011Y-90539202D01*
X143458011Y-90539204D01*
X143500753Y-90653795D01*
X143509111Y-90676204D01*
X143596739Y-90793261D01*
X143713796Y-90880889D01*
X143850799Y-90931989D01*
X143878050Y-90934918D01*
X143911345Y-90938499D01*
X143911362Y-90938500D01*
X145708638Y-90938500D01*
X145708654Y-90938499D01*
X145735692Y-90935591D01*
X145769201Y-90931989D01*
X145906204Y-90880889D01*
X146023261Y-90793261D01*
X146110889Y-90676204D01*
X146161989Y-90539201D01*
X146168422Y-90479368D01*
X146168499Y-90478654D01*
X146168500Y-90478637D01*
X146168500Y-88681362D01*
X146168499Y-88681345D01*
X146164516Y-88644304D01*
X146161989Y-88620799D01*
X146151009Y-88591362D01*
X146128420Y-88530799D01*
X146110889Y-88483796D01*
X146023261Y-88366739D01*
X145906204Y-88279111D01*
X145769203Y-88228011D01*
X145708654Y-88221500D01*
X145708638Y-88221500D01*
X143911362Y-88221500D01*
X143911345Y-88221500D01*
X143850797Y-88228011D01*
X143850795Y-88228011D01*
X143713795Y-88279111D01*
X143596739Y-88366739D01*
X143509111Y-88483795D01*
X143458011Y-88620795D01*
X143458011Y-88620797D01*
X143451500Y-88681345D01*
X143451500Y-90478654D01*
X138761003Y-90478654D01*
X138771989Y-90449201D01*
X138775591Y-90415692D01*
X138778499Y-90388654D01*
X138778500Y-90388637D01*
X138778500Y-88591362D01*
X138778499Y-88591345D01*
X138775157Y-88560270D01*
X138771989Y-88530799D01*
X138761714Y-88503252D01*
X138732014Y-88423624D01*
X138720889Y-88393796D01*
X138633261Y-88276739D01*
X138516204Y-88189111D01*
X138379203Y-88138011D01*
X138318654Y-88131500D01*
X138318638Y-88131500D01*
X136521362Y-88131500D01*
X136521345Y-88131500D01*
X136460797Y-88138011D01*
X136460795Y-88138011D01*
X136323795Y-88189111D01*
X136206739Y-88276739D01*
X136119112Y-88393793D01*
X136119111Y-88393796D01*
X136118350Y-88395833D01*
X136117047Y-88397574D01*
X136114863Y-88401576D01*
X136114287Y-88401261D01*
X136076482Y-88451766D01*
X136011018Y-88476184D01*
X136002170Y-88476500D01*
X132653342Y-88476500D01*
X132586303Y-88456815D01*
X132551768Y-88423625D01*
X132476198Y-88315700D01*
X132314300Y-88153802D01*
X132126749Y-88022477D01*
X132083655Y-88002382D01*
X132031215Y-87956210D01*
X132012063Y-87889017D01*
X132032278Y-87822136D01*
X132083655Y-87777618D01*
X132091853Y-87773795D01*
X132126749Y-87757523D01*
X132314300Y-87626198D01*
X132476198Y-87464300D01*
X132607523Y-87276749D01*
X132704284Y-87069243D01*
X132763543Y-86848087D01*
X132783498Y-86620000D01*
X132763543Y-86391913D01*
X132704284Y-86170757D01*
X132607523Y-85963251D01*
X132476198Y-85775700D01*
X132314300Y-85613802D01*
X132126749Y-85482477D01*
X132073596Y-85457691D01*
X132030791Y-85420001D01*
X148536502Y-85420001D01*
X148556456Y-85648081D01*
X148556457Y-85648089D01*
X148615714Y-85869238D01*
X148615718Y-85869249D01*
X148710487Y-86072482D01*
X148712477Y-86076749D01*
X148843802Y-86264300D01*
X149005700Y-86426198D01*
X149113623Y-86501766D01*
X149157248Y-86556342D01*
X149166500Y-86603341D01*
X149166500Y-91201745D01*
X149146815Y-91268784D01*
X149128800Y-91289246D01*
X149129528Y-91289974D01*
X148963806Y-91455695D01*
X148963803Y-91455698D01*
X148963802Y-91455700D01*
X148906509Y-91537523D01*
X148832476Y-91643252D01*
X148832475Y-91643254D01*
X148735718Y-91850750D01*
X148735714Y-91850761D01*
X148676457Y-92071910D01*
X148676456Y-92071918D01*
X148656502Y-92299998D01*
X148656502Y-92300001D01*
X148676456Y-92528081D01*
X148676457Y-92528089D01*
X148735714Y-92749238D01*
X148735718Y-92749249D01*
X148822000Y-92934281D01*
X148832477Y-92956749D01*
X148963802Y-93144300D01*
X149125700Y-93306198D01*
X149313251Y-93437523D01*
X149354482Y-93456749D01*
X149520750Y-93534281D01*
X149520752Y-93534281D01*
X149520757Y-93534284D01*
X149741913Y-93593543D01*
X149904832Y-93607796D01*
X149969998Y-93613498D01*
X149970000Y-93613498D01*
X149970002Y-93613498D01*
X150031917Y-93608081D01*
X150198087Y-93593543D01*
X150419243Y-93534284D01*
X150626749Y-93437523D01*
X150814300Y-93306198D01*
X150976198Y-93144300D01*
X151107523Y-92956749D01*
X151204284Y-92749243D01*
X151263543Y-92528087D01*
X151283498Y-92300000D01*
X151263543Y-92071913D01*
X151261184Y-92063109D01*
X151262847Y-91993259D01*
X151293276Y-91943337D01*
X152076796Y-91159819D01*
X152138119Y-91126334D01*
X152164477Y-91123500D01*
X154117732Y-91123500D01*
X154184771Y-91143185D01*
X154230526Y-91195989D01*
X154232811Y-91209259D01*
X154923553Y-91900000D01*
X154917339Y-91900000D01*
X154815606Y-91927259D01*
X154724394Y-91979920D01*
X154649920Y-92054394D01*
X154597259Y-92145606D01*
X154570000Y-92247339D01*
X154570000Y-92253552D01*
X153890974Y-91574526D01*
X153890973Y-91574526D01*
X153839868Y-91647512D01*
X153839866Y-91647516D01*
X153743734Y-91853673D01*
X153743730Y-91853682D01*
X153684860Y-92073389D01*
X153684858Y-92073400D01*
X153665034Y-92299997D01*
X153665034Y-92300002D01*
X153684858Y-92526599D01*
X153684860Y-92526610D01*
X153743730Y-92746317D01*
X153743735Y-92746331D01*
X153839863Y-92952478D01*
X153890974Y-93025472D01*
X154570000Y-92346446D01*
X154570000Y-92352661D01*
X154597259Y-92454394D01*
X154649920Y-92545606D01*
X154724394Y-92620080D01*
X154815606Y-92672741D01*
X154917339Y-92700000D01*
X154923553Y-92700000D01*
X154244526Y-93379025D01*
X154317513Y-93430132D01*
X154317521Y-93430136D01*
X154523668Y-93526264D01*
X154523682Y-93526269D01*
X154743389Y-93585139D01*
X154743400Y-93585141D01*
X154969998Y-93604966D01*
X154970002Y-93604966D01*
X155196599Y-93585141D01*
X155196610Y-93585139D01*
X155416317Y-93526269D01*
X155416331Y-93526264D01*
X155622478Y-93430136D01*
X155695471Y-93379024D01*
X155016447Y-92700000D01*
X155022661Y-92700000D01*
X155124394Y-92672741D01*
X155215606Y-92620080D01*
X155290080Y-92545606D01*
X155342741Y-92454394D01*
X155370000Y-92352661D01*
X155370000Y-92346447D01*
X156049024Y-93025471D01*
X156100136Y-92952478D01*
X156196264Y-92746331D01*
X156196269Y-92746317D01*
X156255139Y-92526610D01*
X156255141Y-92526599D01*
X156274966Y-92300002D01*
X156274966Y-92299997D01*
X156255141Y-92073400D01*
X156255139Y-92073389D01*
X156196269Y-91853682D01*
X156196264Y-91853668D01*
X156100136Y-91647521D01*
X156100132Y-91647513D01*
X156049025Y-91574526D01*
X155370000Y-92253551D01*
X155370000Y-92247339D01*
X155342741Y-92145606D01*
X155290080Y-92054394D01*
X155215606Y-91979920D01*
X155124394Y-91927259D01*
X155022661Y-91900000D01*
X155016448Y-91900000D01*
X155708951Y-91207495D01*
X155712507Y-91189806D01*
X155761123Y-91139623D01*
X155822267Y-91123500D01*
X158524667Y-91123500D01*
X158591706Y-91143185D01*
X158626241Y-91176376D01*
X158673802Y-91244300D01*
X158835700Y-91406198D01*
X159023251Y-91537523D01*
X159148091Y-91595736D01*
X159230750Y-91634281D01*
X159230752Y-91634282D01*
X159230757Y-91634284D01*
X159230760Y-91634284D01*
X159230766Y-91634287D01*
X159249315Y-91639257D01*
X159304904Y-91671351D01*
X159633553Y-92000000D01*
X159627339Y-92000000D01*
X159525606Y-92027259D01*
X159434394Y-92079920D01*
X159359920Y-92154394D01*
X159307259Y-92245606D01*
X159280000Y-92347339D01*
X159280000Y-92353552D01*
X158600974Y-91674526D01*
X158600973Y-91674526D01*
X158549868Y-91747512D01*
X158549866Y-91747516D01*
X158453734Y-91953673D01*
X158453730Y-91953682D01*
X158394860Y-92173389D01*
X158394858Y-92173400D01*
X158375034Y-92399997D01*
X158375034Y-92400002D01*
X158394858Y-92626599D01*
X158394860Y-92626610D01*
X158453730Y-92846317D01*
X158453735Y-92846331D01*
X158549863Y-93052478D01*
X158600974Y-93125472D01*
X159280000Y-92446446D01*
X159280000Y-92452661D01*
X159307259Y-92554394D01*
X159359920Y-92645606D01*
X159434394Y-92720080D01*
X159525606Y-92772741D01*
X159627339Y-92800000D01*
X159633553Y-92800000D01*
X158954526Y-93479025D01*
X159027513Y-93530132D01*
X159027521Y-93530136D01*
X159233668Y-93626264D01*
X159233682Y-93626269D01*
X159453389Y-93685139D01*
X159453400Y-93685141D01*
X159679998Y-93704966D01*
X159680002Y-93704966D01*
X159906599Y-93685141D01*
X159906610Y-93685139D01*
X160126317Y-93626269D01*
X160126331Y-93626264D01*
X160332478Y-93530136D01*
X160405471Y-93479024D01*
X159726447Y-92800000D01*
X159732661Y-92800000D01*
X159834394Y-92772741D01*
X159925606Y-92720080D01*
X160000080Y-92645606D01*
X160052741Y-92554394D01*
X160080000Y-92452661D01*
X160080000Y-92446447D01*
X160759024Y-93125471D01*
X160810136Y-93052478D01*
X160906264Y-92846331D01*
X160906269Y-92846317D01*
X160965139Y-92626610D01*
X160965141Y-92626599D01*
X160984966Y-92400002D01*
X160984966Y-92399997D01*
X160965141Y-92173400D01*
X160965139Y-92173389D01*
X160906269Y-91953682D01*
X160906264Y-91953668D01*
X160810136Y-91747521D01*
X160810132Y-91747513D01*
X160759025Y-91674526D01*
X160080000Y-92353551D01*
X160080000Y-92347339D01*
X160052741Y-92245606D01*
X160000080Y-92154394D01*
X159925606Y-92079920D01*
X159834394Y-92027259D01*
X159732661Y-92000000D01*
X159726445Y-92000000D01*
X160055094Y-91671350D01*
X160110685Y-91639256D01*
X160129243Y-91634284D01*
X160336749Y-91537523D01*
X160524300Y-91406198D01*
X160686198Y-91244300D01*
X160761768Y-91136374D01*
X160816344Y-91092752D01*
X160863342Y-91083500D01*
X164167320Y-91083500D01*
X164167321Y-91083499D01*
X164299369Y-91057234D01*
X164372235Y-91027051D01*
X164423759Y-91005710D01*
X164535706Y-90930909D01*
X164630909Y-90835706D01*
X164630910Y-90835705D01*
X165201796Y-90264819D01*
X165263119Y-90231334D01*
X165289477Y-90228500D01*
X166528638Y-90228500D01*
X166528654Y-90228499D01*
X166555692Y-90225591D01*
X166589201Y-90221989D01*
X166726204Y-90170889D01*
X166843261Y-90083261D01*
X166930889Y-89966204D01*
X166981989Y-89829201D01*
X166986981Y-89782766D01*
X166988499Y-89768654D01*
X166988500Y-89768637D01*
X166988500Y-87971362D01*
X166988499Y-87971345D01*
X166985157Y-87940270D01*
X166981989Y-87910799D01*
X166974231Y-87890000D01*
X166940663Y-87800001D01*
X166930889Y-87773796D01*
X166843261Y-87656739D01*
X166726204Y-87569111D01*
X166589203Y-87518011D01*
X166528654Y-87511500D01*
X166528638Y-87511500D01*
X164731362Y-87511500D01*
X164731345Y-87511500D01*
X164670797Y-87518011D01*
X164670795Y-87518011D01*
X164533795Y-87569111D01*
X164416739Y-87656739D01*
X164329111Y-87773795D01*
X164278011Y-87910795D01*
X164278011Y-87910797D01*
X164271500Y-87971345D01*
X164271500Y-89210523D01*
X164251815Y-89277562D01*
X164235181Y-89298204D01*
X163853204Y-89680181D01*
X163791881Y-89713666D01*
X163765523Y-89716500D01*
X160863342Y-89716500D01*
X160796303Y-89696815D01*
X160761768Y-89663625D01*
X160686198Y-89555700D01*
X160524300Y-89393802D01*
X160336749Y-89262477D01*
X160336745Y-89262475D01*
X160129249Y-89165718D01*
X160129238Y-89165714D01*
X159908089Y-89106457D01*
X159908081Y-89106456D01*
X159680002Y-89086502D01*
X159679998Y-89086502D01*
X159451918Y-89106456D01*
X159451910Y-89106457D01*
X159230761Y-89165714D01*
X159230750Y-89165718D01*
X159023254Y-89262475D01*
X159023252Y-89262476D01*
X159023251Y-89262477D01*
X158835700Y-89393802D01*
X158835698Y-89393803D01*
X158835695Y-89393806D01*
X158673806Y-89555695D01*
X158673803Y-89555698D01*
X158673802Y-89555700D01*
X158570223Y-89703625D01*
X158515648Y-89747249D01*
X158468650Y-89756500D01*
X151762676Y-89756500D01*
X151630637Y-89782764D01*
X151630629Y-89782766D01*
X151555810Y-89813758D01*
X151555809Y-89813758D01*
X151506247Y-89834286D01*
X151506234Y-89834293D01*
X151394294Y-89909090D01*
X151394290Y-89909093D01*
X150745181Y-90558203D01*
X150683858Y-90591688D01*
X150614166Y-90586704D01*
X150558233Y-90544832D01*
X150533816Y-90479368D01*
X150533500Y-90470522D01*
X150533500Y-86603341D01*
X150553185Y-86536302D01*
X150586377Y-86501766D01*
X150694300Y-86426198D01*
X150856198Y-86264300D01*
X150987523Y-86076749D01*
X151084284Y-85869243D01*
X151143543Y-85648087D01*
X151163498Y-85420000D01*
X151163166Y-85416210D01*
X151149990Y-85265606D01*
X151143543Y-85191913D01*
X151137671Y-85169999D01*
X158731127Y-85169999D01*
X158731128Y-85170000D01*
X159694314Y-85170000D01*
X159689920Y-85174394D01*
X159637259Y-85265606D01*
X159610000Y-85367339D01*
X159610000Y-85472661D01*
X159637259Y-85574394D01*
X159689920Y-85665606D01*
X159694314Y-85670000D01*
X158731128Y-85670000D01*
X158783730Y-85866317D01*
X158783734Y-85866326D01*
X158879865Y-86072482D01*
X159010342Y-86258820D01*
X159171179Y-86419657D01*
X159357517Y-86550134D01*
X159563673Y-86646265D01*
X159563682Y-86646269D01*
X159759999Y-86698872D01*
X159760000Y-86698871D01*
X159760000Y-85735686D01*
X159764394Y-85740080D01*
X159855606Y-85792741D01*
X159957339Y-85820000D01*
X160062661Y-85820000D01*
X160164394Y-85792741D01*
X160255606Y-85740080D01*
X160260000Y-85735686D01*
X160260000Y-86698872D01*
X160456317Y-86646269D01*
X160456326Y-86646265D01*
X160662482Y-86550134D01*
X160848820Y-86419657D01*
X161009657Y-86258820D01*
X161140134Y-86072482D01*
X161236265Y-85866326D01*
X161236269Y-85866317D01*
X161288872Y-85670000D01*
X160325686Y-85670000D01*
X160330080Y-85665606D01*
X160382741Y-85574394D01*
X160410000Y-85472661D01*
X160410000Y-85367339D01*
X160382741Y-85265606D01*
X160330080Y-85174394D01*
X160325686Y-85170000D01*
X161288872Y-85170000D01*
X161288872Y-85169999D01*
X161236269Y-84973682D01*
X161236265Y-84973673D01*
X161140134Y-84767517D01*
X161049335Y-84637844D01*
X163950000Y-84637844D01*
X163956401Y-84697372D01*
X163956403Y-84697379D01*
X164006645Y-84832086D01*
X164006649Y-84832093D01*
X164092809Y-84947187D01*
X164092812Y-84947190D01*
X164207906Y-85033350D01*
X164207913Y-85033354D01*
X164342620Y-85083596D01*
X164342627Y-85083598D01*
X164402155Y-85089999D01*
X164402172Y-85090000D01*
X165050000Y-85090000D01*
X165050000Y-84173012D01*
X165107007Y-84205925D01*
X165234174Y-84240000D01*
X165365826Y-84240000D01*
X165492993Y-84205925D01*
X165550000Y-84173012D01*
X165550000Y-85090000D01*
X166197828Y-85090000D01*
X166197844Y-85089999D01*
X166257372Y-85083598D01*
X166257379Y-85083596D01*
X166392086Y-85033354D01*
X166392093Y-85033350D01*
X166507187Y-84947190D01*
X166507190Y-84947187D01*
X166593350Y-84832093D01*
X166593354Y-84832086D01*
X166643596Y-84697379D01*
X166643598Y-84697372D01*
X166649999Y-84637844D01*
X166650000Y-84637827D01*
X166650000Y-83990000D01*
X165733012Y-83990000D01*
X165765925Y-83932993D01*
X165800000Y-83805826D01*
X165800000Y-83674174D01*
X165765925Y-83547007D01*
X165733012Y-83490000D01*
X166650000Y-83490000D01*
X166650000Y-82842172D01*
X166649999Y-82842155D01*
X166643598Y-82782627D01*
X166643596Y-82782620D01*
X166593354Y-82647913D01*
X166593350Y-82647906D01*
X166507190Y-82532812D01*
X166507187Y-82532809D01*
X166392093Y-82446649D01*
X166392086Y-82446645D01*
X166257379Y-82396403D01*
X166257372Y-82396401D01*
X166197844Y-82390000D01*
X165550000Y-82390000D01*
X165550000Y-83306988D01*
X165492993Y-83274075D01*
X165365826Y-83240000D01*
X165234174Y-83240000D01*
X165107007Y-83274075D01*
X165050000Y-83306988D01*
X165050000Y-82390000D01*
X164402155Y-82390000D01*
X164342627Y-82396401D01*
X164342620Y-82396403D01*
X164207913Y-82446645D01*
X164207906Y-82446649D01*
X164092812Y-82532809D01*
X164092809Y-82532812D01*
X164006649Y-82647906D01*
X164006645Y-82647913D01*
X163956403Y-82782620D01*
X163956401Y-82782627D01*
X163950000Y-82842155D01*
X163950000Y-83490000D01*
X164866988Y-83490000D01*
X164834075Y-83547007D01*
X164800000Y-83674174D01*
X164800000Y-83805826D01*
X164834075Y-83932993D01*
X164866988Y-83990000D01*
X163950000Y-83990000D01*
X163950000Y-84637844D01*
X161049335Y-84637844D01*
X161009657Y-84581179D01*
X160848820Y-84420342D01*
X160662482Y-84289865D01*
X160456328Y-84193734D01*
X160260000Y-84141127D01*
X160260000Y-85104314D01*
X160255606Y-85099920D01*
X160164394Y-85047259D01*
X160062661Y-85020000D01*
X159957339Y-85020000D01*
X159855606Y-85047259D01*
X159764394Y-85099920D01*
X159760000Y-85104314D01*
X159760000Y-84141127D01*
X159563671Y-84193734D01*
X159357517Y-84289865D01*
X159171179Y-84420342D01*
X159010342Y-84581179D01*
X158879865Y-84767517D01*
X158783734Y-84973673D01*
X158783730Y-84973682D01*
X158731127Y-85169999D01*
X151137671Y-85169999D01*
X151084284Y-84970757D01*
X150987523Y-84763251D01*
X150856198Y-84575700D01*
X150694300Y-84413802D01*
X150506749Y-84282477D01*
X150506745Y-84282475D01*
X150299249Y-84185718D01*
X150299238Y-84185714D01*
X150078089Y-84126457D01*
X150078081Y-84126456D01*
X149850002Y-84106502D01*
X149849998Y-84106502D01*
X149621918Y-84126456D01*
X149621910Y-84126457D01*
X149400761Y-84185714D01*
X149400750Y-84185718D01*
X149193254Y-84282475D01*
X149193252Y-84282476D01*
X149193251Y-84282477D01*
X149005700Y-84413802D01*
X149005698Y-84413803D01*
X149005695Y-84413806D01*
X148843806Y-84575695D01*
X148712476Y-84763252D01*
X148712475Y-84763254D01*
X148615718Y-84970750D01*
X148615714Y-84970761D01*
X148556457Y-85191910D01*
X148556456Y-85191918D01*
X148536502Y-85419998D01*
X148536502Y-85420001D01*
X132030791Y-85420001D01*
X132021158Y-85411519D01*
X132002007Y-85344325D01*
X132022223Y-85277444D01*
X132073600Y-85232927D01*
X132122483Y-85210133D01*
X132308820Y-85079657D01*
X132469657Y-84918820D01*
X132600134Y-84732482D01*
X132696265Y-84526326D01*
X132696269Y-84526317D01*
X132748872Y-84330000D01*
X131785686Y-84330000D01*
X131790080Y-84325606D01*
X131842741Y-84234394D01*
X131870000Y-84132661D01*
X131870000Y-84027339D01*
X131842741Y-83925606D01*
X131790080Y-83834394D01*
X131785686Y-83830000D01*
X132748872Y-83830000D01*
X132748872Y-83829999D01*
X132696269Y-83633682D01*
X132696265Y-83633673D01*
X132600134Y-83427517D01*
X132469657Y-83241179D01*
X132308820Y-83080342D01*
X132294052Y-83070001D01*
X134836502Y-83070001D01*
X134856456Y-83298081D01*
X134856457Y-83298089D01*
X134915714Y-83519238D01*
X134915718Y-83519249D01*
X135003389Y-83707259D01*
X135012477Y-83726749D01*
X135143802Y-83914300D01*
X135305700Y-84076198D01*
X135493251Y-84207523D01*
X135562899Y-84240000D01*
X135700750Y-84304281D01*
X135700752Y-84304281D01*
X135700757Y-84304284D01*
X135921913Y-84363543D01*
X136084832Y-84377796D01*
X136149998Y-84383498D01*
X136150000Y-84383498D01*
X136150002Y-84383498D01*
X136207021Y-84378509D01*
X136378087Y-84363543D01*
X136599243Y-84304284D01*
X136806749Y-84207523D01*
X136994300Y-84076198D01*
X137156198Y-83914300D01*
X137287523Y-83726749D01*
X137384284Y-83519243D01*
X137443543Y-83298087D01*
X137463498Y-83070001D01*
X144996502Y-83070001D01*
X145016456Y-83298081D01*
X145016457Y-83298089D01*
X145075714Y-83519238D01*
X145075718Y-83519249D01*
X145163389Y-83707259D01*
X145172477Y-83726749D01*
X145303802Y-83914300D01*
X145465700Y-84076198D01*
X145653251Y-84207523D01*
X145722899Y-84240000D01*
X145860750Y-84304281D01*
X145860752Y-84304281D01*
X145860757Y-84304284D01*
X146081913Y-84363543D01*
X146244832Y-84377796D01*
X146309998Y-84383498D01*
X146310000Y-84383498D01*
X146310002Y-84383498D01*
X146367021Y-84378509D01*
X146538087Y-84363543D01*
X146759243Y-84304284D01*
X146966749Y-84207523D01*
X147154300Y-84076198D01*
X147316198Y-83914300D01*
X147447523Y-83726749D01*
X147544284Y-83519243D01*
X147603543Y-83298087D01*
X147623498Y-83070000D01*
X147603543Y-82841913D01*
X147544284Y-82620757D01*
X147447523Y-82413251D01*
X147316198Y-82225700D01*
X147154300Y-82063802D01*
X146966749Y-81932477D01*
X146966745Y-81932475D01*
X146759249Y-81835718D01*
X146759238Y-81835714D01*
X146538089Y-81776457D01*
X146538081Y-81776456D01*
X146310002Y-81756502D01*
X146309998Y-81756502D01*
X146081918Y-81776456D01*
X146081910Y-81776457D01*
X145860761Y-81835714D01*
X145860750Y-81835718D01*
X145653254Y-81932475D01*
X145653252Y-81932476D01*
X145653251Y-81932477D01*
X145465700Y-82063802D01*
X145465698Y-82063803D01*
X145465695Y-82063806D01*
X145303806Y-82225695D01*
X145303803Y-82225698D01*
X145303802Y-82225700D01*
X145258246Y-82290761D01*
X145172476Y-82413252D01*
X145172475Y-82413254D01*
X145075718Y-82620750D01*
X145075714Y-82620761D01*
X145016457Y-82841910D01*
X145016456Y-82841918D01*
X144996502Y-83069998D01*
X144996502Y-83070001D01*
X137463498Y-83070001D01*
X137463498Y-83070000D01*
X137443543Y-82841913D01*
X137384284Y-82620757D01*
X137287523Y-82413251D01*
X137156198Y-82225700D01*
X136994300Y-82063802D01*
X136806749Y-81932477D01*
X136806745Y-81932475D01*
X136599249Y-81835718D01*
X136599238Y-81835714D01*
X136378089Y-81776457D01*
X136378081Y-81776456D01*
X136150002Y-81756502D01*
X136149998Y-81756502D01*
X135921918Y-81776456D01*
X135921910Y-81776457D01*
X135700761Y-81835714D01*
X135700750Y-81835718D01*
X135493254Y-81932475D01*
X135493252Y-81932476D01*
X135493251Y-81932477D01*
X135305700Y-82063802D01*
X135305698Y-82063803D01*
X135305695Y-82063806D01*
X135143806Y-82225695D01*
X135143803Y-82225698D01*
X135143802Y-82225700D01*
X135098246Y-82290761D01*
X135012476Y-82413252D01*
X135012475Y-82413254D01*
X134915718Y-82620750D01*
X134915714Y-82620761D01*
X134856457Y-82841910D01*
X134856456Y-82841918D01*
X134836502Y-83069998D01*
X134836502Y-83070001D01*
X132294052Y-83070001D01*
X132122482Y-82949865D01*
X131916328Y-82853734D01*
X131720000Y-82801127D01*
X131720000Y-83764314D01*
X131715606Y-83759920D01*
X131624394Y-83707259D01*
X131522661Y-83680000D01*
X131417339Y-83680000D01*
X131315606Y-83707259D01*
X131224394Y-83759920D01*
X131220000Y-83764314D01*
X131220000Y-82801127D01*
X131023671Y-82853734D01*
X130817517Y-82949865D01*
X130631179Y-83080342D01*
X130470342Y-83241179D01*
X130339865Y-83427517D01*
X130243734Y-83633673D01*
X130243730Y-83633682D01*
X130191127Y-83829999D01*
X130191128Y-83830000D01*
X131154314Y-83830000D01*
X131149920Y-83834394D01*
X131097259Y-83925606D01*
X131070000Y-84027339D01*
X131070000Y-84132661D01*
X131097259Y-84234394D01*
X131149920Y-84325606D01*
X131154314Y-84330000D01*
X130191128Y-84330000D01*
X130243730Y-84526317D01*
X130243734Y-84526326D01*
X130339865Y-84732482D01*
X130470342Y-84918820D01*
X130631179Y-85079657D01*
X130817517Y-85210133D01*
X130866399Y-85232927D01*
X130918839Y-85279099D01*
X130937992Y-85346292D01*
X130917777Y-85413174D01*
X130866402Y-85457691D01*
X130813256Y-85482474D01*
X130813252Y-85482476D01*
X130742856Y-85531767D01*
X130625700Y-85613802D01*
X130625698Y-85613803D01*
X130625695Y-85613806D01*
X130463806Y-85775695D01*
X130332476Y-85963252D01*
X130332475Y-85963254D01*
X130235718Y-86170750D01*
X130235714Y-86170761D01*
X130176457Y-86391910D01*
X130176456Y-86391917D01*
X130158770Y-86594073D01*
X130133317Y-86659141D01*
X130076727Y-86700120D01*
X130006965Y-86703998D01*
X129947561Y-86670946D01*
X125485709Y-82209093D01*
X125485701Y-82209087D01*
X125414482Y-82161500D01*
X125414481Y-82161500D01*
X125373756Y-82134288D01*
X125322235Y-82112948D01*
X125322235Y-82112947D01*
X125249373Y-82082767D01*
X125249361Y-82082764D01*
X125117323Y-82056500D01*
X125117319Y-82056500D01*
X119303342Y-82056500D01*
X119236303Y-82036815D01*
X119201768Y-82003625D01*
X119126198Y-81895700D01*
X118964300Y-81733802D01*
X118964295Y-81733798D01*
X118964292Y-81733796D01*
X118856376Y-81658231D01*
X118812751Y-81603654D01*
X118803500Y-81556657D01*
X118803500Y-80563341D01*
X118823185Y-80496302D01*
X118856377Y-80461766D01*
X118964300Y-80386198D01*
X119126198Y-80224300D01*
X119257523Y-80036749D01*
X119354284Y-79829243D01*
X119413543Y-79608087D01*
X119433498Y-79380000D01*
X119413543Y-79151913D01*
X119354284Y-78930757D01*
X119345532Y-78911989D01*
X119257524Y-78723254D01*
X119257523Y-78723252D01*
X119257523Y-78723251D01*
X119126198Y-78535700D01*
X118964300Y-78373802D01*
X118776749Y-78242477D01*
X118776745Y-78242475D01*
X118569249Y-78145718D01*
X118569238Y-78145714D01*
X118348089Y-78086457D01*
X118348081Y-78086456D01*
X118120002Y-78066502D01*
X118119998Y-78066502D01*
X117891918Y-78086456D01*
X117891910Y-78086457D01*
X117670761Y-78145714D01*
X117670750Y-78145718D01*
X117463254Y-78242475D01*
X117463252Y-78242476D01*
X117392856Y-78291767D01*
X117275700Y-78373802D01*
X117275698Y-78373803D01*
X117275695Y-78373806D01*
X117113806Y-78535695D01*
X117113803Y-78535698D01*
X117113802Y-78535700D01*
X117090420Y-78569093D01*
X116982476Y-78723252D01*
X116982475Y-78723254D01*
X116885718Y-78930750D01*
X116885714Y-78930761D01*
X116826457Y-79151910D01*
X116826456Y-79151918D01*
X116806502Y-79379998D01*
X116806502Y-79380001D01*
X116826456Y-79608081D01*
X116826457Y-79608089D01*
X116885714Y-79829238D01*
X116885718Y-79829249D01*
X116970631Y-80011345D01*
X116982477Y-80036749D01*
X117113802Y-80224300D01*
X117275700Y-80386198D01*
X117383623Y-80461766D01*
X117427248Y-80516342D01*
X117436500Y-80563341D01*
X117436500Y-81556657D01*
X117416815Y-81623696D01*
X117383624Y-81658231D01*
X117275707Y-81733796D01*
X117275696Y-81733805D01*
X117113806Y-81895695D01*
X117113803Y-81895698D01*
X117113802Y-81895700D01*
X117056296Y-81977827D01*
X116982476Y-82083252D01*
X116982475Y-82083254D01*
X116885718Y-82290750D01*
X116885714Y-82290761D01*
X116826457Y-82511910D01*
X116826456Y-82511918D01*
X116806502Y-82739998D01*
X116806502Y-82740001D01*
X116826457Y-82968085D01*
X116826456Y-82968085D01*
X116828816Y-82976890D01*
X116827151Y-83046740D01*
X116796721Y-83096662D01*
X113268718Y-86624665D01*
X113207395Y-86658150D01*
X113137703Y-86653166D01*
X113128633Y-86649366D01*
X112949249Y-86565718D01*
X112949238Y-86565714D01*
X112728089Y-86506457D01*
X112728081Y-86506456D01*
X112500002Y-86486502D01*
X112499998Y-86486502D01*
X112271918Y-86506456D01*
X112271910Y-86506457D01*
X112050761Y-86565714D01*
X112050750Y-86565718D01*
X111843254Y-86662475D01*
X111843252Y-86662476D01*
X111843251Y-86662477D01*
X111655700Y-86793802D01*
X111655698Y-86793803D01*
X111655695Y-86793806D01*
X111493806Y-86955695D01*
X111362476Y-87143252D01*
X111362475Y-87143254D01*
X111265718Y-87350750D01*
X111265714Y-87350761D01*
X111206457Y-87571910D01*
X111206456Y-87571918D01*
X111186502Y-87799998D01*
X111186502Y-87800001D01*
X111206456Y-88028081D01*
X111206457Y-88028089D01*
X111265714Y-88249238D01*
X111265718Y-88249249D01*
X111360153Y-88451766D01*
X111362477Y-88456749D01*
X111493802Y-88644300D01*
X111655700Y-88806198D01*
X111843251Y-88937523D01*
X111968091Y-88995736D01*
X112050750Y-89034281D01*
X112050752Y-89034281D01*
X112050757Y-89034284D01*
X112271913Y-89093543D01*
X112419521Y-89106457D01*
X112499998Y-89113498D01*
X112500000Y-89113498D01*
X112500002Y-89113498D01*
X112557021Y-89108509D01*
X112728087Y-89093543D01*
X112949243Y-89034284D01*
X113156749Y-88937523D01*
X113344300Y-88806198D01*
X113506198Y-88644300D01*
X113637523Y-88456749D01*
X113734284Y-88249243D01*
X113783119Y-88066988D01*
X113815211Y-88011402D01*
X117763337Y-84063276D01*
X117824658Y-84029793D01*
X117883109Y-84031184D01*
X117891913Y-84033543D01*
X118054832Y-84047796D01*
X118119998Y-84053498D01*
X118120000Y-84053498D01*
X118120002Y-84053498D01*
X118177021Y-84048509D01*
X118348087Y-84033543D01*
X118569243Y-83974284D01*
X118776749Y-83877523D01*
X118964300Y-83746198D01*
X119126198Y-83584300D01*
X119201768Y-83476374D01*
X119256344Y-83432752D01*
X119303342Y-83423500D01*
X122517721Y-83423500D01*
X122584760Y-83443185D01*
X122630515Y-83495989D01*
X122640459Y-83565147D01*
X122630103Y-83599901D01*
X122624738Y-83611407D01*
X122615716Y-83630755D01*
X122615714Y-83630761D01*
X122556457Y-83851910D01*
X122556456Y-83851918D01*
X122536502Y-84079998D01*
X122536502Y-84080001D01*
X122556456Y-84308081D01*
X122556457Y-84308089D01*
X122615714Y-84529238D01*
X122615718Y-84529249D01*
X122710487Y-84732482D01*
X122712477Y-84736749D01*
X122843802Y-84924300D01*
X123005700Y-85086198D01*
X123182697Y-85210133D01*
X123193251Y-85217523D01*
X123236345Y-85237618D01*
X123288784Y-85283791D01*
X123307936Y-85350984D01*
X123287720Y-85417865D01*
X123236345Y-85462382D01*
X123193251Y-85482476D01*
X123068126Y-85570090D01*
X123005700Y-85613802D01*
X123005698Y-85613803D01*
X123005695Y-85613806D01*
X122843806Y-85775695D01*
X122712476Y-85963252D01*
X122712475Y-85963254D01*
X122615718Y-86170750D01*
X122615714Y-86170761D01*
X122556457Y-86391910D01*
X122556456Y-86391918D01*
X122536502Y-86619998D01*
X122536502Y-86620001D01*
X122556456Y-86848081D01*
X122556457Y-86848089D01*
X122615714Y-87069238D01*
X122615718Y-87069249D01*
X122696186Y-87241813D01*
X122706678Y-87310890D01*
X122678158Y-87374674D01*
X122671485Y-87381898D01*
X118476662Y-91576721D01*
X118415339Y-91610206D01*
X118356891Y-91608816D01*
X118348087Y-91606457D01*
X118234043Y-91596479D01*
X118120002Y-91586502D01*
X118119998Y-91586502D01*
X117891918Y-91606456D01*
X117891910Y-91606457D01*
X117670761Y-91665714D01*
X117670750Y-91665718D01*
X117463254Y-91762475D01*
X117463252Y-91762476D01*
X117463251Y-91762477D01*
X117275700Y-91893802D01*
X117275698Y-91893803D01*
X117275695Y-91893806D01*
X117113805Y-92055696D01*
X117113796Y-92055707D01*
X117108253Y-92063624D01*
X117053676Y-92107249D01*
X117006679Y-92116500D01*
X113683342Y-92116500D01*
X113616303Y-92096815D01*
X113581768Y-92063625D01*
X113506198Y-91955700D01*
X113344300Y-91793802D01*
X113156749Y-91662477D01*
X113124665Y-91647516D01*
X112949249Y-91565718D01*
X112949238Y-91565714D01*
X112728089Y-91506457D01*
X112728081Y-91506456D01*
X112500002Y-91486502D01*
X112499998Y-91486502D01*
X112271918Y-91506456D01*
X112271910Y-91506457D01*
X112050761Y-91565714D01*
X112050750Y-91565718D01*
X111843254Y-91662475D01*
X111843252Y-91662476D01*
X111826043Y-91674526D01*
X111655700Y-91793802D01*
X111655698Y-91793803D01*
X111655695Y-91793806D01*
X111493806Y-91955695D01*
X111362476Y-92143252D01*
X111362475Y-92143254D01*
X111265718Y-92350750D01*
X111265714Y-92350761D01*
X111206457Y-92571910D01*
X111206456Y-92571918D01*
X111186502Y-92799998D01*
X111186502Y-92800001D01*
X100075500Y-92800001D01*
X100075500Y-81977844D01*
X102380000Y-81977844D01*
X102386401Y-82037372D01*
X102386403Y-82037379D01*
X102436645Y-82172086D01*
X102436649Y-82172093D01*
X102522809Y-82287187D01*
X102522812Y-82287190D01*
X102637906Y-82373350D01*
X102637913Y-82373354D01*
X102772620Y-82423596D01*
X102772627Y-82423598D01*
X102832155Y-82429999D01*
X102832172Y-82430000D01*
X103480000Y-82430000D01*
X103480000Y-81513012D01*
X103537007Y-81545925D01*
X103664174Y-81580000D01*
X103795826Y-81580000D01*
X103922993Y-81545925D01*
X103980000Y-81513012D01*
X103980000Y-82430000D01*
X104627828Y-82430000D01*
X104627844Y-82429999D01*
X104687372Y-82423598D01*
X104687379Y-82423596D01*
X104822086Y-82373354D01*
X104822093Y-82373350D01*
X104937187Y-82287190D01*
X104937190Y-82287187D01*
X105023350Y-82172093D01*
X105023354Y-82172086D01*
X105073596Y-82037379D01*
X105073598Y-82037372D01*
X105079999Y-81977844D01*
X105080000Y-81977827D01*
X105080000Y-81330000D01*
X104163012Y-81330000D01*
X104195925Y-81272993D01*
X104230000Y-81145826D01*
X104230000Y-81014174D01*
X104195925Y-80887007D01*
X104163012Y-80830000D01*
X105080000Y-80830000D01*
X105080000Y-80182172D01*
X105079999Y-80182155D01*
X105073598Y-80122627D01*
X105073596Y-80122620D01*
X105023354Y-79987913D01*
X105023350Y-79987906D01*
X104937190Y-79872812D01*
X104937187Y-79872809D01*
X104822093Y-79786649D01*
X104822086Y-79786645D01*
X104687379Y-79736403D01*
X104687372Y-79736401D01*
X104627844Y-79730000D01*
X103980000Y-79730000D01*
X103980000Y-80646988D01*
X103922993Y-80614075D01*
X103795826Y-80580000D01*
X103664174Y-80580000D01*
X103537007Y-80614075D01*
X103480000Y-80646988D01*
X103480000Y-79730000D01*
X102832155Y-79730000D01*
X102772627Y-79736401D01*
X102772620Y-79736403D01*
X102637913Y-79786645D01*
X102637906Y-79786649D01*
X102522812Y-79872809D01*
X102522809Y-79872812D01*
X102436649Y-79987906D01*
X102436645Y-79987913D01*
X102386403Y-80122620D01*
X102386401Y-80122627D01*
X102380000Y-80182155D01*
X102380000Y-80830000D01*
X103296988Y-80830000D01*
X103264075Y-80887007D01*
X103230000Y-81014174D01*
X103230000Y-81145826D01*
X103264075Y-81272993D01*
X103296988Y-81330000D01*
X102380000Y-81330000D01*
X102380000Y-81977844D01*
X100075500Y-81977844D01*
X100075500Y-68898654D01*
X105271500Y-68898654D01*
X105278011Y-68959202D01*
X105278011Y-68959204D01*
X105329111Y-69096204D01*
X105416739Y-69213261D01*
X105533796Y-69300889D01*
X105670799Y-69351989D01*
X105698050Y-69354918D01*
X105731345Y-69358499D01*
X105731362Y-69358500D01*
X105822500Y-69358500D01*
X105889539Y-69378185D01*
X105935294Y-69430989D01*
X105946500Y-69482500D01*
X105946500Y-70459917D01*
X105944118Y-70484107D01*
X105935686Y-70526500D01*
X105935685Y-70526501D01*
X105926500Y-70572676D01*
X105926500Y-72299655D01*
X105906815Y-72366694D01*
X105873625Y-72401229D01*
X105755696Y-72483805D01*
X105593806Y-72645695D01*
X105593803Y-72645698D01*
X105593802Y-72645700D01*
X105540183Y-72722276D01*
X105462476Y-72833252D01*
X105462475Y-72833254D01*
X105365718Y-73040750D01*
X105365714Y-73040761D01*
X105306457Y-73261910D01*
X105306456Y-73261918D01*
X105286502Y-73489998D01*
X105286502Y-73490001D01*
X105306456Y-73718081D01*
X105306457Y-73718089D01*
X105365714Y-73939238D01*
X105365718Y-73939249D01*
X105385833Y-73982385D01*
X105462477Y-74146749D01*
X105593802Y-74334300D01*
X105593806Y-74334304D01*
X105661821Y-74402319D01*
X105695306Y-74463642D01*
X105690322Y-74533334D01*
X105661821Y-74577681D01*
X105593806Y-74645695D01*
X105593803Y-74645698D01*
X105593802Y-74645700D01*
X105552494Y-74704694D01*
X105462476Y-74833252D01*
X105462475Y-74833254D01*
X105365718Y-75040750D01*
X105365714Y-75040761D01*
X105306457Y-75261910D01*
X105306456Y-75261918D01*
X105286502Y-75489998D01*
X105286502Y-75490001D01*
X105306456Y-75718081D01*
X105306457Y-75718089D01*
X105365714Y-75939238D01*
X105365718Y-75939249D01*
X105462475Y-76146745D01*
X105462477Y-76146749D01*
X105593802Y-76334300D01*
X105755700Y-76496198D01*
X105863623Y-76571766D01*
X105907248Y-76626342D01*
X105916500Y-76673341D01*
X105916500Y-77687323D01*
X105942764Y-77819361D01*
X105942767Y-77819373D01*
X105972948Y-77892235D01*
X105994288Y-77943757D01*
X106058821Y-78040336D01*
X106058822Y-78040337D01*
X106069092Y-78055708D01*
X106069093Y-78055709D01*
X106733783Y-78720398D01*
X106767268Y-78781721D01*
X106762284Y-78851412D01*
X106758485Y-78860482D01*
X106725717Y-78930755D01*
X106725714Y-78930761D01*
X106666457Y-79151910D01*
X106666456Y-79151918D01*
X106646502Y-79379998D01*
X106646502Y-79380001D01*
X106666456Y-79608081D01*
X106666457Y-79608089D01*
X106725714Y-79829238D01*
X106725718Y-79829249D01*
X106810631Y-80011345D01*
X106822477Y-80036749D01*
X106953802Y-80224300D01*
X107115700Y-80386198D01*
X107303251Y-80517523D01*
X107428091Y-80575736D01*
X107510750Y-80614281D01*
X107510752Y-80614281D01*
X107510757Y-80614284D01*
X107731913Y-80673543D01*
X107894832Y-80687796D01*
X107959998Y-80693498D01*
X107960000Y-80693498D01*
X107960002Y-80693498D01*
X108017021Y-80688509D01*
X108188087Y-80673543D01*
X108409243Y-80614284D01*
X108616749Y-80517523D01*
X108804300Y-80386198D01*
X108966198Y-80224300D01*
X109097523Y-80036749D01*
X109194284Y-79829243D01*
X109253543Y-79608087D01*
X109273498Y-79380000D01*
X109253543Y-79151913D01*
X109194284Y-78930757D01*
X109185532Y-78911989D01*
X109097524Y-78723254D01*
X109097523Y-78723252D01*
X109097523Y-78723251D01*
X108966198Y-78535700D01*
X108804300Y-78373802D01*
X108616749Y-78242477D01*
X108616745Y-78242475D01*
X108409249Y-78145718D01*
X108409238Y-78145714D01*
X108188089Y-78086457D01*
X108188082Y-78086456D01*
X108063168Y-78075527D01*
X107998099Y-78050074D01*
X107986295Y-78039680D01*
X107319819Y-77373204D01*
X107286334Y-77311881D01*
X107283500Y-77285523D01*
X107283500Y-76673341D01*
X107303185Y-76606302D01*
X107336377Y-76571766D01*
X107444300Y-76496198D01*
X107606198Y-76334300D01*
X107737523Y-76146749D01*
X107834284Y-75939243D01*
X107893543Y-75718087D01*
X107913498Y-75490000D01*
X107893543Y-75261913D01*
X107834284Y-75040757D01*
X107737523Y-74833251D01*
X107606198Y-74645700D01*
X107538179Y-74577681D01*
X107504694Y-74516358D01*
X107509678Y-74446666D01*
X107538179Y-74402319D01*
X107606198Y-74334300D01*
X107737523Y-74146749D01*
X107834284Y-73939243D01*
X107893543Y-73718087D01*
X107913498Y-73490000D01*
X107893543Y-73261913D01*
X107834284Y-73040757D01*
X107827491Y-73026190D01*
X107791731Y-72949502D01*
X107737523Y-72833251D01*
X107606198Y-72645700D01*
X107444300Y-72483802D01*
X107444295Y-72483798D01*
X107444292Y-72483796D01*
X107346376Y-72415233D01*
X107302751Y-72360656D01*
X107293500Y-72313659D01*
X107293500Y-70800077D01*
X107295883Y-70775885D01*
X107313500Y-70687319D01*
X107313500Y-70552682D01*
X107313500Y-69482500D01*
X107333185Y-69415461D01*
X107385989Y-69369706D01*
X107437500Y-69358500D01*
X107528638Y-69358500D01*
X107528654Y-69358499D01*
X107555692Y-69355591D01*
X107589201Y-69351989D01*
X107726204Y-69300889D01*
X107843261Y-69213261D01*
X107930889Y-69096204D01*
X107981989Y-68959201D01*
X107985591Y-68925692D01*
X107988499Y-68898654D01*
X107988500Y-68898637D01*
X107988500Y-68807500D01*
X108008185Y-68740461D01*
X108060989Y-68694706D01*
X108112500Y-68683500D01*
X112895523Y-68683500D01*
X112962562Y-68703185D01*
X112983204Y-68719819D01*
X114256721Y-69993336D01*
X114290206Y-70054659D01*
X114288817Y-70113102D01*
X114286459Y-70121902D01*
X114286456Y-70121919D01*
X114266502Y-70349998D01*
X114266502Y-70350001D01*
X114286456Y-70578081D01*
X114286457Y-70578089D01*
X114345714Y-70799238D01*
X114345718Y-70799249D01*
X114384351Y-70882097D01*
X114442477Y-71006749D01*
X114573802Y-71194300D01*
X114735700Y-71356198D01*
X114923251Y-71487523D01*
X115001052Y-71523802D01*
X115130750Y-71584281D01*
X115130752Y-71584281D01*
X115130757Y-71584284D01*
X115351913Y-71643543D01*
X115514832Y-71657796D01*
X115579998Y-71663498D01*
X115580000Y-71663498D01*
X115580002Y-71663498D01*
X115637021Y-71658509D01*
X115808087Y-71643543D01*
X116029243Y-71584284D01*
X116236749Y-71487523D01*
X116424300Y-71356198D01*
X116586198Y-71194300D01*
X116717523Y-71006749D01*
X116814284Y-70799243D01*
X116873543Y-70578087D01*
X116893498Y-70350000D01*
X116890005Y-70310080D01*
X116881957Y-70218087D01*
X116873543Y-70121913D01*
X116871184Y-70113109D01*
X116872847Y-70043262D01*
X116903278Y-69993336D01*
X117022315Y-69874300D01*
X117146796Y-69749819D01*
X117208119Y-69716334D01*
X117234477Y-69713500D01*
X122146658Y-69713500D01*
X122213697Y-69733185D01*
X122248231Y-69766374D01*
X122323802Y-69874300D01*
X122485700Y-70036198D01*
X122673251Y-70167523D01*
X122770038Y-70212655D01*
X122880750Y-70264281D01*
X122880752Y-70264281D01*
X122880757Y-70264284D01*
X123101913Y-70323543D01*
X123264832Y-70337796D01*
X123329998Y-70343498D01*
X123330000Y-70343498D01*
X123330002Y-70343498D01*
X123361614Y-70340732D01*
X123558087Y-70323543D01*
X123566883Y-70321186D01*
X123636733Y-70322845D01*
X123686663Y-70353278D01*
X126299090Y-72965705D01*
X126299091Y-72965706D01*
X126359572Y-73026187D01*
X126394295Y-73060910D01*
X126506236Y-73135707D01*
X126506237Y-73135707D01*
X126506241Y-73135710D01*
X126579106Y-73165891D01*
X126629449Y-73186745D01*
X126630630Y-73187234D01*
X126762676Y-73213499D01*
X126762680Y-73213500D01*
X126762681Y-73213500D01*
X129596658Y-73213500D01*
X129663697Y-73233185D01*
X129698231Y-73266374D01*
X129773802Y-73374300D01*
X129935700Y-73536198D01*
X130123251Y-73667523D01*
X130166345Y-73687618D01*
X130218784Y-73733791D01*
X130237936Y-73800984D01*
X130217720Y-73867865D01*
X130166345Y-73912382D01*
X130123251Y-73932476D01*
X130051975Y-73982385D01*
X129935700Y-74063802D01*
X129935698Y-74063803D01*
X129935695Y-74063806D01*
X129773806Y-74225695D01*
X129773803Y-74225698D01*
X129773802Y-74225700D01*
X129691106Y-74343802D01*
X129642477Y-74413251D01*
X129545718Y-74620750D01*
X129545714Y-74620761D01*
X129486457Y-74841910D01*
X129486456Y-74841918D01*
X129466502Y-75069998D01*
X129466502Y-75070001D01*
X129486456Y-75298081D01*
X129486457Y-75298089D01*
X129545714Y-75519238D01*
X129545718Y-75519249D01*
X129617573Y-75673342D01*
X129642477Y-75726749D01*
X129773802Y-75914300D01*
X129935700Y-76076198D01*
X130123251Y-76207523D01*
X130166345Y-76227618D01*
X130218784Y-76273791D01*
X130237936Y-76340984D01*
X130217720Y-76407865D01*
X130166345Y-76452382D01*
X130123251Y-76472476D01*
X130066976Y-76511881D01*
X129935700Y-76603802D01*
X129935698Y-76603803D01*
X129935695Y-76603806D01*
X129773806Y-76765695D01*
X129642476Y-76953252D01*
X129642475Y-76953254D01*
X129545718Y-77160750D01*
X129545714Y-77160761D01*
X129486457Y-77381910D01*
X129486456Y-77381918D01*
X129466502Y-77609998D01*
X129466502Y-77610001D01*
X129486456Y-77838081D01*
X129486457Y-77838089D01*
X129545714Y-78059238D01*
X129545718Y-78059249D01*
X129642475Y-78266745D01*
X129642481Y-78266755D01*
X129673725Y-78311376D01*
X129696053Y-78377582D01*
X129679043Y-78445349D01*
X129628096Y-78493163D01*
X129572151Y-78506500D01*
X124513342Y-78506500D01*
X124446303Y-78486815D01*
X124411768Y-78453625D01*
X124336198Y-78345700D01*
X124174300Y-78183802D01*
X123986749Y-78052477D01*
X123960715Y-78040337D01*
X123779249Y-77955718D01*
X123779238Y-77955714D01*
X123558089Y-77896457D01*
X123558081Y-77896456D01*
X123330002Y-77876502D01*
X123329998Y-77876502D01*
X123101919Y-77896456D01*
X123101902Y-77896459D01*
X123093102Y-77898817D01*
X123023252Y-77897149D01*
X122973336Y-77866721D01*
X119925711Y-74819095D01*
X119925705Y-74819090D01*
X119904616Y-74804999D01*
X119813759Y-74744290D01*
X119753111Y-74719169D01*
X119753109Y-74719168D01*
X119753108Y-74719167D01*
X119689369Y-74692766D01*
X119689361Y-74692764D01*
X119557323Y-74666500D01*
X119557319Y-74666500D01*
X116763342Y-74666500D01*
X116696303Y-74646815D01*
X116661768Y-74613625D01*
X116586198Y-74505700D01*
X116424300Y-74343802D01*
X116236749Y-74212477D01*
X116236745Y-74212475D01*
X116029249Y-74115718D01*
X116029238Y-74115714D01*
X115808089Y-74056457D01*
X115808081Y-74056456D01*
X115580002Y-74036502D01*
X115579998Y-74036502D01*
X115351918Y-74056456D01*
X115351910Y-74056457D01*
X115130761Y-74115714D01*
X115130750Y-74115718D01*
X114923254Y-74212475D01*
X114923252Y-74212476D01*
X114852856Y-74261767D01*
X114735700Y-74343802D01*
X114735698Y-74343803D01*
X114735695Y-74343806D01*
X114573806Y-74505695D01*
X114573803Y-74505698D01*
X114573802Y-74505700D01*
X114523400Y-74577681D01*
X114442476Y-74693252D01*
X114442475Y-74693254D01*
X114345718Y-74900750D01*
X114345714Y-74900761D01*
X114286457Y-75121910D01*
X114286456Y-75121918D01*
X114266502Y-75349998D01*
X114266502Y-75350001D01*
X114286456Y-75578081D01*
X114286457Y-75578089D01*
X114345714Y-75799238D01*
X114345718Y-75799249D01*
X114411001Y-75939249D01*
X114442477Y-76006749D01*
X114573802Y-76194300D01*
X114735700Y-76356198D01*
X114923251Y-76487523D01*
X115029109Y-76536885D01*
X115130750Y-76584281D01*
X115130752Y-76584281D01*
X115130757Y-76584284D01*
X115351913Y-76643543D01*
X115514832Y-76657796D01*
X115579998Y-76663498D01*
X115580000Y-76663498D01*
X115580002Y-76663498D01*
X115637021Y-76658509D01*
X115808087Y-76643543D01*
X116029243Y-76584284D01*
X116236749Y-76487523D01*
X116424300Y-76356198D01*
X116586198Y-76194300D01*
X116661768Y-76086374D01*
X116716344Y-76042752D01*
X116763342Y-76033500D01*
X119155523Y-76033500D01*
X119222562Y-76053185D01*
X119243204Y-76069819D01*
X122006721Y-78833336D01*
X122040206Y-78894659D01*
X122038817Y-78953102D01*
X122036459Y-78961902D01*
X122036456Y-78961919D01*
X122016502Y-79189998D01*
X122016502Y-79190001D01*
X122036456Y-79418081D01*
X122036457Y-79418089D01*
X122095714Y-79639238D01*
X122095718Y-79639249D01*
X122187640Y-79836376D01*
X122192477Y-79846749D01*
X122323802Y-80034300D01*
X122485700Y-80196198D01*
X122673251Y-80327523D01*
X122798091Y-80385736D01*
X122880750Y-80424281D01*
X122880752Y-80424281D01*
X122880757Y-80424284D01*
X123101913Y-80483543D01*
X123264832Y-80497796D01*
X123329998Y-80503498D01*
X123330000Y-80503498D01*
X123330002Y-80503498D01*
X123387021Y-80498509D01*
X123558087Y-80483543D01*
X123779243Y-80424284D01*
X123986749Y-80327523D01*
X124174300Y-80196198D01*
X124336198Y-80034300D01*
X124411768Y-79926374D01*
X124466344Y-79882752D01*
X124513342Y-79873500D01*
X134347320Y-79873500D01*
X134347321Y-79873499D01*
X134479369Y-79847234D01*
X134568448Y-79810336D01*
X134603759Y-79795710D01*
X134715706Y-79720909D01*
X134810909Y-79625706D01*
X136879819Y-77556796D01*
X136941142Y-77523311D01*
X137010834Y-77528295D01*
X137066767Y-77570167D01*
X137091184Y-77635631D01*
X137091500Y-77644477D01*
X137091500Y-78458654D01*
X137098011Y-78519202D01*
X137098011Y-78519204D01*
X137149111Y-78656204D01*
X137236739Y-78773261D01*
X137353796Y-78860889D01*
X137490799Y-78911989D01*
X137518050Y-78914918D01*
X137551345Y-78918499D01*
X137551362Y-78918500D01*
X139248638Y-78918500D01*
X139248654Y-78918499D01*
X139275692Y-78915591D01*
X139309201Y-78911989D01*
X139446204Y-78860889D01*
X139563261Y-78773261D01*
X139650889Y-78656204D01*
X139701989Y-78519201D01*
X139705591Y-78485692D01*
X139708499Y-78458654D01*
X139708500Y-78458637D01*
X139708500Y-77644477D01*
X139728185Y-77577438D01*
X139780989Y-77531683D01*
X139850147Y-77521739D01*
X139913703Y-77550764D01*
X139920181Y-77556796D01*
X141899091Y-79535706D01*
X141971466Y-79608081D01*
X141994295Y-79630910D01*
X142106234Y-79705706D01*
X142106238Y-79705708D01*
X142106241Y-79705710D01*
X142142933Y-79720908D01*
X142142934Y-79720909D01*
X142142935Y-79720909D01*
X142230631Y-79757234D01*
X142285817Y-79768210D01*
X142336378Y-79778268D01*
X142336399Y-79778271D01*
X142336415Y-79778275D01*
X142349461Y-79780870D01*
X142362679Y-79783500D01*
X142362681Y-79783500D01*
X142362682Y-79783500D01*
X142497319Y-79783500D01*
X142926658Y-79783500D01*
X142993697Y-79803185D01*
X143028231Y-79836374D01*
X143103802Y-79944300D01*
X143265700Y-80106198D01*
X143453251Y-80237523D01*
X143578091Y-80295736D01*
X143660750Y-80334281D01*
X143660752Y-80334281D01*
X143660757Y-80334284D01*
X143881913Y-80393543D01*
X144044832Y-80407796D01*
X144109998Y-80413498D01*
X144110000Y-80413498D01*
X144110002Y-80413498D01*
X144167021Y-80408509D01*
X144338087Y-80393543D01*
X144559243Y-80334284D01*
X144766749Y-80237523D01*
X144954300Y-80106198D01*
X145116198Y-79944300D01*
X145191768Y-79836374D01*
X145246344Y-79792752D01*
X145293342Y-79783500D01*
X148875523Y-79783500D01*
X148942562Y-79803185D01*
X148963204Y-79819819D01*
X149625181Y-80481796D01*
X149658666Y-80543119D01*
X149661500Y-80569477D01*
X149661500Y-81808654D01*
X149668011Y-81869202D01*
X149668011Y-81869204D01*
X149708527Y-81977827D01*
X149719111Y-82006204D01*
X149806739Y-82123261D01*
X149923796Y-82210889D01*
X150060799Y-82261989D01*
X150088050Y-82264918D01*
X150121345Y-82268499D01*
X150121362Y-82268500D01*
X151918638Y-82268500D01*
X151918654Y-82268499D01*
X151945692Y-82265591D01*
X151979201Y-82261989D01*
X152116204Y-82210889D01*
X152233261Y-82123261D01*
X152320889Y-82006204D01*
X152371989Y-81869201D01*
X152375591Y-81835692D01*
X152378499Y-81808654D01*
X152378500Y-81808637D01*
X152378500Y-80011362D01*
X152378499Y-80011345D01*
X152375157Y-79980270D01*
X152371989Y-79950799D01*
X152320889Y-79813796D01*
X152233261Y-79696739D01*
X152116204Y-79609111D01*
X152113459Y-79608087D01*
X151979203Y-79558011D01*
X151918654Y-79551500D01*
X151918638Y-79551500D01*
X150679477Y-79551500D01*
X150612438Y-79531815D01*
X150591796Y-79515181D01*
X149645709Y-78569093D01*
X149645701Y-78569087D01*
X149595734Y-78535700D01*
X149595733Y-78535700D01*
X149533759Y-78494290D01*
X149533760Y-78494290D01*
X149533758Y-78494289D01*
X149478738Y-78471500D01*
X149409369Y-78442766D01*
X149409361Y-78442764D01*
X149277323Y-78416500D01*
X149277319Y-78416500D01*
X145293342Y-78416500D01*
X145226303Y-78396815D01*
X145191768Y-78363625D01*
X145116198Y-78255700D01*
X144954300Y-78093802D01*
X144766749Y-77962477D01*
X144766745Y-77962475D01*
X144559249Y-77865718D01*
X144559238Y-77865714D01*
X144338089Y-77806457D01*
X144338081Y-77806456D01*
X144110002Y-77786502D01*
X144109998Y-77786502D01*
X143881918Y-77806456D01*
X143881910Y-77806457D01*
X143660761Y-77865714D01*
X143660750Y-77865718D01*
X143453254Y-77962475D01*
X143453252Y-77962476D01*
X143453251Y-77962477D01*
X143265700Y-78093802D01*
X143265698Y-78093803D01*
X143265695Y-78093806D01*
X143103802Y-78255699D01*
X143096068Y-78266745D01*
X143028231Y-78363625D01*
X142973656Y-78407248D01*
X142926658Y-78416500D01*
X142764477Y-78416500D01*
X142697438Y-78396815D01*
X142676796Y-78380181D01*
X139723278Y-75426663D01*
X139689793Y-75365340D01*
X139691186Y-75306883D01*
X139693542Y-75298091D01*
X139693542Y-75298089D01*
X139693543Y-75298087D01*
X139713498Y-75070000D01*
X139693543Y-74841913D01*
X139634284Y-74620757D01*
X139614197Y-74577681D01*
X139537523Y-74413251D01*
X139529868Y-74402319D01*
X139406198Y-74225700D01*
X139244300Y-74063802D01*
X139056749Y-73932477D01*
X139013655Y-73912382D01*
X138961215Y-73866210D01*
X138942063Y-73799017D01*
X138962278Y-73732136D01*
X139013655Y-73687618D01*
X139016882Y-73686112D01*
X139056749Y-73667523D01*
X139244300Y-73536198D01*
X139406198Y-73374300D01*
X139537523Y-73186749D01*
X139634284Y-72979243D01*
X139693543Y-72758087D01*
X139713498Y-72530000D01*
X139709456Y-72483805D01*
X139700218Y-72378210D01*
X139693543Y-72301913D01*
X139634284Y-72080757D01*
X139537523Y-71873251D01*
X139406198Y-71685700D01*
X139244300Y-71523802D01*
X139056749Y-71392477D01*
X139003596Y-71367691D01*
X138951158Y-71321519D01*
X138932007Y-71254325D01*
X138952223Y-71187444D01*
X139003600Y-71142927D01*
X139052483Y-71120133D01*
X139238820Y-70989657D01*
X139399657Y-70828820D01*
X139530134Y-70642482D01*
X139626265Y-70436326D01*
X139626269Y-70436317D01*
X139678872Y-70240000D01*
X138715686Y-70240000D01*
X138720080Y-70235606D01*
X138772741Y-70144394D01*
X138800000Y-70042661D01*
X138800000Y-69937339D01*
X138772741Y-69835606D01*
X138720080Y-69744394D01*
X138715686Y-69740000D01*
X139678872Y-69740000D01*
X139678872Y-69739999D01*
X139626269Y-69543682D01*
X139626265Y-69543673D01*
X139530134Y-69337517D01*
X139399657Y-69151179D01*
X139238820Y-68990342D01*
X139166927Y-68940001D01*
X142796502Y-68940001D01*
X142816456Y-69168081D01*
X142816457Y-69168089D01*
X142875714Y-69389238D01*
X142875718Y-69389249D01*
X142969330Y-69590000D01*
X142972477Y-69596749D01*
X143103802Y-69784300D01*
X143265700Y-69946198D01*
X143453251Y-70077523D01*
X143548457Y-70121918D01*
X143660750Y-70174281D01*
X143660752Y-70174281D01*
X143660757Y-70174284D01*
X143881913Y-70233543D01*
X144044832Y-70247796D01*
X144109998Y-70253498D01*
X144110000Y-70253498D01*
X144110002Y-70253498D01*
X144141614Y-70250732D01*
X144338087Y-70233543D01*
X144346883Y-70231186D01*
X144416733Y-70232845D01*
X144466663Y-70263278D01*
X148439091Y-74235706D01*
X148534294Y-74330909D01*
X148534295Y-74330910D01*
X148641166Y-74402319D01*
X148646241Y-74405710D01*
X148664447Y-74413251D01*
X148770631Y-74457234D01*
X148902676Y-74483499D01*
X148902680Y-74483500D01*
X148902681Y-74483500D01*
X149037319Y-74483500D01*
X149616658Y-74483500D01*
X149683697Y-74503185D01*
X149718231Y-74536374D01*
X149793802Y-74644300D01*
X149955700Y-74806198D01*
X150143251Y-74937523D01*
X150241509Y-74983341D01*
X150350750Y-75034281D01*
X150350752Y-75034281D01*
X150350757Y-75034284D01*
X150571913Y-75093543D01*
X150734832Y-75107796D01*
X150799998Y-75113498D01*
X150800000Y-75113498D01*
X150800002Y-75113498D01*
X150857127Y-75108500D01*
X151028087Y-75093543D01*
X151249243Y-75034284D01*
X151456749Y-74937523D01*
X151644300Y-74806198D01*
X151712321Y-74738176D01*
X151773640Y-74704694D01*
X151843332Y-74709678D01*
X151887680Y-74738179D01*
X151955697Y-74806196D01*
X151955700Y-74806198D01*
X152043414Y-74867616D01*
X152063623Y-74881766D01*
X152107248Y-74936342D01*
X152116500Y-74983341D01*
X152116500Y-76887323D01*
X152142764Y-77019362D01*
X152142766Y-77019369D01*
X152147526Y-77030859D01*
X152147527Y-77030866D01*
X152147528Y-77030866D01*
X152194287Y-77143754D01*
X152194288Y-77143756D01*
X152221375Y-77184294D01*
X152221375Y-77184295D01*
X152269087Y-77255701D01*
X152269093Y-77255709D01*
X157105181Y-82091796D01*
X157138666Y-82153119D01*
X157141500Y-82179477D01*
X157141500Y-82648654D01*
X157148011Y-82709202D01*
X157148011Y-82709204D01*
X157197512Y-82841918D01*
X157199111Y-82846204D01*
X157286739Y-82963261D01*
X157403796Y-83050889D01*
X157540799Y-83101989D01*
X157568050Y-83104918D01*
X157601345Y-83108499D01*
X157601362Y-83108500D01*
X159398638Y-83108500D01*
X159398654Y-83108499D01*
X159425692Y-83105591D01*
X159459201Y-83101989D01*
X159596204Y-83050889D01*
X159713261Y-82963261D01*
X159800889Y-82846204D01*
X159851989Y-82709201D01*
X159855591Y-82675692D01*
X159858499Y-82648654D01*
X159858500Y-82648637D01*
X159858500Y-80851362D01*
X159858499Y-80851345D01*
X159855157Y-80820270D01*
X159851989Y-80790799D01*
X159800889Y-80653796D01*
X159713261Y-80536739D01*
X159596204Y-80449111D01*
X159459203Y-80398011D01*
X159398654Y-80391500D01*
X159398638Y-80391500D01*
X157601362Y-80391500D01*
X157601345Y-80391500D01*
X157540797Y-80398011D01*
X157540796Y-80398011D01*
X157472582Y-80423454D01*
X157402891Y-80428438D01*
X157341568Y-80394953D01*
X153519819Y-76573204D01*
X153486334Y-76511881D01*
X153483500Y-76485523D01*
X153483500Y-75232500D01*
X153503185Y-75165461D01*
X153555989Y-75119706D01*
X153607500Y-75108500D01*
X155836710Y-75108500D01*
X155903749Y-75128185D01*
X155940518Y-75164677D01*
X155963635Y-75200060D01*
X156004278Y-75262268D01*
X156155707Y-75426762D01*
X156186629Y-75489415D01*
X156178769Y-75558841D01*
X156134622Y-75612997D01*
X156107811Y-75626926D01*
X155987912Y-75671646D01*
X155987906Y-75671649D01*
X155872812Y-75757809D01*
X155872809Y-75757812D01*
X155786649Y-75872906D01*
X155786645Y-75872913D01*
X155736403Y-76007620D01*
X155736401Y-76007627D01*
X155730000Y-76067155D01*
X155730000Y-76715000D01*
X156646988Y-76715000D01*
X156614075Y-76772007D01*
X156580000Y-76899174D01*
X156580000Y-77030826D01*
X156614075Y-77157993D01*
X156646988Y-77215000D01*
X155730000Y-77215000D01*
X155730000Y-77862844D01*
X155736401Y-77922372D01*
X155736403Y-77922379D01*
X155786645Y-78057086D01*
X155786649Y-78057093D01*
X155872809Y-78172187D01*
X155872812Y-78172190D01*
X155987906Y-78258350D01*
X155987913Y-78258354D01*
X156122620Y-78308596D01*
X156122627Y-78308598D01*
X156182155Y-78314999D01*
X156182172Y-78315000D01*
X156830000Y-78315000D01*
X156830000Y-77398012D01*
X156887007Y-77430925D01*
X157014174Y-77465000D01*
X157145826Y-77465000D01*
X157272993Y-77430925D01*
X157330000Y-77398012D01*
X157330000Y-78315000D01*
X157977828Y-78315000D01*
X157977844Y-78314999D01*
X158037372Y-78308598D01*
X158037379Y-78308596D01*
X158172086Y-78258354D01*
X158172093Y-78258350D01*
X158287187Y-78172190D01*
X158287190Y-78172187D01*
X158373350Y-78057093D01*
X158373354Y-78057086D01*
X158423596Y-77922379D01*
X158423598Y-77922372D01*
X158429999Y-77862844D01*
X158430000Y-77862827D01*
X158430000Y-77215000D01*
X157513012Y-77215000D01*
X157545925Y-77157993D01*
X157580000Y-77030826D01*
X157580000Y-76899174D01*
X157545925Y-76772007D01*
X157513012Y-76715000D01*
X158430000Y-76715000D01*
X158430000Y-76067172D01*
X158429999Y-76067155D01*
X158423598Y-76007627D01*
X158423596Y-76007620D01*
X158373354Y-75872913D01*
X158373350Y-75872906D01*
X158287190Y-75757812D01*
X158287187Y-75757809D01*
X158172093Y-75671649D01*
X158172088Y-75671646D01*
X158052188Y-75626926D01*
X157996255Y-75585054D01*
X157971838Y-75519590D01*
X157986690Y-75451317D01*
X158004286Y-75426769D01*
X158155722Y-75262268D01*
X158278860Y-75073791D01*
X158369296Y-74867616D01*
X158424564Y-74649368D01*
X158424868Y-74645700D01*
X158443156Y-74425005D01*
X158443156Y-74424994D01*
X158424565Y-74200640D01*
X158424563Y-74200628D01*
X158388054Y-74056457D01*
X158369296Y-73982384D01*
X158278860Y-73776209D01*
X158155722Y-73587732D01*
X158155719Y-73587729D01*
X158155715Y-73587723D01*
X158003243Y-73422097D01*
X158003238Y-73422092D01*
X157825577Y-73283812D01*
X157825578Y-73283812D01*
X157825576Y-73283811D01*
X157789070Y-73264055D01*
X157739479Y-73214836D01*
X157724371Y-73146619D01*
X157748541Y-73081064D01*
X157789070Y-73045945D01*
X157798649Y-73040761D01*
X157825576Y-73026189D01*
X158003240Y-72887906D01*
X158122748Y-72758087D01*
X158155715Y-72722276D01*
X158155716Y-72722274D01*
X158155722Y-72722268D01*
X158278860Y-72533791D01*
X158369296Y-72327616D01*
X158424564Y-72109368D01*
X158424565Y-72109359D01*
X158443156Y-71885005D01*
X158443156Y-71884994D01*
X158424565Y-71660640D01*
X158424563Y-71660628D01*
X158369296Y-71442385D01*
X158347404Y-71392476D01*
X158278860Y-71236209D01*
X158155722Y-71047732D01*
X158155719Y-71047729D01*
X158155715Y-71047723D01*
X158003243Y-70882097D01*
X158003238Y-70882092D01*
X157884797Y-70789905D01*
X157825576Y-70743811D01*
X157825575Y-70743810D01*
X157825572Y-70743808D01*
X157627580Y-70636661D01*
X157627577Y-70636659D01*
X157627574Y-70636658D01*
X157627571Y-70636657D01*
X157627569Y-70636656D01*
X157414637Y-70563556D01*
X157192569Y-70526500D01*
X156967431Y-70526500D01*
X156745362Y-70563556D01*
X156532430Y-70636656D01*
X156532419Y-70636661D01*
X156334427Y-70743808D01*
X156334422Y-70743812D01*
X156156761Y-70882092D01*
X156156756Y-70882097D01*
X156004284Y-71047723D01*
X156004276Y-71047734D01*
X155881140Y-71236207D01*
X155790703Y-71442385D01*
X155735436Y-71660628D01*
X155735434Y-71660640D01*
X155716844Y-71884994D01*
X155716844Y-71885005D01*
X155735434Y-72109359D01*
X155735436Y-72109371D01*
X155790703Y-72327614D01*
X155881140Y-72533792D01*
X156004276Y-72722265D01*
X156004284Y-72722276D01*
X156156756Y-72887902D01*
X156156760Y-72887906D01*
X156334424Y-73026189D01*
X156334429Y-73026191D01*
X156334431Y-73026193D01*
X156370930Y-73045946D01*
X156420520Y-73095165D01*
X156435628Y-73163382D01*
X156411457Y-73228937D01*
X156370930Y-73264054D01*
X156334431Y-73283806D01*
X156334422Y-73283812D01*
X156156761Y-73422092D01*
X156156756Y-73422097D01*
X156004284Y-73587723D01*
X156004280Y-73587729D01*
X155940518Y-73685323D01*
X155887371Y-73730679D01*
X155836710Y-73741500D01*
X154222005Y-73741500D01*
X154154966Y-73721815D01*
X154109211Y-73669011D01*
X154098477Y-73628308D01*
X154094927Y-73587732D01*
X154093543Y-73571913D01*
X154034284Y-73350757D01*
X153937523Y-73143251D01*
X153806198Y-72955700D01*
X153644300Y-72793802D01*
X153456749Y-72662477D01*
X153456745Y-72662475D01*
X153249249Y-72565718D01*
X153249238Y-72565714D01*
X153028089Y-72506457D01*
X153028081Y-72506456D01*
X152800002Y-72486502D01*
X152799998Y-72486502D01*
X152571918Y-72506456D01*
X152571910Y-72506457D01*
X152350761Y-72565714D01*
X152350750Y-72565718D01*
X152143254Y-72662475D01*
X152143252Y-72662476D01*
X152143251Y-72662477D01*
X151955700Y-72793802D01*
X151955698Y-72793803D01*
X151955695Y-72793806D01*
X151887681Y-72861821D01*
X151826358Y-72895306D01*
X151756666Y-72890322D01*
X151712319Y-72861821D01*
X151644304Y-72793806D01*
X151644300Y-72793802D01*
X151456749Y-72662477D01*
X151456745Y-72662475D01*
X151249249Y-72565718D01*
X151249238Y-72565714D01*
X151028089Y-72506457D01*
X151028081Y-72506456D01*
X150800002Y-72486502D01*
X150799998Y-72486502D01*
X150571918Y-72506456D01*
X150571910Y-72506457D01*
X150350761Y-72565714D01*
X150350750Y-72565718D01*
X150143254Y-72662475D01*
X150143252Y-72662476D01*
X150143251Y-72662477D01*
X149955700Y-72793802D01*
X149955698Y-72793803D01*
X149955695Y-72793806D01*
X149793802Y-72955699D01*
X149753714Y-73012950D01*
X149718231Y-73063625D01*
X149663656Y-73107248D01*
X149616658Y-73116500D01*
X149304477Y-73116500D01*
X149237438Y-73096815D01*
X149216796Y-73080181D01*
X145433278Y-69296663D01*
X145399793Y-69235340D01*
X145401186Y-69176883D01*
X145403542Y-69168091D01*
X145403542Y-69168089D01*
X145403543Y-69168087D01*
X145423498Y-68940000D01*
X145403543Y-68711913D01*
X145394414Y-68677844D01*
X160460000Y-68677844D01*
X160466401Y-68737372D01*
X160466403Y-68737379D01*
X160516645Y-68872086D01*
X160516649Y-68872093D01*
X160602809Y-68987187D01*
X160602812Y-68987190D01*
X160717906Y-69073350D01*
X160717913Y-69073354D01*
X160852620Y-69123596D01*
X160852627Y-69123598D01*
X160912155Y-69129999D01*
X160912172Y-69130000D01*
X161560000Y-69130000D01*
X161560000Y-68213012D01*
X161617007Y-68245925D01*
X161744174Y-68280000D01*
X161875826Y-68280000D01*
X162002993Y-68245925D01*
X162060000Y-68213012D01*
X162060000Y-69130000D01*
X162707828Y-69130000D01*
X162707844Y-69129999D01*
X162767372Y-69123598D01*
X162767379Y-69123596D01*
X162902086Y-69073354D01*
X162902093Y-69073350D01*
X163017187Y-68987190D01*
X163017190Y-68987187D01*
X163103350Y-68872093D01*
X163103354Y-68872086D01*
X163153596Y-68737379D01*
X163153598Y-68737372D01*
X163159999Y-68677844D01*
X163160000Y-68677827D01*
X163160000Y-68030000D01*
X162243012Y-68030000D01*
X162275925Y-67972993D01*
X162310000Y-67845826D01*
X162310000Y-67714174D01*
X162275925Y-67587007D01*
X162243012Y-67530000D01*
X163160000Y-67530000D01*
X163160000Y-66882172D01*
X163159999Y-66882155D01*
X163153598Y-66822627D01*
X163153596Y-66822620D01*
X163103354Y-66687913D01*
X163103350Y-66687906D01*
X163017190Y-66572812D01*
X163017187Y-66572809D01*
X162902093Y-66486649D01*
X162902086Y-66486645D01*
X162767379Y-66436403D01*
X162767372Y-66436401D01*
X162707844Y-66430000D01*
X162060000Y-66430000D01*
X162060000Y-67346988D01*
X162002993Y-67314075D01*
X161875826Y-67280000D01*
X161744174Y-67280000D01*
X161617007Y-67314075D01*
X161560000Y-67346988D01*
X161560000Y-66430000D01*
X160912155Y-66430000D01*
X160852627Y-66436401D01*
X160852620Y-66436403D01*
X160717913Y-66486645D01*
X160717906Y-66486649D01*
X160602812Y-66572809D01*
X160602809Y-66572812D01*
X160516649Y-66687906D01*
X160516645Y-66687913D01*
X160466403Y-66822620D01*
X160466401Y-66822627D01*
X160460000Y-66882155D01*
X160460000Y-67530000D01*
X161376988Y-67530000D01*
X161344075Y-67587007D01*
X161310000Y-67714174D01*
X161310000Y-67845826D01*
X161344075Y-67972993D01*
X161376988Y-68030000D01*
X160460000Y-68030000D01*
X160460000Y-68677844D01*
X145394414Y-68677844D01*
X145344284Y-68490757D01*
X145338197Y-68477704D01*
X145247524Y-68283254D01*
X145247523Y-68283252D01*
X145247523Y-68283251D01*
X145116198Y-68095700D01*
X144954300Y-67933802D01*
X144766749Y-67802477D01*
X144766745Y-67802475D01*
X144559249Y-67705718D01*
X144559238Y-67705714D01*
X144338089Y-67646457D01*
X144338081Y-67646456D01*
X144110002Y-67626502D01*
X144109998Y-67626502D01*
X143881918Y-67646456D01*
X143881910Y-67646457D01*
X143660761Y-67705714D01*
X143660750Y-67705718D01*
X143453254Y-67802475D01*
X143453252Y-67802476D01*
X143453251Y-67802477D01*
X143265700Y-67933802D01*
X143265698Y-67933803D01*
X143265695Y-67933806D01*
X143103806Y-68095695D01*
X142972476Y-68283252D01*
X142972475Y-68283254D01*
X142875718Y-68490750D01*
X142875714Y-68490761D01*
X142816457Y-68711910D01*
X142816456Y-68711918D01*
X142796502Y-68939998D01*
X142796502Y-68940001D01*
X139166927Y-68940001D01*
X139052482Y-68859865D01*
X138846328Y-68763734D01*
X138650000Y-68711127D01*
X138650000Y-69674314D01*
X138645606Y-69669920D01*
X138554394Y-69617259D01*
X138452661Y-69590000D01*
X138347339Y-69590000D01*
X138245606Y-69617259D01*
X138154394Y-69669920D01*
X138150000Y-69674314D01*
X138150000Y-68711127D01*
X137953671Y-68763734D01*
X137747517Y-68859865D01*
X137561179Y-68990342D01*
X137400342Y-69151179D01*
X137269865Y-69337517D01*
X137173734Y-69543673D01*
X137173730Y-69543682D01*
X137121127Y-69739999D01*
X137121128Y-69740000D01*
X138084314Y-69740000D01*
X138079920Y-69744394D01*
X138027259Y-69835606D01*
X138000000Y-69937339D01*
X138000000Y-70042661D01*
X138027259Y-70144394D01*
X138079920Y-70235606D01*
X138084314Y-70240000D01*
X137121128Y-70240000D01*
X137173730Y-70436317D01*
X137173734Y-70436326D01*
X137269865Y-70642482D01*
X137400342Y-70828820D01*
X137561179Y-70989657D01*
X137747517Y-71120133D01*
X137796399Y-71142927D01*
X137848839Y-71189099D01*
X137867992Y-71256292D01*
X137847777Y-71323174D01*
X137796402Y-71367691D01*
X137743256Y-71392474D01*
X137743252Y-71392476D01*
X137672856Y-71441767D01*
X137555700Y-71523802D01*
X137555698Y-71523803D01*
X137555695Y-71523806D01*
X137393806Y-71685695D01*
X137262476Y-71873252D01*
X137262475Y-71873254D01*
X137165718Y-72080750D01*
X137165714Y-72080761D01*
X137106457Y-72301910D01*
X137106456Y-72301918D01*
X137086502Y-72529998D01*
X137086502Y-72530001D01*
X137106456Y-72758081D01*
X137106457Y-72758089D01*
X137165714Y-72979238D01*
X137165718Y-72979249D01*
X137262475Y-73186745D01*
X137262477Y-73186749D01*
X137393802Y-73374300D01*
X137555700Y-73536198D01*
X137743251Y-73667523D01*
X137786345Y-73687618D01*
X137838784Y-73733791D01*
X137857936Y-73800984D01*
X137837720Y-73867865D01*
X137786345Y-73912382D01*
X137743251Y-73932476D01*
X137671975Y-73982385D01*
X137555700Y-74063802D01*
X137555698Y-74063803D01*
X137555695Y-74063806D01*
X137393806Y-74225695D01*
X137393803Y-74225698D01*
X137393802Y-74225700D01*
X137311106Y-74343802D01*
X137262477Y-74413251D01*
X137165718Y-74620750D01*
X137165714Y-74620761D01*
X137106457Y-74841910D01*
X137106456Y-74841918D01*
X137089061Y-75040750D01*
X137086502Y-75070000D01*
X137106456Y-75298081D01*
X137106457Y-75298085D01*
X137106456Y-75298085D01*
X137108816Y-75306890D01*
X137107151Y-75376740D01*
X137076721Y-75426662D01*
X134033204Y-78470181D01*
X133971881Y-78503666D01*
X133945523Y-78506500D01*
X131987849Y-78506500D01*
X131920810Y-78486815D01*
X131875055Y-78434011D01*
X131865111Y-78364853D01*
X131886275Y-78311376D01*
X131893751Y-78300697D01*
X131917523Y-78266749D01*
X132014284Y-78059243D01*
X132073543Y-77838087D01*
X132093498Y-77610000D01*
X132073543Y-77381913D01*
X132014284Y-77160757D01*
X132006356Y-77143756D01*
X131953712Y-77030859D01*
X131917523Y-76953251D01*
X131786198Y-76765700D01*
X131624300Y-76603802D01*
X131436749Y-76472477D01*
X131420714Y-76465000D01*
X131393655Y-76452382D01*
X131341215Y-76406210D01*
X131322063Y-76339017D01*
X131342278Y-76272136D01*
X131393655Y-76227618D01*
X131396882Y-76226112D01*
X131436749Y-76207523D01*
X131624300Y-76076198D01*
X131786198Y-75914300D01*
X131917523Y-75726749D01*
X132014284Y-75519243D01*
X132073543Y-75298087D01*
X132093498Y-75070000D01*
X132073543Y-74841913D01*
X132014284Y-74620757D01*
X131994197Y-74577681D01*
X131917523Y-74413251D01*
X131909868Y-74402319D01*
X131786198Y-74225700D01*
X131624300Y-74063802D01*
X131436749Y-73932477D01*
X131393655Y-73912382D01*
X131341215Y-73866210D01*
X131322063Y-73799017D01*
X131342278Y-73732136D01*
X131393655Y-73687618D01*
X131396882Y-73686112D01*
X131436749Y-73667523D01*
X131624300Y-73536198D01*
X131786198Y-73374300D01*
X131917523Y-73186749D01*
X132014284Y-72979243D01*
X132073543Y-72758087D01*
X132093498Y-72530000D01*
X132089456Y-72483805D01*
X132080218Y-72378210D01*
X132073543Y-72301913D01*
X132014284Y-72080757D01*
X131917523Y-71873251D01*
X131786198Y-71685700D01*
X131624300Y-71523802D01*
X131436749Y-71392477D01*
X131393655Y-71372382D01*
X131341215Y-71326210D01*
X131322063Y-71259017D01*
X131342278Y-71192136D01*
X131393655Y-71147618D01*
X131396882Y-71146112D01*
X131436749Y-71127523D01*
X131624300Y-70996198D01*
X131786198Y-70834300D01*
X131917523Y-70646749D01*
X132014284Y-70439243D01*
X132073543Y-70218087D01*
X132093498Y-69990000D01*
X132073543Y-69761913D01*
X132014284Y-69540757D01*
X131987118Y-69482500D01*
X131934522Y-69369706D01*
X131917523Y-69333251D01*
X131786198Y-69145700D01*
X131624300Y-68983802D01*
X131436749Y-68852477D01*
X131436745Y-68852475D01*
X131229249Y-68755718D01*
X131229238Y-68755714D01*
X131008089Y-68696457D01*
X131008081Y-68696456D01*
X130780002Y-68676502D01*
X130779998Y-68676502D01*
X130551918Y-68696456D01*
X130551910Y-68696457D01*
X130330761Y-68755714D01*
X130330750Y-68755718D01*
X130123254Y-68852475D01*
X130123252Y-68852476D01*
X130057328Y-68898637D01*
X129935700Y-68983802D01*
X129935698Y-68983803D01*
X129935695Y-68983806D01*
X129773806Y-69145695D01*
X129773803Y-69145698D01*
X129773802Y-69145700D01*
X129726496Y-69213260D01*
X129642476Y-69333252D01*
X129642475Y-69333254D01*
X129545718Y-69540750D01*
X129545714Y-69540761D01*
X129486457Y-69761910D01*
X129486456Y-69761918D01*
X129466502Y-69989998D01*
X129466502Y-69990001D01*
X129486456Y-70218081D01*
X129486457Y-70218089D01*
X129545714Y-70439238D01*
X129545718Y-70439249D01*
X129637773Y-70636661D01*
X129642477Y-70646749D01*
X129773802Y-70834300D01*
X129935700Y-70996198D01*
X130112697Y-71120133D01*
X130123251Y-71127523D01*
X130166345Y-71147618D01*
X130218784Y-71193791D01*
X130237936Y-71260984D01*
X130217720Y-71327865D01*
X130166345Y-71372382D01*
X130123251Y-71392476D01*
X130051975Y-71442385D01*
X129935700Y-71523802D01*
X129935698Y-71523803D01*
X129935695Y-71523806D01*
X129773802Y-71685699D01*
X129733714Y-71742950D01*
X129698231Y-71793625D01*
X129643656Y-71837248D01*
X129596658Y-71846500D01*
X127164477Y-71846500D01*
X127097438Y-71826815D01*
X127076796Y-71810181D01*
X124653278Y-69386663D01*
X124619793Y-69325340D01*
X124621186Y-69266883D01*
X124623542Y-69258091D01*
X124623542Y-69258090D01*
X124623543Y-69258087D01*
X124643498Y-69030000D01*
X124623543Y-68801913D01*
X124564284Y-68580757D01*
X124467523Y-68373251D01*
X124336198Y-68185700D01*
X124174300Y-68023802D01*
X123986749Y-67892477D01*
X123986745Y-67892475D01*
X123779249Y-67795718D01*
X123779238Y-67795714D01*
X123558089Y-67736457D01*
X123558081Y-67736456D01*
X123330002Y-67716502D01*
X123329998Y-67716502D01*
X123101918Y-67736456D01*
X123101910Y-67736457D01*
X122880761Y-67795714D01*
X122880750Y-67795718D01*
X122673254Y-67892475D01*
X122673252Y-67892476D01*
X122673251Y-67892477D01*
X122485700Y-68023802D01*
X122485698Y-68023803D01*
X122485695Y-68023806D01*
X122323802Y-68185699D01*
X122283714Y-68242950D01*
X122248231Y-68293625D01*
X122193656Y-68337248D01*
X122146658Y-68346500D01*
X116832676Y-68346500D01*
X116700638Y-68372764D01*
X116700626Y-68372767D01*
X116627764Y-68402947D01*
X116627765Y-68402948D01*
X116576243Y-68424288D01*
X116496302Y-68477704D01*
X116496301Y-68477705D01*
X116464291Y-68499092D01*
X115936662Y-69026721D01*
X115875339Y-69060206D01*
X115816891Y-69058816D01*
X115808087Y-69056457D01*
X115694043Y-69046479D01*
X115580002Y-69036502D01*
X115579998Y-69036502D01*
X115351919Y-69056456D01*
X115351902Y-69056459D01*
X115343102Y-69058817D01*
X115273252Y-69057149D01*
X115223336Y-69026721D01*
X113665709Y-67469093D01*
X113665706Y-67469090D01*
X113581934Y-67413116D01*
X113553759Y-67394290D01*
X113502235Y-67372948D01*
X113502235Y-67372947D01*
X113429373Y-67342767D01*
X113429361Y-67342764D01*
X113297323Y-67316500D01*
X113297319Y-67316500D01*
X108112500Y-67316500D01*
X108045461Y-67296815D01*
X107999706Y-67244011D01*
X107988500Y-67192500D01*
X107988500Y-67101362D01*
X107988499Y-67101345D01*
X107985157Y-67070270D01*
X107981989Y-67040799D01*
X107930889Y-66903796D01*
X107843261Y-66786739D01*
X107726204Y-66699111D01*
X107589203Y-66648011D01*
X107528654Y-66641500D01*
X107528638Y-66641500D01*
X105731362Y-66641500D01*
X105731345Y-66641500D01*
X105670797Y-66648011D01*
X105670795Y-66648011D01*
X105533795Y-66699111D01*
X105416739Y-66786739D01*
X105329111Y-66903795D01*
X105278011Y-67040795D01*
X105278011Y-67040797D01*
X105271500Y-67101345D01*
X105271500Y-68898654D01*
X100075500Y-68898654D01*
X100075500Y-64600005D01*
X124674859Y-64600005D01*
X124695385Y-64847729D01*
X124695387Y-64847738D01*
X124756412Y-65088717D01*
X124856266Y-65316364D01*
X124956564Y-65469882D01*
X125656212Y-64770234D01*
X125667482Y-64812292D01*
X125739890Y-64937708D01*
X125842292Y-65040110D01*
X125967708Y-65112518D01*
X126009765Y-65123787D01*
X125309942Y-65823609D01*
X125356768Y-65860055D01*
X125356770Y-65860056D01*
X125575385Y-65978364D01*
X125575396Y-65978369D01*
X125810506Y-66059083D01*
X126055707Y-66100000D01*
X126304293Y-66100000D01*
X126549493Y-66059083D01*
X126784603Y-65978369D01*
X126784614Y-65978364D01*
X127003228Y-65860057D01*
X127003231Y-65860055D01*
X127050056Y-65823609D01*
X126350234Y-65123787D01*
X126392292Y-65112518D01*
X126517708Y-65040110D01*
X126620110Y-64937708D01*
X126692518Y-64812292D01*
X126703787Y-64770235D01*
X127403434Y-65469882D01*
X127503731Y-65316369D01*
X127603587Y-65088717D01*
X127664612Y-64847738D01*
X127664614Y-64847729D01*
X127685141Y-64600005D01*
X131174859Y-64600005D01*
X131195385Y-64847729D01*
X131195387Y-64847738D01*
X131256412Y-65088717D01*
X131356266Y-65316364D01*
X131456564Y-65469882D01*
X132156212Y-64770234D01*
X132167482Y-64812292D01*
X132239890Y-64937708D01*
X132342292Y-65040110D01*
X132467708Y-65112518D01*
X132509765Y-65123787D01*
X131809942Y-65823609D01*
X131856768Y-65860055D01*
X131856770Y-65860056D01*
X132075385Y-65978364D01*
X132075396Y-65978369D01*
X132310506Y-66059083D01*
X132555707Y-66100000D01*
X132804293Y-66100000D01*
X133049493Y-66059083D01*
X133284603Y-65978369D01*
X133284614Y-65978364D01*
X133503228Y-65860057D01*
X133503231Y-65860055D01*
X133550056Y-65823609D01*
X132850234Y-65123787D01*
X132892292Y-65112518D01*
X133017708Y-65040110D01*
X133120110Y-64937708D01*
X133192518Y-64812292D01*
X133203787Y-64770235D01*
X133903434Y-65469882D01*
X134003731Y-65316369D01*
X134103587Y-65088717D01*
X134164612Y-64847738D01*
X134164614Y-64847729D01*
X134185141Y-64600005D01*
X134185141Y-64599994D01*
X134164614Y-64352270D01*
X134164612Y-64352261D01*
X134103587Y-64111282D01*
X134003731Y-63883630D01*
X133903434Y-63730116D01*
X133203787Y-64429764D01*
X133192518Y-64387708D01*
X133120110Y-64262292D01*
X133017708Y-64159890D01*
X132892292Y-64087482D01*
X132850235Y-64076212D01*
X133550057Y-63376390D01*
X133550056Y-63376389D01*
X133503229Y-63339943D01*
X133284614Y-63221635D01*
X133284603Y-63221630D01*
X133049493Y-63140916D01*
X132804293Y-63100000D01*
X132555707Y-63100000D01*
X132310506Y-63140916D01*
X132075396Y-63221630D01*
X132075390Y-63221632D01*
X131856761Y-63339949D01*
X131809942Y-63376388D01*
X131809942Y-63376390D01*
X132509765Y-64076212D01*
X132467708Y-64087482D01*
X132342292Y-64159890D01*
X132239890Y-64262292D01*
X132167482Y-64387708D01*
X132156212Y-64429764D01*
X131456564Y-63730116D01*
X131356267Y-63883632D01*
X131256412Y-64111282D01*
X131195387Y-64352261D01*
X131195385Y-64352270D01*
X131174859Y-64599994D01*
X131174859Y-64600005D01*
X127685141Y-64600005D01*
X127685141Y-64599994D01*
X127664614Y-64352270D01*
X127664612Y-64352261D01*
X127603587Y-64111282D01*
X127503731Y-63883630D01*
X127403434Y-63730116D01*
X126703787Y-64429764D01*
X126692518Y-64387708D01*
X126620110Y-64262292D01*
X126517708Y-64159890D01*
X126392292Y-64087482D01*
X126350235Y-64076212D01*
X127050057Y-63376390D01*
X127050056Y-63376389D01*
X127003229Y-63339943D01*
X126784614Y-63221635D01*
X126784603Y-63221630D01*
X126549493Y-63140916D01*
X126304293Y-63100000D01*
X126055707Y-63100000D01*
X125810506Y-63140916D01*
X125575396Y-63221630D01*
X125575390Y-63221632D01*
X125356761Y-63339949D01*
X125309942Y-63376388D01*
X125309942Y-63376390D01*
X126009765Y-64076212D01*
X125967708Y-64087482D01*
X125842292Y-64159890D01*
X125739890Y-64262292D01*
X125667482Y-64387708D01*
X125656212Y-64429764D01*
X124956564Y-63730116D01*
X124856267Y-63883632D01*
X124756412Y-64111282D01*
X124695387Y-64352261D01*
X124695385Y-64352270D01*
X124674859Y-64599994D01*
X124674859Y-64600005D01*
X100075500Y-64600005D01*
X100075500Y-63887844D01*
X105180000Y-63887844D01*
X105186401Y-63947372D01*
X105186403Y-63947379D01*
X105236645Y-64082086D01*
X105236649Y-64082093D01*
X105322809Y-64197187D01*
X105322812Y-64197190D01*
X105437906Y-64283350D01*
X105437913Y-64283354D01*
X105572620Y-64333596D01*
X105572627Y-64333598D01*
X105632155Y-64339999D01*
X105632172Y-64340000D01*
X106280000Y-64340000D01*
X106280000Y-63423012D01*
X106337007Y-63455925D01*
X106464174Y-63490000D01*
X106595826Y-63490000D01*
X106722993Y-63455925D01*
X106780000Y-63423012D01*
X106780000Y-64340000D01*
X107427828Y-64340000D01*
X107427844Y-64339999D01*
X107487372Y-64333598D01*
X107487379Y-64333596D01*
X107622086Y-64283354D01*
X107622093Y-64283350D01*
X107737187Y-64197190D01*
X107737190Y-64197187D01*
X107823350Y-64082093D01*
X107823354Y-64082086D01*
X107873596Y-63947379D01*
X107873598Y-63947372D01*
X107879999Y-63887844D01*
X107880000Y-63887827D01*
X107880000Y-63240000D01*
X106963012Y-63240000D01*
X106995925Y-63182993D01*
X107030000Y-63055826D01*
X107030000Y-62924174D01*
X106995925Y-62797007D01*
X106963012Y-62740000D01*
X107880000Y-62740000D01*
X107880000Y-62092172D01*
X107879999Y-62092155D01*
X107873598Y-62032627D01*
X107873596Y-62032620D01*
X107823354Y-61897913D01*
X107823350Y-61897906D01*
X107737190Y-61782812D01*
X107737187Y-61782809D01*
X107622093Y-61696649D01*
X107622086Y-61696645D01*
X107487379Y-61646403D01*
X107487372Y-61646401D01*
X107427844Y-61640000D01*
X106780000Y-61640000D01*
X106780000Y-62556988D01*
X106722993Y-62524075D01*
X106595826Y-62490000D01*
X106464174Y-62490000D01*
X106337007Y-62524075D01*
X106280000Y-62556988D01*
X106280000Y-61640000D01*
X105632155Y-61640000D01*
X105572627Y-61646401D01*
X105572620Y-61646403D01*
X105437913Y-61696645D01*
X105437906Y-61696649D01*
X105322812Y-61782809D01*
X105322809Y-61782812D01*
X105236649Y-61897906D01*
X105236645Y-61897913D01*
X105186403Y-62032620D01*
X105186401Y-62032627D01*
X105180000Y-62092155D01*
X105180000Y-62740000D01*
X106096988Y-62740000D01*
X106064075Y-62797007D01*
X106030000Y-62924174D01*
X106030000Y-63055826D01*
X106064075Y-63182993D01*
X106096988Y-63240000D01*
X105180000Y-63240000D01*
X105180000Y-63887844D01*
X100075500Y-63887844D01*
X100075500Y-55770001D01*
X104456502Y-55770001D01*
X104476456Y-55998081D01*
X104476457Y-55998089D01*
X104535714Y-56219238D01*
X104535718Y-56219249D01*
X104604305Y-56366334D01*
X104632477Y-56426749D01*
X104763802Y-56614300D01*
X104925700Y-56776198D01*
X105113251Y-56907523D01*
X105232954Y-56963341D01*
X105320750Y-57004281D01*
X105320752Y-57004281D01*
X105320757Y-57004284D01*
X105541913Y-57063543D01*
X105704832Y-57077796D01*
X105769998Y-57083498D01*
X105770000Y-57083498D01*
X105770002Y-57083498D01*
X105827021Y-57078509D01*
X105998087Y-57063543D01*
X106219243Y-57004284D01*
X106426749Y-56907523D01*
X106614300Y-56776198D01*
X106776198Y-56614300D01*
X106907523Y-56426749D01*
X107004284Y-56219243D01*
X107063543Y-55998087D01*
X107083498Y-55770001D01*
X114616502Y-55770001D01*
X114636456Y-55998081D01*
X114636457Y-55998089D01*
X114695714Y-56219238D01*
X114695718Y-56219249D01*
X114764305Y-56366334D01*
X114792477Y-56426749D01*
X114923802Y-56614300D01*
X115085700Y-56776198D01*
X115273251Y-56907523D01*
X115392954Y-56963341D01*
X115480750Y-57004281D01*
X115480752Y-57004281D01*
X115480757Y-57004284D01*
X115701913Y-57063543D01*
X115864832Y-57077796D01*
X115929998Y-57083498D01*
X115930000Y-57083498D01*
X115930002Y-57083498D01*
X115961614Y-57080732D01*
X116158087Y-57063543D01*
X116166883Y-57061186D01*
X116236733Y-57062845D01*
X116286663Y-57093278D01*
X117860181Y-58666796D01*
X117893666Y-58728119D01*
X117896500Y-58754477D01*
X117896500Y-61424477D01*
X117876815Y-61491516D01*
X117831521Y-61533530D01*
X117806984Y-61546809D01*
X117806979Y-61546812D01*
X117622781Y-61690181D01*
X117622776Y-61690185D01*
X117616346Y-61697170D01*
X117556457Y-61733157D01*
X117486619Y-61731052D01*
X117429005Y-61691524D01*
X117408940Y-61656513D01*
X117383355Y-61587915D01*
X117383350Y-61587906D01*
X117297190Y-61472812D01*
X117297187Y-61472809D01*
X117182093Y-61386649D01*
X117182086Y-61386645D01*
X117047379Y-61336403D01*
X117047372Y-61336401D01*
X116987844Y-61330000D01*
X116290000Y-61330000D01*
X116290000Y-62354722D01*
X116213694Y-62310667D01*
X116099244Y-62280000D01*
X115980756Y-62280000D01*
X115866306Y-62310667D01*
X115790000Y-62354722D01*
X115790000Y-61330000D01*
X115092155Y-61330000D01*
X115032627Y-61336401D01*
X115032620Y-61336403D01*
X114897913Y-61386645D01*
X114897906Y-61386649D01*
X114782812Y-61472809D01*
X114782809Y-61472812D01*
X114696649Y-61587906D01*
X114696645Y-61587913D01*
X114646403Y-61722620D01*
X114646401Y-61722627D01*
X114640000Y-61782155D01*
X114640000Y-62480000D01*
X115664722Y-62480000D01*
X115620667Y-62556306D01*
X115590000Y-62670756D01*
X115590000Y-62789244D01*
X115620667Y-62903694D01*
X115664722Y-62980000D01*
X114640000Y-62980000D01*
X114640000Y-63677844D01*
X114646401Y-63737372D01*
X114646403Y-63737379D01*
X114696645Y-63872086D01*
X114696649Y-63872093D01*
X114782809Y-63987187D01*
X114782812Y-63987190D01*
X114897906Y-64073350D01*
X114897913Y-64073354D01*
X115032620Y-64123596D01*
X115032627Y-64123598D01*
X115092155Y-64129999D01*
X115092172Y-64130000D01*
X115790000Y-64130000D01*
X115790000Y-63105277D01*
X115866306Y-63149333D01*
X115980756Y-63180000D01*
X116099244Y-63180000D01*
X116213694Y-63149333D01*
X116290000Y-63105277D01*
X116290000Y-64130000D01*
X116987828Y-64130000D01*
X116987844Y-64129999D01*
X117047372Y-64123598D01*
X117047379Y-64123596D01*
X117182086Y-64073354D01*
X117182093Y-64073350D01*
X117297187Y-63987190D01*
X117297190Y-63987187D01*
X117383350Y-63872093D01*
X117383355Y-63872084D01*
X117408940Y-63803486D01*
X117450810Y-63747552D01*
X117516274Y-63723134D01*
X117584547Y-63737985D01*
X117616349Y-63762832D01*
X117622780Y-63769818D01*
X117806983Y-63913190D01*
X117806985Y-63913191D01*
X117806988Y-63913193D01*
X117862418Y-63943190D01*
X118012273Y-64024287D01*
X118126914Y-64063643D01*
X118233045Y-64100079D01*
X118233047Y-64100079D01*
X118233049Y-64100080D01*
X118463288Y-64138500D01*
X118463289Y-64138500D01*
X118696711Y-64138500D01*
X118696712Y-64138500D01*
X118926951Y-64100080D01*
X119147727Y-64024287D01*
X119353017Y-63913190D01*
X119537220Y-63769818D01*
X119695314Y-63598083D01*
X119822984Y-63402669D01*
X119916749Y-63188907D01*
X119974051Y-62962626D01*
X119990841Y-62760000D01*
X119993327Y-62730005D01*
X119993327Y-62729994D01*
X119976537Y-62527374D01*
X119974051Y-62497374D01*
X119916749Y-62271093D01*
X119822984Y-62057331D01*
X119756962Y-61956277D01*
X119695313Y-61861915D01*
X119537223Y-61690185D01*
X119537222Y-61690184D01*
X119537220Y-61690182D01*
X119353017Y-61546810D01*
X119338778Y-61539104D01*
X119328479Y-61533530D01*
X119278890Y-61484309D01*
X119263500Y-61424477D01*
X119263500Y-60100000D01*
X124666835Y-60100000D01*
X124685465Y-60336714D01*
X124740895Y-60567595D01*
X124740895Y-60567597D01*
X124831757Y-60786959D01*
X124831759Y-60786962D01*
X124955820Y-60989410D01*
X124955821Y-60989413D01*
X124955824Y-60989416D01*
X125110031Y-61169969D01*
X125249797Y-61289340D01*
X125290586Y-61324178D01*
X125290588Y-61324178D01*
X125349043Y-61360000D01*
X125493037Y-61448240D01*
X125493040Y-61448242D01*
X125712403Y-61539104D01*
X125712404Y-61539104D01*
X125712406Y-61539105D01*
X125943289Y-61594535D01*
X126180000Y-61613165D01*
X126416711Y-61594535D01*
X126647594Y-61539105D01*
X126647596Y-61539104D01*
X126647597Y-61539104D01*
X126866959Y-61448242D01*
X126866960Y-61448241D01*
X126866963Y-61448240D01*
X127069416Y-61324176D01*
X127249969Y-61169969D01*
X127404176Y-60989416D01*
X127440852Y-60929566D01*
X127494079Y-60842710D01*
X127545891Y-60795835D01*
X127599806Y-60783500D01*
X131260194Y-60783500D01*
X131327233Y-60803185D01*
X131365921Y-60842710D01*
X131455820Y-60989410D01*
X131455821Y-60989413D01*
X131455824Y-60989416D01*
X131610031Y-61169969D01*
X131749797Y-61289340D01*
X131790586Y-61324178D01*
X131790588Y-61324178D01*
X131849043Y-61360000D01*
X131993037Y-61448240D01*
X131993040Y-61448242D01*
X132212403Y-61539104D01*
X132212404Y-61539104D01*
X132212406Y-61539105D01*
X132443289Y-61594535D01*
X132680000Y-61613165D01*
X132916711Y-61594535D01*
X133147594Y-61539105D01*
X133147596Y-61539104D01*
X133147597Y-61539104D01*
X133366959Y-61448242D01*
X133366960Y-61448241D01*
X133366963Y-61448240D01*
X133569416Y-61324176D01*
X133749969Y-61169969D01*
X133904176Y-60989416D01*
X134028240Y-60786963D01*
X134029675Y-60783500D01*
X134119104Y-60567597D01*
X134119104Y-60567596D01*
X134119105Y-60567594D01*
X134174535Y-60336711D01*
X134193165Y-60100000D01*
X134174535Y-59863289D01*
X134119105Y-59632406D01*
X134119104Y-59632403D01*
X134119104Y-59632402D01*
X134028242Y-59413040D01*
X134028240Y-59413037D01*
X133904179Y-59210589D01*
X133904178Y-59210586D01*
X133869340Y-59169797D01*
X133749969Y-59030031D01*
X133630596Y-58928076D01*
X133569413Y-58875821D01*
X133569410Y-58875820D01*
X133366962Y-58751759D01*
X133366959Y-58751757D01*
X133147596Y-58660895D01*
X132916714Y-58605465D01*
X132680000Y-58586835D01*
X132443289Y-58605465D01*
X132443285Y-58605465D01*
X132443284Y-58605466D01*
X132275980Y-58645631D01*
X132206198Y-58642140D01*
X132159353Y-58612738D01*
X131129819Y-57583204D01*
X131096334Y-57521881D01*
X131093500Y-57495523D01*
X131093500Y-56963341D01*
X131113185Y-56896302D01*
X131146377Y-56861766D01*
X131254300Y-56786198D01*
X131416198Y-56624300D01*
X131547523Y-56436749D01*
X131644284Y-56229243D01*
X131703543Y-56008087D01*
X131723498Y-55780000D01*
X131719998Y-55740001D01*
X133116502Y-55740001D01*
X133136456Y-55968081D01*
X133136457Y-55968089D01*
X133195714Y-56189238D01*
X133195718Y-56189249D01*
X133276973Y-56363500D01*
X133292477Y-56396749D01*
X133423802Y-56584300D01*
X133585700Y-56746198D01*
X133773251Y-56877523D01*
X133852086Y-56914284D01*
X133980750Y-56974281D01*
X133980752Y-56974281D01*
X133980757Y-56974284D01*
X134201913Y-57033543D01*
X134364832Y-57047796D01*
X134429998Y-57053498D01*
X134430000Y-57053498D01*
X134430002Y-57053498D01*
X134461614Y-57050732D01*
X134658087Y-57033543D01*
X134666883Y-57031186D01*
X134736733Y-57032845D01*
X134786663Y-57063278D01*
X137690181Y-59966796D01*
X137723666Y-60028119D01*
X137726500Y-60054477D01*
X137726500Y-61404477D01*
X137706815Y-61471516D01*
X137661521Y-61513530D01*
X137636984Y-61526809D01*
X137636979Y-61526812D01*
X137452781Y-61670181D01*
X137452776Y-61670185D01*
X137294686Y-61841915D01*
X137167015Y-62037331D01*
X137073251Y-62251092D01*
X137015948Y-62477377D01*
X136996673Y-62709994D01*
X136996673Y-62710005D01*
X137015948Y-62942622D01*
X137073251Y-63168907D01*
X137167015Y-63382668D01*
X137294686Y-63578084D01*
X137446354Y-63742838D01*
X137452780Y-63749818D01*
X137636983Y-63893190D01*
X137636985Y-63893191D01*
X137636988Y-63893193D01*
X137673945Y-63913193D01*
X137842273Y-64004287D01*
X137956914Y-64043643D01*
X138063045Y-64080079D01*
X138063047Y-64080079D01*
X138063049Y-64080080D01*
X138293288Y-64118500D01*
X138293289Y-64118500D01*
X138526711Y-64118500D01*
X138526712Y-64118500D01*
X138756951Y-64080080D01*
X138977727Y-64004287D01*
X139183017Y-63893190D01*
X139367220Y-63749818D01*
X139373646Y-63742837D01*
X139433531Y-63706845D01*
X139503369Y-63708944D01*
X139560986Y-63748466D01*
X139581059Y-63783485D01*
X139606645Y-63852086D01*
X139606649Y-63852093D01*
X139692809Y-63967187D01*
X139692812Y-63967190D01*
X139807906Y-64053350D01*
X139807913Y-64053354D01*
X139942620Y-64103596D01*
X139942627Y-64103598D01*
X140002155Y-64109999D01*
X140002172Y-64110000D01*
X140700000Y-64110000D01*
X140700000Y-63085277D01*
X140776306Y-63129333D01*
X140890756Y-63160000D01*
X141009244Y-63160000D01*
X141123694Y-63129333D01*
X141200000Y-63085277D01*
X141200000Y-64110000D01*
X141897828Y-64110000D01*
X141897844Y-64109999D01*
X141957372Y-64103598D01*
X141957379Y-64103596D01*
X142092086Y-64053354D01*
X142092093Y-64053350D01*
X142207187Y-63967190D01*
X142207190Y-63967187D01*
X142293350Y-63852093D01*
X142293354Y-63852086D01*
X142343596Y-63717379D01*
X142343598Y-63717372D01*
X142349999Y-63657844D01*
X144745000Y-63657844D01*
X144751401Y-63717372D01*
X144751403Y-63717379D01*
X144801645Y-63852086D01*
X144801649Y-63852093D01*
X144887809Y-63967187D01*
X144887812Y-63967190D01*
X145002906Y-64053350D01*
X145002913Y-64053354D01*
X145137620Y-64103596D01*
X145137627Y-64103598D01*
X145197155Y-64109999D01*
X145197172Y-64110000D01*
X145895000Y-64110000D01*
X145895000Y-63085277D01*
X145971306Y-63129333D01*
X146085756Y-63160000D01*
X146204244Y-63160000D01*
X146318694Y-63129333D01*
X146395000Y-63085277D01*
X146395000Y-64110000D01*
X147092828Y-64110000D01*
X147092844Y-64109999D01*
X147152372Y-64103598D01*
X147152379Y-64103596D01*
X147287086Y-64053354D01*
X147287093Y-64053350D01*
X147402187Y-63967190D01*
X147402190Y-63967187D01*
X147488350Y-63852093D01*
X147488355Y-63852084D01*
X147513940Y-63783486D01*
X147555810Y-63727552D01*
X147621274Y-63703134D01*
X147689547Y-63717985D01*
X147721349Y-63742832D01*
X147727780Y-63749818D01*
X147911983Y-63893190D01*
X147911985Y-63893191D01*
X147911988Y-63893193D01*
X147948945Y-63913193D01*
X148117273Y-64004287D01*
X148231914Y-64043643D01*
X148338045Y-64080079D01*
X148338047Y-64080079D01*
X148338049Y-64080080D01*
X148568288Y-64118500D01*
X148568289Y-64118500D01*
X148801711Y-64118500D01*
X148801712Y-64118500D01*
X149031951Y-64080080D01*
X149252727Y-64004287D01*
X149458017Y-63893190D01*
X149642220Y-63749818D01*
X149680860Y-63707844D01*
X152195000Y-63707844D01*
X152201401Y-63767372D01*
X152201403Y-63767379D01*
X152251645Y-63902086D01*
X152251649Y-63902093D01*
X152337809Y-64017187D01*
X152337812Y-64017190D01*
X152452906Y-64103350D01*
X152452913Y-64103354D01*
X152587620Y-64153596D01*
X152587627Y-64153598D01*
X152647155Y-64159999D01*
X152647172Y-64160000D01*
X153345000Y-64160000D01*
X153345000Y-63135277D01*
X153421306Y-63179333D01*
X153535756Y-63210000D01*
X153654244Y-63210000D01*
X153768694Y-63179333D01*
X153845000Y-63135277D01*
X153845000Y-64160000D01*
X154542828Y-64160000D01*
X154542844Y-64159999D01*
X154602372Y-64153598D01*
X154602379Y-64153596D01*
X154737086Y-64103354D01*
X154737093Y-64103350D01*
X154852187Y-64017190D01*
X154852190Y-64017187D01*
X154938350Y-63902093D01*
X154938355Y-63902084D01*
X154963940Y-63833486D01*
X155005810Y-63777552D01*
X155071274Y-63753134D01*
X155139547Y-63767985D01*
X155171349Y-63792832D01*
X155177780Y-63799818D01*
X155361983Y-63943190D01*
X155361985Y-63943191D01*
X155361988Y-63943193D01*
X155443288Y-63987190D01*
X155567273Y-64054287D01*
X155648269Y-64082093D01*
X155788045Y-64130079D01*
X155788047Y-64130079D01*
X155788049Y-64130080D01*
X156018288Y-64168500D01*
X156018289Y-64168500D01*
X156251711Y-64168500D01*
X156251712Y-64168500D01*
X156481951Y-64130080D01*
X156702727Y-64054287D01*
X156908017Y-63943190D01*
X157092220Y-63799818D01*
X157242680Y-63636376D01*
X157253788Y-63624310D01*
X157255439Y-63625830D01*
X157304471Y-63590532D01*
X157345634Y-63583500D01*
X160716658Y-63583500D01*
X160783697Y-63603185D01*
X160818231Y-63636374D01*
X160893802Y-63744300D01*
X161055700Y-63906198D01*
X161243251Y-64037523D01*
X161350389Y-64087482D01*
X161450750Y-64134281D01*
X161450752Y-64134281D01*
X161450757Y-64134284D01*
X161671913Y-64193543D01*
X161834832Y-64207796D01*
X161899998Y-64213498D01*
X161900000Y-64213498D01*
X161900002Y-64213498D01*
X161957021Y-64208509D01*
X162128087Y-64193543D01*
X162349243Y-64134284D01*
X162556749Y-64037523D01*
X162744300Y-63906198D01*
X162906198Y-63744300D01*
X163037523Y-63556749D01*
X163134284Y-63349243D01*
X163193543Y-63128087D01*
X163213498Y-62900000D01*
X163212071Y-62883694D01*
X163202058Y-62769244D01*
X163193543Y-62671913D01*
X163134284Y-62450757D01*
X163126327Y-62433694D01*
X163087259Y-62349910D01*
X163037523Y-62243251D01*
X162906198Y-62055700D01*
X162744300Y-61893802D01*
X162556749Y-61762477D01*
X162556095Y-61762172D01*
X162349249Y-61665718D01*
X162349238Y-61665714D01*
X162128089Y-61606457D01*
X162128081Y-61606456D01*
X161900002Y-61586502D01*
X161899998Y-61586502D01*
X161671918Y-61606456D01*
X161671910Y-61606457D01*
X161450761Y-61665714D01*
X161450750Y-61665718D01*
X161243254Y-61762475D01*
X161243252Y-61762476D01*
X161172856Y-61811767D01*
X161055700Y-61893802D01*
X161055698Y-61893803D01*
X161055695Y-61893806D01*
X160893802Y-62055699D01*
X160868276Y-62092155D01*
X160818231Y-62163625D01*
X160763656Y-62207248D01*
X160716658Y-62216500D01*
X157515656Y-62216500D01*
X157448617Y-62196815D01*
X157402862Y-62144011D01*
X157402100Y-62142310D01*
X157377984Y-62087331D01*
X157250313Y-61891915D01*
X157092223Y-61720185D01*
X157092222Y-61720184D01*
X157092220Y-61720182D01*
X156908017Y-61576810D01*
X156908015Y-61576809D01*
X156908014Y-61576808D01*
X156908011Y-61576806D01*
X156702733Y-61465716D01*
X156702730Y-61465715D01*
X156702727Y-61465713D01*
X156702721Y-61465711D01*
X156702719Y-61465710D01*
X156481954Y-61389920D01*
X156302650Y-61360000D01*
X156251712Y-61351500D01*
X156018288Y-61351500D01*
X155972240Y-61359184D01*
X155788045Y-61389920D01*
X155567280Y-61465710D01*
X155567266Y-61465716D01*
X155361988Y-61576806D01*
X155361985Y-61576808D01*
X155177781Y-61720181D01*
X155177776Y-61720185D01*
X155171346Y-61727170D01*
X155111457Y-61763157D01*
X155041619Y-61761052D01*
X154984005Y-61721524D01*
X154963940Y-61686513D01*
X154938355Y-61617915D01*
X154938350Y-61617906D01*
X154852190Y-61502812D01*
X154852187Y-61502809D01*
X154737093Y-61416649D01*
X154737086Y-61416645D01*
X154602379Y-61366403D01*
X154602372Y-61366401D01*
X154542844Y-61360000D01*
X153845000Y-61360000D01*
X153845000Y-62384722D01*
X153768694Y-62340667D01*
X153654244Y-62310000D01*
X153535756Y-62310000D01*
X153421306Y-62340667D01*
X153345000Y-62384722D01*
X153345000Y-61360000D01*
X152647155Y-61360000D01*
X152587627Y-61366401D01*
X152587620Y-61366403D01*
X152452913Y-61416645D01*
X152452906Y-61416649D01*
X152337812Y-61502809D01*
X152337809Y-61502812D01*
X152251649Y-61617906D01*
X152251645Y-61617913D01*
X152201403Y-61752620D01*
X152201401Y-61752627D01*
X152195000Y-61812155D01*
X152195000Y-62510000D01*
X153219722Y-62510000D01*
X153175667Y-62586306D01*
X153145000Y-62700756D01*
X153145000Y-62819244D01*
X153175667Y-62933694D01*
X153219722Y-63010000D01*
X152195000Y-63010000D01*
X152195000Y-63707844D01*
X149680860Y-63707844D01*
X149800314Y-63578083D01*
X149927984Y-63382669D01*
X150021749Y-63168907D01*
X150079051Y-62942626D01*
X150089275Y-62819244D01*
X150098327Y-62710005D01*
X150098327Y-62709994D01*
X150079052Y-62477382D01*
X150079049Y-62477365D01*
X150072309Y-62450750D01*
X150056982Y-62390227D01*
X150059606Y-62320410D01*
X150089504Y-62272109D01*
X155961796Y-56399819D01*
X156023119Y-56366334D01*
X156049477Y-56363500D01*
X156886658Y-56363500D01*
X156953697Y-56383185D01*
X156988231Y-56416374D01*
X157063802Y-56524300D01*
X157225700Y-56686198D01*
X157413251Y-56817523D01*
X157508131Y-56861766D01*
X157620750Y-56914281D01*
X157620752Y-56914281D01*
X157620757Y-56914284D01*
X157841913Y-56973543D01*
X158004832Y-56987796D01*
X158069998Y-56993498D01*
X158070000Y-56993498D01*
X158070002Y-56993498D01*
X158127021Y-56988509D01*
X158298087Y-56973543D01*
X158519243Y-56914284D01*
X158726749Y-56817523D01*
X158914300Y-56686198D01*
X159076198Y-56524300D01*
X159207523Y-56336749D01*
X159304284Y-56129243D01*
X159363543Y-55908087D01*
X159383498Y-55680000D01*
X159363543Y-55451913D01*
X159304284Y-55230757D01*
X159207523Y-55023251D01*
X159076198Y-54835700D01*
X158914300Y-54673802D01*
X158726749Y-54542477D01*
X158726745Y-54542475D01*
X158519249Y-54445718D01*
X158519238Y-54445714D01*
X158298089Y-54386457D01*
X158298081Y-54386456D01*
X158070002Y-54366502D01*
X158069998Y-54366502D01*
X157841918Y-54386456D01*
X157841910Y-54386457D01*
X157620761Y-54445714D01*
X157620750Y-54445718D01*
X157413254Y-54542475D01*
X157413252Y-54542476D01*
X157413251Y-54542477D01*
X157225700Y-54673802D01*
X157225698Y-54673803D01*
X157225695Y-54673806D01*
X157063802Y-54835699D01*
X157023714Y-54892950D01*
X156988231Y-54943625D01*
X156933656Y-54987248D01*
X156886658Y-54996500D01*
X155647676Y-54996500D01*
X155515637Y-55022764D01*
X155515629Y-55022766D01*
X155434190Y-55056500D01*
X155434189Y-55056500D01*
X155391247Y-55074286D01*
X155391240Y-55074290D01*
X155377828Y-55083252D01*
X155317966Y-55123251D01*
X155317965Y-55123251D01*
X155279298Y-55149087D01*
X155279290Y-55149093D01*
X149125516Y-61302867D01*
X149064193Y-61336352D01*
X149017426Y-61337495D01*
X148801712Y-61301500D01*
X148568288Y-61301500D01*
X148522240Y-61309184D01*
X148338045Y-61339920D01*
X148117280Y-61415710D01*
X148117266Y-61415716D01*
X147911988Y-61526806D01*
X147911985Y-61526808D01*
X147727781Y-61670181D01*
X147727776Y-61670185D01*
X147721346Y-61677170D01*
X147661457Y-61713157D01*
X147591619Y-61711052D01*
X147534005Y-61671524D01*
X147513940Y-61636513D01*
X147488355Y-61567915D01*
X147488350Y-61567906D01*
X147402190Y-61452812D01*
X147402187Y-61452809D01*
X147287093Y-61366649D01*
X147287086Y-61366645D01*
X147152379Y-61316403D01*
X147152372Y-61316401D01*
X147092844Y-61310000D01*
X146395000Y-61310000D01*
X146395000Y-62334722D01*
X146318694Y-62290667D01*
X146204244Y-62260000D01*
X146085756Y-62260000D01*
X145971306Y-62290667D01*
X145895000Y-62334722D01*
X145895000Y-61310000D01*
X145197155Y-61310000D01*
X145137627Y-61316401D01*
X145137620Y-61316403D01*
X145002913Y-61366645D01*
X145002906Y-61366649D01*
X144887812Y-61452809D01*
X144887809Y-61452812D01*
X144801649Y-61567906D01*
X144801645Y-61567913D01*
X144751403Y-61702620D01*
X144751401Y-61702627D01*
X144745000Y-61762155D01*
X144745000Y-62460000D01*
X145769722Y-62460000D01*
X145725667Y-62536306D01*
X145695000Y-62650756D01*
X145695000Y-62769244D01*
X145725667Y-62883694D01*
X145769722Y-62960000D01*
X144745000Y-62960000D01*
X144745000Y-63657844D01*
X142349999Y-63657844D01*
X142350000Y-63657827D01*
X142350000Y-62960000D01*
X141325278Y-62960000D01*
X141369333Y-62883694D01*
X141400000Y-62769244D01*
X141400000Y-62650756D01*
X141369333Y-62536306D01*
X141325278Y-62460000D01*
X142350000Y-62460000D01*
X142350000Y-61762172D01*
X142349999Y-61762155D01*
X142343598Y-61702627D01*
X142343596Y-61702620D01*
X142293354Y-61567913D01*
X142293350Y-61567906D01*
X142207190Y-61452812D01*
X142207187Y-61452809D01*
X142092093Y-61366649D01*
X142092086Y-61366645D01*
X141957379Y-61316403D01*
X141957372Y-61316401D01*
X141897844Y-61310000D01*
X141200000Y-61310000D01*
X141200000Y-62334722D01*
X141123694Y-62290667D01*
X141009244Y-62260000D01*
X140890756Y-62260000D01*
X140776306Y-62290667D01*
X140700000Y-62334722D01*
X140700000Y-61310000D01*
X140002155Y-61310000D01*
X139942627Y-61316401D01*
X139942620Y-61316403D01*
X139807913Y-61366645D01*
X139807906Y-61366649D01*
X139692812Y-61452809D01*
X139692809Y-61452812D01*
X139606649Y-61567906D01*
X139606645Y-61567913D01*
X139581059Y-61636514D01*
X139539188Y-61692448D01*
X139473723Y-61716865D01*
X139405450Y-61702013D01*
X139373649Y-61677165D01*
X139367224Y-61670186D01*
X139367222Y-61670184D01*
X139367220Y-61670182D01*
X139235817Y-61567906D01*
X139183020Y-61526812D01*
X139183015Y-61526809D01*
X139183009Y-61526806D01*
X139179376Y-61524839D01*
X139158479Y-61513530D01*
X139108890Y-61464309D01*
X139093500Y-61404477D01*
X139093500Y-59652680D01*
X139093499Y-59652679D01*
X139076873Y-59569091D01*
X139067234Y-59520631D01*
X139027724Y-59425245D01*
X139023971Y-59416184D01*
X139015711Y-59396242D01*
X138940910Y-59284295D01*
X138922757Y-59266142D01*
X138845706Y-59189091D01*
X135753278Y-56096663D01*
X135719793Y-56035340D01*
X135721186Y-55976883D01*
X135723542Y-55968091D01*
X135723542Y-55968089D01*
X135723543Y-55968087D01*
X135743498Y-55740000D01*
X135723543Y-55511913D01*
X135664284Y-55290757D01*
X135636302Y-55230750D01*
X135598224Y-55149091D01*
X135567523Y-55083251D01*
X135436198Y-54895700D01*
X135274300Y-54733802D01*
X135086749Y-54602477D01*
X135086745Y-54602475D01*
X134879249Y-54505718D01*
X134879238Y-54505714D01*
X134658089Y-54446457D01*
X134658081Y-54446456D01*
X134430002Y-54426502D01*
X134429998Y-54426502D01*
X134201918Y-54446456D01*
X134201910Y-54446457D01*
X133980761Y-54505714D01*
X133980750Y-54505718D01*
X133773254Y-54602475D01*
X133773252Y-54602476D01*
X133730408Y-54632476D01*
X133585700Y-54733802D01*
X133585698Y-54733803D01*
X133585695Y-54733806D01*
X133423806Y-54895695D01*
X133423803Y-54895698D01*
X133423802Y-54895700D01*
X133402796Y-54925700D01*
X133292476Y-55083252D01*
X133292475Y-55083254D01*
X133195718Y-55290750D01*
X133195714Y-55290761D01*
X133136457Y-55511910D01*
X133136456Y-55511918D01*
X133116502Y-55739998D01*
X133116502Y-55740001D01*
X131719998Y-55740001D01*
X131719998Y-55740000D01*
X131703543Y-55551918D01*
X131703543Y-55551913D01*
X131701184Y-55543109D01*
X131702847Y-55473259D01*
X131733276Y-55423337D01*
X133966796Y-53189819D01*
X134028119Y-53156334D01*
X134054477Y-53153500D01*
X141857320Y-53153500D01*
X141857321Y-53153499D01*
X141989369Y-53127234D01*
X142062235Y-53097051D01*
X142113759Y-53075710D01*
X142225706Y-53000909D01*
X142320909Y-52905706D01*
X144642199Y-50584414D01*
X144703520Y-50550931D01*
X144753065Y-50551372D01*
X144753088Y-50551160D01*
X144755245Y-50551391D01*
X144758392Y-50551420D01*
X144760795Y-50551987D01*
X144760799Y-50551989D01*
X144773286Y-50553331D01*
X144821345Y-50558499D01*
X144821362Y-50558500D01*
X145635523Y-50558500D01*
X145702562Y-50578185D01*
X145748317Y-50630989D01*
X145758261Y-50700147D01*
X145729236Y-50763703D01*
X145723204Y-50770181D01*
X144154294Y-52339091D01*
X144120270Y-52373115D01*
X144059089Y-52434295D01*
X143983605Y-52547264D01*
X143981958Y-52551871D01*
X143932766Y-52670630D01*
X143932764Y-52670638D01*
X143908275Y-52793756D01*
X143908274Y-52793761D01*
X143906500Y-52802677D01*
X143906500Y-54556657D01*
X143886815Y-54623696D01*
X143853624Y-54658231D01*
X143745707Y-54733796D01*
X143745696Y-54733805D01*
X143583806Y-54895695D01*
X143583803Y-54895698D01*
X143583802Y-54895700D01*
X143562796Y-54925700D01*
X143452476Y-55083252D01*
X143452475Y-55083254D01*
X143355718Y-55290750D01*
X143355714Y-55290761D01*
X143296457Y-55511910D01*
X143296456Y-55511918D01*
X143276502Y-55739998D01*
X143276502Y-55740001D01*
X143296456Y-55968081D01*
X143296457Y-55968089D01*
X143355714Y-56189238D01*
X143355718Y-56189249D01*
X143436973Y-56363500D01*
X143452477Y-56396749D01*
X143583802Y-56584300D01*
X143745700Y-56746198D01*
X143933251Y-56877523D01*
X144012086Y-56914284D01*
X144140750Y-56974281D01*
X144140752Y-56974281D01*
X144140757Y-56974284D01*
X144361913Y-57033543D01*
X144524832Y-57047796D01*
X144589998Y-57053498D01*
X144590000Y-57053498D01*
X144590002Y-57053498D01*
X144647021Y-57048509D01*
X144818087Y-57033543D01*
X145039243Y-56974284D01*
X145246749Y-56877523D01*
X145434300Y-56746198D01*
X145596198Y-56584300D01*
X145727523Y-56396749D01*
X145824284Y-56189243D01*
X145883543Y-55968087D01*
X145903498Y-55740000D01*
X145883543Y-55511913D01*
X145824284Y-55290757D01*
X145796302Y-55230750D01*
X145758224Y-55149091D01*
X145727523Y-55083251D01*
X145596198Y-54895700D01*
X145434300Y-54733802D01*
X145434295Y-54733798D01*
X145434292Y-54733796D01*
X145326376Y-54658231D01*
X145282751Y-54603654D01*
X145273500Y-54556657D01*
X145273500Y-53204476D01*
X145293185Y-53137437D01*
X145309814Y-53116800D01*
X147862926Y-50563687D01*
X147924247Y-50530204D01*
X147971011Y-50529061D01*
X148147431Y-50558500D01*
X148147432Y-50558500D01*
X148175522Y-50558500D01*
X148242561Y-50578185D01*
X148288316Y-50630989D01*
X148298260Y-50700147D01*
X148269235Y-50763703D01*
X148263203Y-50770181D01*
X147474294Y-51559091D01*
X147430910Y-51602475D01*
X147379089Y-51654295D01*
X147303605Y-51767264D01*
X147301958Y-51771871D01*
X147252764Y-51890633D01*
X147251756Y-51895706D01*
X147226500Y-52022676D01*
X147226500Y-54496657D01*
X147206815Y-54563696D01*
X147173624Y-54598231D01*
X147065707Y-54673796D01*
X147065696Y-54673805D01*
X146903806Y-54835695D01*
X146903803Y-54835698D01*
X146903802Y-54835700D01*
X146840787Y-54925695D01*
X146772476Y-55023252D01*
X146772475Y-55023254D01*
X146675718Y-55230750D01*
X146675714Y-55230761D01*
X146616457Y-55451910D01*
X146616456Y-55451918D01*
X146596502Y-55679998D01*
X146596502Y-55680001D01*
X146616456Y-55908081D01*
X146616457Y-55908089D01*
X146675714Y-56129238D01*
X146675718Y-56129249D01*
X146717681Y-56219238D01*
X146772477Y-56336749D01*
X146903802Y-56524300D01*
X147065700Y-56686198D01*
X147253251Y-56817523D01*
X147348131Y-56861766D01*
X147460750Y-56914281D01*
X147460752Y-56914281D01*
X147460757Y-56914284D01*
X147681913Y-56973543D01*
X147844832Y-56987796D01*
X147909998Y-56993498D01*
X147910000Y-56993498D01*
X147910002Y-56993498D01*
X147967021Y-56988509D01*
X148138087Y-56973543D01*
X148359243Y-56914284D01*
X148566749Y-56817523D01*
X148754300Y-56686198D01*
X148916198Y-56524300D01*
X149047523Y-56336749D01*
X149144284Y-56129243D01*
X149203543Y-55908087D01*
X149223498Y-55680000D01*
X149203543Y-55451913D01*
X149144284Y-55230757D01*
X149047523Y-55023251D01*
X148916198Y-54835700D01*
X148754300Y-54673802D01*
X148754295Y-54673798D01*
X148754292Y-54673796D01*
X148646376Y-54598231D01*
X148602751Y-54543654D01*
X148593500Y-54496657D01*
X148593500Y-52424476D01*
X148613185Y-52357437D01*
X148629814Y-52336800D01*
X150402926Y-50563687D01*
X150464247Y-50530204D01*
X150511011Y-50529061D01*
X150687431Y-50558500D01*
X150687432Y-50558500D01*
X150912569Y-50558500D01*
X151134635Y-50521444D01*
X151347574Y-50448342D01*
X151545576Y-50341189D01*
X151723240Y-50202906D01*
X151844594Y-50071082D01*
X151875715Y-50037276D01*
X151875715Y-50037275D01*
X151875722Y-50037268D01*
X151966193Y-49898790D01*
X152019338Y-49853437D01*
X152088569Y-49844013D01*
X152151905Y-49873515D01*
X152173804Y-49898787D01*
X152264278Y-50037268D01*
X152264283Y-50037273D01*
X152264284Y-50037276D01*
X152416756Y-50202902D01*
X152416760Y-50202906D01*
X152594424Y-50341189D01*
X152594425Y-50341189D01*
X152594427Y-50341191D01*
X152721135Y-50409761D01*
X152792426Y-50448342D01*
X153005365Y-50521444D01*
X153227431Y-50558500D01*
X153452568Y-50558500D01*
X153452569Y-50558500D01*
X153628986Y-50529061D01*
X153698348Y-50537443D01*
X153737074Y-50563689D01*
X156349091Y-53175706D01*
X156444294Y-53270909D01*
X156556241Y-53345710D01*
X156607763Y-53367050D01*
X156607764Y-53367051D01*
X156607765Y-53367051D01*
X156680631Y-53397234D01*
X156812676Y-53423499D01*
X156812680Y-53423500D01*
X156812681Y-53423500D01*
X160716658Y-53423500D01*
X160783697Y-53443185D01*
X160818231Y-53476374D01*
X160893802Y-53584300D01*
X161055700Y-53746198D01*
X161243251Y-53877523D01*
X161368091Y-53935736D01*
X161450750Y-53974281D01*
X161450752Y-53974281D01*
X161450757Y-53974284D01*
X161671913Y-54033543D01*
X161834832Y-54047796D01*
X161899998Y-54053498D01*
X161900000Y-54053498D01*
X161900002Y-54053498D01*
X161957021Y-54048509D01*
X162128087Y-54033543D01*
X162349243Y-53974284D01*
X162556749Y-53877523D01*
X162744300Y-53746198D01*
X162906198Y-53584300D01*
X163037523Y-53396749D01*
X163134284Y-53189243D01*
X163193543Y-52968087D01*
X163213498Y-52740000D01*
X163193543Y-52511913D01*
X163134284Y-52290757D01*
X163037523Y-52083251D01*
X162906198Y-51895700D01*
X162744300Y-51733802D01*
X162556749Y-51602477D01*
X162556745Y-51602475D01*
X162349249Y-51505718D01*
X162349238Y-51505714D01*
X162128089Y-51446457D01*
X162128081Y-51446456D01*
X161900002Y-51426502D01*
X161899998Y-51426502D01*
X161671918Y-51446456D01*
X161671910Y-51446457D01*
X161450761Y-51505714D01*
X161450750Y-51505718D01*
X161243254Y-51602475D01*
X161243252Y-51602476D01*
X161243251Y-51602477D01*
X161055700Y-51733802D01*
X161055698Y-51733803D01*
X161055695Y-51733806D01*
X160893802Y-51895699D01*
X160863420Y-51939090D01*
X160818231Y-52003625D01*
X160763656Y-52047248D01*
X160716658Y-52056500D01*
X157214477Y-52056500D01*
X157147438Y-52036815D01*
X157126796Y-52020181D01*
X155876796Y-50770181D01*
X155843311Y-50708858D01*
X155848295Y-50639166D01*
X155890167Y-50583233D01*
X155955631Y-50558816D01*
X155964477Y-50558500D01*
X155992569Y-50558500D01*
X156214635Y-50521444D01*
X156427574Y-50448342D01*
X156625576Y-50341189D01*
X156803240Y-50202906D01*
X156924594Y-50071082D01*
X156955715Y-50037276D01*
X156955715Y-50037275D01*
X156955722Y-50037268D01*
X157046193Y-49898790D01*
X157099338Y-49853437D01*
X157168569Y-49844013D01*
X157231905Y-49873515D01*
X157253804Y-49898787D01*
X157344278Y-50037268D01*
X157344283Y-50037273D01*
X157344284Y-50037276D01*
X157496756Y-50202902D01*
X157496760Y-50202906D01*
X157674424Y-50341189D01*
X157674425Y-50341189D01*
X157674427Y-50341191D01*
X157801135Y-50409761D01*
X157872426Y-50448342D01*
X158085365Y-50521444D01*
X158307431Y-50558500D01*
X158532569Y-50558500D01*
X158754635Y-50521444D01*
X158967574Y-50448342D01*
X159165576Y-50341189D01*
X159343240Y-50202906D01*
X159464594Y-50071082D01*
X159495715Y-50037276D01*
X159495715Y-50037275D01*
X159495722Y-50037268D01*
X159586193Y-49898790D01*
X159639338Y-49853437D01*
X159708569Y-49844013D01*
X159771905Y-49873515D01*
X159793804Y-49898787D01*
X159884278Y-50037268D01*
X159884283Y-50037273D01*
X159884284Y-50037276D01*
X160036756Y-50202902D01*
X160036760Y-50202906D01*
X160214424Y-50341189D01*
X160214425Y-50341189D01*
X160214427Y-50341191D01*
X160341135Y-50409761D01*
X160412426Y-50448342D01*
X160625365Y-50521444D01*
X160847431Y-50558500D01*
X161072569Y-50558500D01*
X161294635Y-50521444D01*
X161507574Y-50448342D01*
X161705576Y-50341189D01*
X161883240Y-50202906D01*
X162004594Y-50071082D01*
X162035715Y-50037276D01*
X162035715Y-50037275D01*
X162035722Y-50037268D01*
X162126193Y-49898790D01*
X162179338Y-49853437D01*
X162248569Y-49844013D01*
X162311905Y-49873515D01*
X162333804Y-49898787D01*
X162424278Y-50037268D01*
X162424283Y-50037273D01*
X162424284Y-50037276D01*
X162576756Y-50202902D01*
X162576760Y-50202906D01*
X162754424Y-50341189D01*
X162754425Y-50341189D01*
X162754427Y-50341191D01*
X162881135Y-50409761D01*
X162952426Y-50448342D01*
X163165365Y-50521444D01*
X163387431Y-50558500D01*
X163612569Y-50558500D01*
X163834635Y-50521444D01*
X164047574Y-50448342D01*
X164245576Y-50341189D01*
X164423240Y-50202906D01*
X164544594Y-50071082D01*
X164575715Y-50037276D01*
X164575717Y-50037273D01*
X164575722Y-50037268D01*
X164698860Y-49848791D01*
X164789296Y-49642616D01*
X164844564Y-49424368D01*
X164850071Y-49357913D01*
X164863156Y-49200005D01*
X164863156Y-49199994D01*
X164844565Y-48975640D01*
X164844563Y-48975628D01*
X164789296Y-48757385D01*
X164779071Y-48734075D01*
X164698860Y-48551209D01*
X164682706Y-48526484D01*
X164575723Y-48362734D01*
X164575715Y-48362723D01*
X164423243Y-48197097D01*
X164423238Y-48197092D01*
X164245577Y-48058812D01*
X164245572Y-48058808D01*
X164047580Y-47951661D01*
X164047577Y-47951659D01*
X164047574Y-47951658D01*
X164047571Y-47951657D01*
X164047569Y-47951656D01*
X163834637Y-47878556D01*
X163612569Y-47841500D01*
X163387431Y-47841500D01*
X163165362Y-47878556D01*
X162952430Y-47951656D01*
X162952419Y-47951661D01*
X162754427Y-48058808D01*
X162754422Y-48058812D01*
X162576761Y-48197092D01*
X162576756Y-48197097D01*
X162424284Y-48362723D01*
X162424276Y-48362734D01*
X162333808Y-48501206D01*
X162280662Y-48546562D01*
X162211431Y-48555986D01*
X162148095Y-48526484D01*
X162126192Y-48501206D01*
X162035723Y-48362734D01*
X162035715Y-48362723D01*
X161883243Y-48197097D01*
X161883238Y-48197092D01*
X161705577Y-48058812D01*
X161705572Y-48058808D01*
X161507580Y-47951661D01*
X161507577Y-47951659D01*
X161507574Y-47951658D01*
X161507571Y-47951657D01*
X161507569Y-47951656D01*
X161294637Y-47878556D01*
X161072569Y-47841500D01*
X160847431Y-47841500D01*
X160625362Y-47878556D01*
X160412430Y-47951656D01*
X160412419Y-47951661D01*
X160214427Y-48058808D01*
X160214422Y-48058812D01*
X160036761Y-48197092D01*
X160036756Y-48197097D01*
X159884284Y-48362723D01*
X159884276Y-48362734D01*
X159793808Y-48501206D01*
X159740662Y-48546562D01*
X159671431Y-48555986D01*
X159608095Y-48526484D01*
X159586192Y-48501206D01*
X159495723Y-48362734D01*
X159495715Y-48362723D01*
X159343243Y-48197097D01*
X159343238Y-48197092D01*
X159165577Y-48058812D01*
X159165572Y-48058808D01*
X158967580Y-47951661D01*
X158967577Y-47951659D01*
X158967574Y-47951658D01*
X158967571Y-47951657D01*
X158967569Y-47951656D01*
X158754637Y-47878556D01*
X158532569Y-47841500D01*
X158307431Y-47841500D01*
X158085362Y-47878556D01*
X157872430Y-47951656D01*
X157872419Y-47951661D01*
X157674427Y-48058808D01*
X157674422Y-48058812D01*
X157496761Y-48197092D01*
X157496756Y-48197097D01*
X157344284Y-48362723D01*
X157344276Y-48362734D01*
X157253808Y-48501206D01*
X157200662Y-48546562D01*
X157131431Y-48555986D01*
X157068095Y-48526484D01*
X157046192Y-48501206D01*
X156955723Y-48362734D01*
X156955715Y-48362723D01*
X156803243Y-48197097D01*
X156803238Y-48197092D01*
X156625577Y-48058812D01*
X156625572Y-48058808D01*
X156427580Y-47951661D01*
X156427577Y-47951659D01*
X156427574Y-47951658D01*
X156427571Y-47951657D01*
X156427569Y-47951656D01*
X156214637Y-47878556D01*
X155992569Y-47841500D01*
X155767431Y-47841500D01*
X155545362Y-47878556D01*
X155332430Y-47951656D01*
X155332419Y-47951661D01*
X155134427Y-48058808D01*
X155134422Y-48058812D01*
X154956761Y-48197092D01*
X154956756Y-48197097D01*
X154804284Y-48362723D01*
X154804276Y-48362734D01*
X154713808Y-48501206D01*
X154660662Y-48546562D01*
X154591431Y-48555986D01*
X154528095Y-48526484D01*
X154506192Y-48501206D01*
X154415723Y-48362734D01*
X154415715Y-48362723D01*
X154263243Y-48197097D01*
X154263238Y-48197092D01*
X154085577Y-48058812D01*
X154085572Y-48058808D01*
X153887580Y-47951661D01*
X153887577Y-47951659D01*
X153887574Y-47951658D01*
X153887571Y-47951657D01*
X153887569Y-47951656D01*
X153674637Y-47878556D01*
X153452569Y-47841500D01*
X153227431Y-47841500D01*
X153005362Y-47878556D01*
X152792430Y-47951656D01*
X152792419Y-47951661D01*
X152594427Y-48058808D01*
X152594422Y-48058812D01*
X152416761Y-48197092D01*
X152416756Y-48197097D01*
X152264284Y-48362723D01*
X152264276Y-48362734D01*
X152173808Y-48501206D01*
X152120662Y-48546562D01*
X152051431Y-48555986D01*
X151988095Y-48526484D01*
X151966192Y-48501206D01*
X151875723Y-48362734D01*
X151875715Y-48362723D01*
X151723243Y-48197097D01*
X151723238Y-48197092D01*
X151545577Y-48058812D01*
X151545572Y-48058808D01*
X151347580Y-47951661D01*
X151347577Y-47951659D01*
X151347574Y-47951658D01*
X151347571Y-47951657D01*
X151347569Y-47951656D01*
X151134637Y-47878556D01*
X150912569Y-47841500D01*
X150687431Y-47841500D01*
X150465362Y-47878556D01*
X150252430Y-47951656D01*
X150252419Y-47951661D01*
X150054427Y-48058808D01*
X150054422Y-48058812D01*
X149876761Y-48197092D01*
X149876756Y-48197097D01*
X149724284Y-48362723D01*
X149724276Y-48362734D01*
X149633808Y-48501206D01*
X149580662Y-48546562D01*
X149511431Y-48555986D01*
X149448095Y-48526484D01*
X149426192Y-48501206D01*
X149335723Y-48362734D01*
X149335715Y-48362723D01*
X149183243Y-48197097D01*
X149183238Y-48197092D01*
X149005577Y-48058812D01*
X149005572Y-48058808D01*
X148807580Y-47951661D01*
X148807577Y-47951659D01*
X148807574Y-47951658D01*
X148807571Y-47951657D01*
X148807569Y-47951656D01*
X148594637Y-47878556D01*
X148372569Y-47841500D01*
X148147431Y-47841500D01*
X147925362Y-47878556D01*
X147712430Y-47951656D01*
X147712419Y-47951661D01*
X147514427Y-48058808D01*
X147514422Y-48058812D01*
X147336761Y-48197092D01*
X147273548Y-48265760D01*
X147213661Y-48301750D01*
X147143823Y-48299649D01*
X147086207Y-48260124D01*
X147066138Y-48225110D01*
X147020889Y-48103796D01*
X146987214Y-48058812D01*
X146933261Y-47986739D01*
X146816204Y-47899111D01*
X146679203Y-47848011D01*
X146618654Y-47841500D01*
X146618638Y-47841500D01*
X144821362Y-47841500D01*
X144821345Y-47841500D01*
X144760797Y-47848011D01*
X144760795Y-47848011D01*
X144623795Y-47899111D01*
X144506739Y-47986739D01*
X144419111Y-48103795D01*
X144368011Y-48240795D01*
X144368011Y-48240797D01*
X144361500Y-48301345D01*
X144361500Y-48880523D01*
X144341815Y-48947562D01*
X144325181Y-48968204D01*
X141543204Y-51750181D01*
X141481881Y-51783666D01*
X141455523Y-51786500D01*
X133652676Y-51786500D01*
X133520638Y-51812764D01*
X133520626Y-51812767D01*
X133447764Y-51842947D01*
X133447765Y-51842948D01*
X133396242Y-51864289D01*
X133349233Y-51895700D01*
X133284293Y-51939090D01*
X130766662Y-54456721D01*
X130705339Y-54490206D01*
X130646891Y-54488816D01*
X130638087Y-54486457D01*
X130523775Y-54476456D01*
X130410002Y-54466502D01*
X130409998Y-54466502D01*
X130181918Y-54486456D01*
X130181910Y-54486457D01*
X129960761Y-54545714D01*
X129960750Y-54545718D01*
X129753254Y-54642475D01*
X129753252Y-54642476D01*
X129753251Y-54642477D01*
X129565700Y-54773802D01*
X129565698Y-54773803D01*
X129565695Y-54773806D01*
X129403806Y-54935695D01*
X129403803Y-54935698D01*
X129403802Y-54935700D01*
X129342496Y-55023254D01*
X129272477Y-55123251D01*
X129175718Y-55330750D01*
X129175714Y-55330761D01*
X129116457Y-55551910D01*
X129116456Y-55551918D01*
X129096502Y-55779998D01*
X129096502Y-55780001D01*
X129116456Y-56008081D01*
X129116457Y-56008089D01*
X129175714Y-56229238D01*
X129175718Y-56229249D01*
X129239642Y-56366334D01*
X129272477Y-56436749D01*
X129403802Y-56624300D01*
X129565700Y-56786198D01*
X129673623Y-56861766D01*
X129717248Y-56916342D01*
X129726500Y-56963341D01*
X129726500Y-57897323D01*
X129743800Y-57984294D01*
X129752766Y-58029369D01*
X129780466Y-58096242D01*
X129804290Y-58153759D01*
X129848972Y-58220630D01*
X129879090Y-58265706D01*
X129879093Y-58265709D01*
X130818204Y-59204819D01*
X130851689Y-59266142D01*
X130846705Y-59335833D01*
X130804833Y-59391767D01*
X130739369Y-59416184D01*
X130730523Y-59416500D01*
X127599806Y-59416500D01*
X127532767Y-59396815D01*
X127494079Y-59357290D01*
X127404179Y-59210589D01*
X127404178Y-59210586D01*
X127369340Y-59169797D01*
X127249969Y-59030031D01*
X127130596Y-58928076D01*
X127069413Y-58875821D01*
X127069410Y-58875820D01*
X126866962Y-58751759D01*
X126866959Y-58751757D01*
X126647596Y-58660895D01*
X126416714Y-58605465D01*
X126180000Y-58586835D01*
X125943285Y-58605465D01*
X125712404Y-58660895D01*
X125712402Y-58660895D01*
X125493040Y-58751757D01*
X125493037Y-58751759D01*
X125290589Y-58875820D01*
X125290586Y-58875821D01*
X125110031Y-59030031D01*
X124955821Y-59210586D01*
X124955820Y-59210589D01*
X124831759Y-59413037D01*
X124831757Y-59413040D01*
X124740895Y-59632402D01*
X124740895Y-59632404D01*
X124685465Y-59863285D01*
X124666835Y-60100000D01*
X119263500Y-60100000D01*
X119263500Y-58352680D01*
X119263499Y-58352676D01*
X119237235Y-58220638D01*
X119237234Y-58220631D01*
X119188037Y-58101859D01*
X119186392Y-58097261D01*
X119110910Y-57984295D01*
X119110909Y-57984294D01*
X119015706Y-57889091D01*
X117253278Y-56126663D01*
X117219793Y-56065340D01*
X117221186Y-56006883D01*
X117223542Y-55998091D01*
X117223542Y-55998089D01*
X117223543Y-55998087D01*
X117242623Y-55780001D01*
X118936502Y-55780001D01*
X118956456Y-56008081D01*
X118956457Y-56008089D01*
X119015714Y-56229238D01*
X119015718Y-56229249D01*
X119079642Y-56366334D01*
X119112477Y-56436749D01*
X119243802Y-56624300D01*
X119405700Y-56786198D01*
X119593251Y-56917523D01*
X119691509Y-56963341D01*
X119800750Y-57014281D01*
X119800752Y-57014281D01*
X119800757Y-57014284D01*
X120021913Y-57073543D01*
X120184832Y-57087796D01*
X120249998Y-57093498D01*
X120250000Y-57093498D01*
X120250002Y-57093498D01*
X120307021Y-57088509D01*
X120478087Y-57073543D01*
X120699243Y-57014284D01*
X120906749Y-56917523D01*
X121094300Y-56786198D01*
X121256198Y-56624300D01*
X121387523Y-56436749D01*
X121484284Y-56229243D01*
X121543543Y-56008087D01*
X121563498Y-55780000D01*
X121559998Y-55740000D01*
X121543543Y-55551918D01*
X121543543Y-55551913D01*
X121484284Y-55330757D01*
X121437655Y-55230761D01*
X121387523Y-55123251D01*
X121380521Y-55113251D01*
X121256198Y-54935700D01*
X121094300Y-54773802D01*
X120906749Y-54642477D01*
X120866473Y-54623696D01*
X120699249Y-54545718D01*
X120699238Y-54545714D01*
X120478089Y-54486457D01*
X120478081Y-54486456D01*
X120250002Y-54466502D01*
X120249998Y-54466502D01*
X120021918Y-54486456D01*
X120021910Y-54486457D01*
X119800761Y-54545714D01*
X119800750Y-54545718D01*
X119593254Y-54642475D01*
X119593252Y-54642476D01*
X119593251Y-54642477D01*
X119405700Y-54773802D01*
X119405698Y-54773803D01*
X119405695Y-54773806D01*
X119243806Y-54935695D01*
X119243803Y-54935698D01*
X119243802Y-54935700D01*
X119182496Y-55023254D01*
X119112477Y-55123251D01*
X119015718Y-55330750D01*
X119015714Y-55330761D01*
X118956457Y-55551910D01*
X118956456Y-55551918D01*
X118936502Y-55779998D01*
X118936502Y-55780001D01*
X117242623Y-55780001D01*
X117243498Y-55770000D01*
X117240873Y-55740001D01*
X117224418Y-55551918D01*
X117223543Y-55541913D01*
X117164284Y-55320757D01*
X117067523Y-55113251D01*
X116936198Y-54925700D01*
X116774300Y-54763802D01*
X116586749Y-54632477D01*
X116567918Y-54623696D01*
X116379249Y-54535718D01*
X116379238Y-54535714D01*
X116158089Y-54476457D01*
X116158081Y-54476456D01*
X115930002Y-54456502D01*
X115929998Y-54456502D01*
X115701918Y-54476456D01*
X115701910Y-54476457D01*
X115480761Y-54535714D01*
X115480750Y-54535718D01*
X115273254Y-54632475D01*
X115273252Y-54632476D01*
X115214233Y-54673802D01*
X115085700Y-54763802D01*
X115085698Y-54763803D01*
X115085695Y-54763806D01*
X114923806Y-54925695D01*
X114923803Y-54925698D01*
X114923802Y-54925700D01*
X114855496Y-55023251D01*
X114792476Y-55113252D01*
X114792475Y-55113254D01*
X114695718Y-55320750D01*
X114695714Y-55320761D01*
X114636457Y-55541910D01*
X114636456Y-55541918D01*
X114616502Y-55769998D01*
X114616502Y-55770001D01*
X107083498Y-55770001D01*
X107083498Y-55770000D01*
X107080873Y-55740001D01*
X107064418Y-55551918D01*
X107063543Y-55541913D01*
X107004284Y-55320757D01*
X106907523Y-55113251D01*
X106776198Y-54925700D01*
X106614300Y-54763802D01*
X106426749Y-54632477D01*
X106407918Y-54623696D01*
X106219249Y-54535718D01*
X106219238Y-54535714D01*
X105998089Y-54476457D01*
X105998081Y-54476456D01*
X105770002Y-54456502D01*
X105769998Y-54456502D01*
X105541918Y-54476456D01*
X105541910Y-54476457D01*
X105320761Y-54535714D01*
X105320750Y-54535718D01*
X105113254Y-54632475D01*
X105113252Y-54632476D01*
X105054233Y-54673802D01*
X104925700Y-54763802D01*
X104925698Y-54763803D01*
X104925695Y-54763806D01*
X104763806Y-54925695D01*
X104763803Y-54925698D01*
X104763802Y-54925700D01*
X104695496Y-55023251D01*
X104632476Y-55113252D01*
X104632475Y-55113254D01*
X104535718Y-55320750D01*
X104535714Y-55320761D01*
X104476457Y-55541910D01*
X104476456Y-55541918D01*
X104456502Y-55769998D01*
X104456502Y-55770001D01*
X100075500Y-55770001D01*
X100075500Y-51347844D01*
X104500000Y-51347844D01*
X104506401Y-51407372D01*
X104506403Y-51407379D01*
X104556645Y-51542086D01*
X104556649Y-51542093D01*
X104642809Y-51657187D01*
X104642812Y-51657190D01*
X104757906Y-51743350D01*
X104757913Y-51743354D01*
X104892620Y-51793596D01*
X104892627Y-51793598D01*
X104952155Y-51799999D01*
X104952172Y-51800000D01*
X105600000Y-51800000D01*
X105600000Y-50883012D01*
X105657007Y-50915925D01*
X105784174Y-50950000D01*
X105915826Y-50950000D01*
X106042993Y-50915925D01*
X106100000Y-50883012D01*
X106100000Y-51800000D01*
X106747828Y-51800000D01*
X106747844Y-51799999D01*
X106807372Y-51793598D01*
X106807379Y-51793596D01*
X106942086Y-51743354D01*
X106942093Y-51743350D01*
X107057187Y-51657190D01*
X107057190Y-51657187D01*
X107143350Y-51542093D01*
X107143354Y-51542086D01*
X107193596Y-51407379D01*
X107193598Y-51407372D01*
X107199999Y-51347844D01*
X107200000Y-51347827D01*
X107200000Y-50700000D01*
X106283012Y-50700000D01*
X106315925Y-50642993D01*
X106350000Y-50515826D01*
X106350000Y-50384174D01*
X106315925Y-50257007D01*
X106283012Y-50200000D01*
X107200000Y-50200000D01*
X107200000Y-50098654D01*
X117437500Y-50098654D01*
X117444011Y-50159202D01*
X117444011Y-50159204D01*
X117480491Y-50257007D01*
X117495111Y-50296204D01*
X117582739Y-50413261D01*
X117699796Y-50500889D01*
X117778392Y-50530204D01*
X117835195Y-50551391D01*
X117836799Y-50551989D01*
X117864050Y-50554918D01*
X117897345Y-50558499D01*
X117897362Y-50558500D01*
X119694638Y-50558500D01*
X119694654Y-50558499D01*
X119721692Y-50555591D01*
X119755201Y-50551989D01*
X119756805Y-50551391D01*
X119792690Y-50538006D01*
X119892204Y-50500889D01*
X120009261Y-50413261D01*
X120096889Y-50296204D01*
X120142138Y-50174887D01*
X120184009Y-50118956D01*
X120249474Y-50094539D01*
X120317746Y-50109391D01*
X120349545Y-50134236D01*
X120412760Y-50202906D01*
X120590424Y-50341189D01*
X120590425Y-50341189D01*
X120590427Y-50341191D01*
X120717135Y-50409761D01*
X120788426Y-50448342D01*
X121001365Y-50521444D01*
X121223431Y-50558500D01*
X121448569Y-50558500D01*
X121670635Y-50521444D01*
X121883574Y-50448342D01*
X122081576Y-50341189D01*
X122259240Y-50202906D01*
X122380594Y-50071082D01*
X122411715Y-50037276D01*
X122411715Y-50037275D01*
X122411722Y-50037268D01*
X122502193Y-49898790D01*
X122555338Y-49853437D01*
X122624569Y-49844013D01*
X122687905Y-49873515D01*
X122709804Y-49898787D01*
X122800278Y-50037268D01*
X122800283Y-50037273D01*
X122800284Y-50037276D01*
X122952756Y-50202902D01*
X122952760Y-50202906D01*
X123130424Y-50341189D01*
X123130425Y-50341189D01*
X123130427Y-50341191D01*
X123257135Y-50409761D01*
X123328426Y-50448342D01*
X123541365Y-50521444D01*
X123763431Y-50558500D01*
X123988569Y-50558500D01*
X124210635Y-50521444D01*
X124423574Y-50448342D01*
X124621576Y-50341189D01*
X124799240Y-50202906D01*
X124920594Y-50071082D01*
X124951715Y-50037276D01*
X124951715Y-50037275D01*
X124951722Y-50037268D01*
X125045749Y-49893347D01*
X125098894Y-49847994D01*
X125168125Y-49838570D01*
X125231461Y-49868072D01*
X125251130Y-49890048D01*
X125377890Y-50071078D01*
X125544917Y-50238105D01*
X125738421Y-50373600D01*
X125952507Y-50473429D01*
X125952516Y-50473433D01*
X126166000Y-50530634D01*
X126166000Y-49633012D01*
X126223007Y-49665925D01*
X126350174Y-49700000D01*
X126481826Y-49700000D01*
X126608993Y-49665925D01*
X126666000Y-49633012D01*
X126666000Y-50530633D01*
X126879483Y-50473433D01*
X126879492Y-50473429D01*
X127093578Y-50373600D01*
X127287082Y-50238105D01*
X127454105Y-50071082D01*
X127580868Y-49890048D01*
X127635445Y-49846423D01*
X127704944Y-49839231D01*
X127767298Y-49870753D01*
X127786251Y-49893350D01*
X127880276Y-50037265D01*
X127880284Y-50037276D01*
X128032756Y-50202902D01*
X128032760Y-50202906D01*
X128210424Y-50341189D01*
X128210425Y-50341189D01*
X128210427Y-50341191D01*
X128337135Y-50409761D01*
X128408426Y-50448342D01*
X128621365Y-50521444D01*
X128843431Y-50558500D01*
X129068569Y-50558500D01*
X129290635Y-50521444D01*
X129503574Y-50448342D01*
X129701576Y-50341189D01*
X129879240Y-50202906D01*
X130000594Y-50071082D01*
X130031715Y-50037276D01*
X130031715Y-50037275D01*
X130031722Y-50037268D01*
X130122193Y-49898790D01*
X130175338Y-49853437D01*
X130244569Y-49844013D01*
X130307905Y-49873515D01*
X130329804Y-49898787D01*
X130420278Y-50037268D01*
X130420283Y-50037273D01*
X130420284Y-50037276D01*
X130572756Y-50202902D01*
X130572760Y-50202906D01*
X130750424Y-50341189D01*
X130750425Y-50341189D01*
X130750427Y-50341191D01*
X130877135Y-50409761D01*
X130948426Y-50448342D01*
X131161365Y-50521444D01*
X131383431Y-50558500D01*
X131608569Y-50558500D01*
X131830635Y-50521444D01*
X132043574Y-50448342D01*
X132241576Y-50341189D01*
X132419240Y-50202906D01*
X132540594Y-50071082D01*
X132571715Y-50037276D01*
X132571715Y-50037275D01*
X132571722Y-50037268D01*
X132662193Y-49898790D01*
X132715338Y-49853437D01*
X132784569Y-49844013D01*
X132847905Y-49873515D01*
X132869804Y-49898787D01*
X132960278Y-50037268D01*
X132960283Y-50037273D01*
X132960284Y-50037276D01*
X133112756Y-50202902D01*
X133112760Y-50202906D01*
X133290424Y-50341189D01*
X133290425Y-50341189D01*
X133290427Y-50341191D01*
X133417135Y-50409761D01*
X133488426Y-50448342D01*
X133701365Y-50521444D01*
X133923431Y-50558500D01*
X134148569Y-50558500D01*
X134370635Y-50521444D01*
X134583574Y-50448342D01*
X134781576Y-50341189D01*
X134959240Y-50202906D01*
X135080594Y-50071082D01*
X135111715Y-50037276D01*
X135111715Y-50037275D01*
X135111722Y-50037268D01*
X135202193Y-49898790D01*
X135255338Y-49853437D01*
X135324569Y-49844013D01*
X135387905Y-49873515D01*
X135409804Y-49898787D01*
X135500278Y-50037268D01*
X135500283Y-50037273D01*
X135500284Y-50037276D01*
X135652756Y-50202902D01*
X135652760Y-50202906D01*
X135830424Y-50341189D01*
X135830425Y-50341189D01*
X135830427Y-50341191D01*
X135957135Y-50409761D01*
X136028426Y-50448342D01*
X136241365Y-50521444D01*
X136463431Y-50558500D01*
X136688569Y-50558500D01*
X136910635Y-50521444D01*
X137123574Y-50448342D01*
X137321576Y-50341189D01*
X137499240Y-50202906D01*
X137620594Y-50071082D01*
X137651715Y-50037276D01*
X137651715Y-50037275D01*
X137651722Y-50037268D01*
X137742193Y-49898790D01*
X137795338Y-49853437D01*
X137864569Y-49844013D01*
X137927905Y-49873515D01*
X137949804Y-49898787D01*
X138040278Y-50037268D01*
X138040283Y-50037273D01*
X138040284Y-50037276D01*
X138192756Y-50202902D01*
X138192760Y-50202906D01*
X138370424Y-50341189D01*
X138370425Y-50341189D01*
X138370427Y-50341191D01*
X138497135Y-50409761D01*
X138568426Y-50448342D01*
X138781365Y-50521444D01*
X139003431Y-50558500D01*
X139228569Y-50558500D01*
X139450635Y-50521444D01*
X139663574Y-50448342D01*
X139861576Y-50341189D01*
X140039240Y-50202906D01*
X140160594Y-50071082D01*
X140191715Y-50037276D01*
X140191715Y-50037275D01*
X140191722Y-50037268D01*
X140282193Y-49898790D01*
X140335338Y-49853437D01*
X140404569Y-49844013D01*
X140467905Y-49873515D01*
X140489804Y-49898787D01*
X140580278Y-50037268D01*
X140580283Y-50037273D01*
X140580284Y-50037276D01*
X140732756Y-50202902D01*
X140732760Y-50202906D01*
X140910424Y-50341189D01*
X140910425Y-50341189D01*
X140910427Y-50341191D01*
X141037135Y-50409761D01*
X141108426Y-50448342D01*
X141321365Y-50521444D01*
X141543431Y-50558500D01*
X141768569Y-50558500D01*
X141990635Y-50521444D01*
X142203574Y-50448342D01*
X142401576Y-50341189D01*
X142579240Y-50202906D01*
X142700594Y-50071082D01*
X142731715Y-50037276D01*
X142731717Y-50037273D01*
X142731722Y-50037268D01*
X142854860Y-49848791D01*
X142945296Y-49642616D01*
X143000564Y-49424368D01*
X143006071Y-49357913D01*
X143019156Y-49200005D01*
X143019156Y-49199994D01*
X143000565Y-48975640D01*
X143000563Y-48975628D01*
X142945296Y-48757385D01*
X142935071Y-48734075D01*
X142854860Y-48551209D01*
X142838706Y-48526484D01*
X142731723Y-48362734D01*
X142731715Y-48362723D01*
X142579243Y-48197097D01*
X142579238Y-48197092D01*
X142401577Y-48058812D01*
X142401572Y-48058808D01*
X142203580Y-47951661D01*
X142203577Y-47951659D01*
X142203574Y-47951658D01*
X142203571Y-47951657D01*
X142203569Y-47951656D01*
X141990637Y-47878556D01*
X141768569Y-47841500D01*
X141543431Y-47841500D01*
X141321362Y-47878556D01*
X141108430Y-47951656D01*
X141108419Y-47951661D01*
X140910427Y-48058808D01*
X140910422Y-48058812D01*
X140732761Y-48197092D01*
X140732756Y-48197097D01*
X140580284Y-48362723D01*
X140580276Y-48362734D01*
X140489808Y-48501206D01*
X140436662Y-48546562D01*
X140367431Y-48555986D01*
X140304095Y-48526484D01*
X140282192Y-48501206D01*
X140191723Y-48362734D01*
X140191715Y-48362723D01*
X140039243Y-48197097D01*
X140039238Y-48197092D01*
X139861577Y-48058812D01*
X139861572Y-48058808D01*
X139663580Y-47951661D01*
X139663577Y-47951659D01*
X139663574Y-47951658D01*
X139663571Y-47951657D01*
X139663569Y-47951656D01*
X139450637Y-47878556D01*
X139228569Y-47841500D01*
X139003431Y-47841500D01*
X138781362Y-47878556D01*
X138568430Y-47951656D01*
X138568419Y-47951661D01*
X138370427Y-48058808D01*
X138370422Y-48058812D01*
X138192761Y-48197092D01*
X138192756Y-48197097D01*
X138040284Y-48362723D01*
X138040276Y-48362734D01*
X137949808Y-48501206D01*
X137896662Y-48546562D01*
X137827431Y-48555986D01*
X137764095Y-48526484D01*
X137742192Y-48501206D01*
X137651723Y-48362734D01*
X137651715Y-48362723D01*
X137499243Y-48197097D01*
X137499238Y-48197092D01*
X137321577Y-48058812D01*
X137321572Y-48058808D01*
X137123580Y-47951661D01*
X137123577Y-47951659D01*
X137123574Y-47951658D01*
X137123571Y-47951657D01*
X137123569Y-47951656D01*
X136910637Y-47878556D01*
X136688569Y-47841500D01*
X136463431Y-47841500D01*
X136241362Y-47878556D01*
X136028430Y-47951656D01*
X136028419Y-47951661D01*
X135830427Y-48058808D01*
X135830422Y-48058812D01*
X135652761Y-48197092D01*
X135652756Y-48197097D01*
X135500284Y-48362723D01*
X135500276Y-48362734D01*
X135409808Y-48501206D01*
X135356662Y-48546562D01*
X135287431Y-48555986D01*
X135224095Y-48526484D01*
X135202192Y-48501206D01*
X135111723Y-48362734D01*
X135111715Y-48362723D01*
X134959243Y-48197097D01*
X134959238Y-48197092D01*
X134781577Y-48058812D01*
X134781572Y-48058808D01*
X134583580Y-47951661D01*
X134583577Y-47951659D01*
X134583574Y-47951658D01*
X134583571Y-47951657D01*
X134583569Y-47951656D01*
X134370637Y-47878556D01*
X134148569Y-47841500D01*
X133923431Y-47841500D01*
X133701362Y-47878556D01*
X133488430Y-47951656D01*
X133488419Y-47951661D01*
X133290427Y-48058808D01*
X133290422Y-48058812D01*
X133112761Y-48197092D01*
X133112756Y-48197097D01*
X132960284Y-48362723D01*
X132960276Y-48362734D01*
X132869808Y-48501206D01*
X132816662Y-48546562D01*
X132747431Y-48555986D01*
X132684095Y-48526484D01*
X132662192Y-48501206D01*
X132571723Y-48362734D01*
X132571715Y-48362723D01*
X132419243Y-48197097D01*
X132419238Y-48197092D01*
X132241577Y-48058812D01*
X132241572Y-48058808D01*
X132043580Y-47951661D01*
X132043577Y-47951659D01*
X132043574Y-47951658D01*
X132043571Y-47951657D01*
X132043569Y-47951656D01*
X131830637Y-47878556D01*
X131608569Y-47841500D01*
X131383431Y-47841500D01*
X131161362Y-47878556D01*
X130948430Y-47951656D01*
X130948419Y-47951661D01*
X130750427Y-48058808D01*
X130750422Y-48058812D01*
X130572761Y-48197092D01*
X130572756Y-48197097D01*
X130420284Y-48362723D01*
X130420276Y-48362734D01*
X130329808Y-48501206D01*
X130276662Y-48546562D01*
X130207431Y-48555986D01*
X130144095Y-48526484D01*
X130122192Y-48501206D01*
X130031723Y-48362734D01*
X130031715Y-48362723D01*
X129879243Y-48197097D01*
X129879238Y-48197092D01*
X129701577Y-48058812D01*
X129701572Y-48058808D01*
X129503580Y-47951661D01*
X129503577Y-47951659D01*
X129503574Y-47951658D01*
X129503571Y-47951657D01*
X129503569Y-47951656D01*
X129290637Y-47878556D01*
X129068569Y-47841500D01*
X128843431Y-47841500D01*
X128621362Y-47878556D01*
X128408430Y-47951656D01*
X128408419Y-47951661D01*
X128210427Y-48058808D01*
X128210422Y-48058812D01*
X128032761Y-48197092D01*
X128032756Y-48197097D01*
X127880284Y-48362723D01*
X127880276Y-48362734D01*
X127786251Y-48506650D01*
X127733105Y-48552007D01*
X127663873Y-48561430D01*
X127600538Y-48531928D01*
X127580868Y-48509951D01*
X127454113Y-48328926D01*
X127454108Y-48328920D01*
X127287082Y-48161894D01*
X127093578Y-48026399D01*
X126879492Y-47926570D01*
X126879486Y-47926567D01*
X126666000Y-47869364D01*
X126666000Y-48766988D01*
X126608993Y-48734075D01*
X126481826Y-48700000D01*
X126350174Y-48700000D01*
X126223007Y-48734075D01*
X126166000Y-48766988D01*
X126166000Y-47869364D01*
X126165999Y-47869364D01*
X125952513Y-47926567D01*
X125952507Y-47926570D01*
X125738422Y-48026399D01*
X125738420Y-48026400D01*
X125544926Y-48161886D01*
X125544920Y-48161891D01*
X125377891Y-48328920D01*
X125377890Y-48328922D01*
X125251131Y-48509952D01*
X125196554Y-48553577D01*
X125127055Y-48560769D01*
X125064701Y-48529247D01*
X125045752Y-48506656D01*
X124951722Y-48362732D01*
X124951715Y-48362725D01*
X124951715Y-48362723D01*
X124799243Y-48197097D01*
X124799238Y-48197092D01*
X124621577Y-48058812D01*
X124621572Y-48058808D01*
X124423580Y-47951661D01*
X124423577Y-47951659D01*
X124423574Y-47951658D01*
X124423571Y-47951657D01*
X124423569Y-47951656D01*
X124210637Y-47878556D01*
X123988569Y-47841500D01*
X123763431Y-47841500D01*
X123541362Y-47878556D01*
X123328430Y-47951656D01*
X123328419Y-47951661D01*
X123130427Y-48058808D01*
X123130422Y-48058812D01*
X122952761Y-48197092D01*
X122952756Y-48197097D01*
X122800284Y-48362723D01*
X122800276Y-48362734D01*
X122709808Y-48501206D01*
X122656662Y-48546562D01*
X122587431Y-48555986D01*
X122524095Y-48526484D01*
X122502192Y-48501206D01*
X122411723Y-48362734D01*
X122411715Y-48362723D01*
X122259243Y-48197097D01*
X122259238Y-48197092D01*
X122081577Y-48058812D01*
X122081572Y-48058808D01*
X121883580Y-47951661D01*
X121883577Y-47951659D01*
X121883574Y-47951658D01*
X121883571Y-47951657D01*
X121883569Y-47951656D01*
X121670637Y-47878556D01*
X121448569Y-47841500D01*
X121223431Y-47841500D01*
X121001362Y-47878556D01*
X120788430Y-47951656D01*
X120788419Y-47951661D01*
X120590427Y-48058808D01*
X120590422Y-48058812D01*
X120412761Y-48197092D01*
X120349548Y-48265760D01*
X120289661Y-48301750D01*
X120219823Y-48299649D01*
X120162207Y-48260124D01*
X120142138Y-48225110D01*
X120096889Y-48103796D01*
X120063214Y-48058812D01*
X120009261Y-47986739D01*
X119892204Y-47899111D01*
X119755203Y-47848011D01*
X119694654Y-47841500D01*
X119694638Y-47841500D01*
X117897362Y-47841500D01*
X117897345Y-47841500D01*
X117836797Y-47848011D01*
X117836795Y-47848011D01*
X117699795Y-47899111D01*
X117582739Y-47986739D01*
X117495111Y-48103795D01*
X117444011Y-48240795D01*
X117444011Y-48240797D01*
X117437500Y-48301345D01*
X117437500Y-50098654D01*
X107200000Y-50098654D01*
X107200000Y-49552172D01*
X107199999Y-49552155D01*
X107193598Y-49492627D01*
X107193596Y-49492620D01*
X107143354Y-49357913D01*
X107143350Y-49357906D01*
X107057190Y-49242812D01*
X107057187Y-49242809D01*
X106942093Y-49156649D01*
X106942086Y-49156645D01*
X106807379Y-49106403D01*
X106807372Y-49106401D01*
X106747844Y-49100000D01*
X106100000Y-49100000D01*
X106100000Y-50016988D01*
X106042993Y-49984075D01*
X105915826Y-49950000D01*
X105784174Y-49950000D01*
X105657007Y-49984075D01*
X105600000Y-50016988D01*
X105600000Y-49100000D01*
X104952155Y-49100000D01*
X104892627Y-49106401D01*
X104892620Y-49106403D01*
X104757913Y-49156645D01*
X104757906Y-49156649D01*
X104642812Y-49242809D01*
X104642809Y-49242812D01*
X104556649Y-49357906D01*
X104556645Y-49357913D01*
X104506403Y-49492620D01*
X104506401Y-49492627D01*
X104500000Y-49552155D01*
X104500000Y-50200000D01*
X105416988Y-50200000D01*
X105384075Y-50257007D01*
X105350000Y-50384174D01*
X105350000Y-50515826D01*
X105384075Y-50642993D01*
X105416988Y-50700000D01*
X104500000Y-50700000D01*
X104500000Y-51347844D01*
X100075500Y-51347844D01*
X100075500Y-47428092D01*
X100076097Y-47415938D01*
X100087494Y-47300222D01*
X100092234Y-47276389D01*
X100124216Y-47170959D01*
X100133508Y-47148526D01*
X100185442Y-47051365D01*
X100198938Y-47031166D01*
X100268827Y-46946006D01*
X100286006Y-46928827D01*
X100371166Y-46858938D01*
X100391365Y-46845442D01*
X100488526Y-46793508D01*
X100510959Y-46784216D01*
X100616389Y-46752234D01*
X100640220Y-46747494D01*
X100755939Y-46736097D01*
X100768093Y-46735500D01*
X100786531Y-46735500D01*
X163417365Y-46735500D01*
X163484404Y-46755185D01*
G37*
%TD.AperFunction*%
%TD*%
M02*
