M48
; DRILL file {KiCad 8.0.1} date 2024-05-26T21:08:36+0200
; FORMAT={-:-/ absolute / inch / decimal}
; #@! TF.CreationDate,2024-05-26T21:08:36+02:00
; #@! TF.GenerationSoftware,Kicad,Pcbnew,8.0.1
; #@! TF.FileFunction,Plated,1,4,PTH
FMAT,2
INCH
; #@! TA.AperFunction,Plated,PTH,ComponentDrill
T1C0.0315
; #@! TA.AperFunction,Plated,PTH,ComponentDrill
T2C0.0354
; #@! TA.AperFunction,Plated,PTH,ComponentDrill
T3C0.0394
; #@! TA.AperFunction,Plated,PTH,ComponentDrill
T4C0.0433
%
G90
G05
T1
X4.1642Y-2.1957
X4.1969Y-2.8933
X4.1969Y-2.972
X4.2504Y-3.1252
X4.4291Y-3.4567
X4.4291Y-3.6535
X4.5504Y-2.7697
X4.5504Y-2.9665
X4.5642Y-2.1957
X4.6504Y-3.1252
X4.6504Y-3.2575
X4.6504Y-3.6575
X4.7343Y-2.1961
X4.8555Y-2.7177
X4.8555Y-3.1177
X4.876Y-3.3102
X4.876Y-3.4102
X4.876Y-3.5102
X4.876Y-3.6102
X5.1343Y-2.1961
X5.1488Y-2.7555
X5.1488Y-2.8555
X5.1488Y-2.9555
X5.1488Y-3.0555
X5.176Y-3.3102
X5.176Y-3.4102
X5.176Y-3.5102
X5.176Y-3.6102
X5.2925Y-2.1945
X5.3461Y-3.6764
X5.3602Y-3.2705
X5.4488Y-2.7555
X5.4488Y-2.8555
X5.4488Y-2.9555
X5.4488Y-3.0555
X5.6736Y-2.7142
X5.6736Y-3.1142
X5.6925Y-2.1945
X5.7461Y-3.6764
X5.7602Y-3.2705
X5.8232Y-2.1921
X5.8996Y-3.363
X5.9043Y-3.6339
X5.937Y-2.9055
X6.0157Y-2.9055
X6.1012Y-3.6339
X6.2232Y-2.1921
X6.2866Y-3.5591
X6.2866Y-3.6378
X6.2996Y-3.363
X6.374Y-2.0764
X6.374Y-2.4764
T2
X4.5685Y-2.4697
X4.6685Y-2.4697
X5.4492Y-2.4689
X5.5492Y-2.4689
X5.7537Y-2.4689
X5.8537Y-2.4689
X6.047Y-2.4709
X6.147Y-2.4709
T3
X4.0839Y-3.1921
X4.1673Y-1.9862
X4.1941Y-2.4799
X4.198Y-2.6772
X4.677Y-1.937
X4.777Y-1.937
X4.7953Y-3.8512
X4.877Y-1.937
X4.977Y-1.937
X5.037Y-3.837
X5.077Y-1.937
X5.137Y-3.837
X5.177Y-1.937
X5.237Y-3.837
X5.277Y-1.937
X5.337Y-3.837
X5.377Y-1.937
X5.4102Y-3.5232
X5.437Y-3.837
X5.477Y-1.937
X5.537Y-3.837
X5.577Y-1.937
X5.637Y-3.837
X5.7012Y-3.5268
X5.737Y-1.937
X5.737Y-3.837
X5.837Y-1.937
X5.937Y-1.937
X5.937Y-3.837
X5.9457Y-3.1854
X6.037Y-1.937
X6.037Y-3.837
X6.137Y-1.937
X6.137Y-3.837
X6.1843Y-2.8301
X6.1843Y-2.9301
X6.1843Y-3.0301
X6.237Y-1.937
X6.237Y-3.837
X6.2402Y-3.2185
X6.337Y-1.937
X6.337Y-3.837
X6.3705Y-2.6685
X6.437Y-1.937
X6.437Y-3.837
X6.5079Y-3.2969
X6.5209Y-3.4988
T4
X4.9677Y-2.3661
X4.9677Y-2.5433
X5.2236Y-2.3661
X5.2236Y-2.5433
M30
