%TF.GenerationSoftware,KiCad,Pcbnew,8.0.1*%
%TF.CreationDate,2024-05-26T21:08:22+02:00*%
%TF.ProjectId,RadarPCB,52616461-7250-4434-922e-6b696361645f,R1.3*%
%TF.SameCoordinates,Original*%
%TF.FileFunction,Legend,Top*%
%TF.FilePolarity,Positive*%
%FSLAX46Y46*%
G04 Gerber Fmt 4.6, Leading zero omitted, Abs format (unit mm)*
G04 Created by KiCad (PCBNEW 8.0.1) date 2024-05-26 21:08:22*
%MOMM*%
%LPD*%
G01*
G04 APERTURE LIST*
%ADD10C,0.150000*%
%ADD11C,0.120000*%
G04 APERTURE END LIST*
D10*
X102970430Y-98783696D02*
X102589477Y-99050363D01*
X102970430Y-99240839D02*
X102170430Y-99240839D01*
X102170430Y-99240839D02*
X102170430Y-98936077D01*
X102170430Y-98936077D02*
X102208525Y-98859887D01*
X102208525Y-98859887D02*
X102246620Y-98821792D01*
X102246620Y-98821792D02*
X102322811Y-98783696D01*
X102322811Y-98783696D02*
X102437096Y-98783696D01*
X102437096Y-98783696D02*
X102513287Y-98821792D01*
X102513287Y-98821792D02*
X102551382Y-98859887D01*
X102551382Y-98859887D02*
X102589477Y-98936077D01*
X102589477Y-98936077D02*
X102589477Y-99240839D01*
X102970430Y-98097982D02*
X102551382Y-98097982D01*
X102551382Y-98097982D02*
X102475192Y-98136077D01*
X102475192Y-98136077D02*
X102437096Y-98212268D01*
X102437096Y-98212268D02*
X102437096Y-98364649D01*
X102437096Y-98364649D02*
X102475192Y-98440839D01*
X102932335Y-98097982D02*
X102970430Y-98174173D01*
X102970430Y-98174173D02*
X102970430Y-98364649D01*
X102970430Y-98364649D02*
X102932335Y-98440839D01*
X102932335Y-98440839D02*
X102856144Y-98478935D01*
X102856144Y-98478935D02*
X102779954Y-98478935D01*
X102779954Y-98478935D02*
X102703763Y-98440839D01*
X102703763Y-98440839D02*
X102665668Y-98364649D01*
X102665668Y-98364649D02*
X102665668Y-98174173D01*
X102665668Y-98174173D02*
X102627573Y-98097982D01*
X102970430Y-97374172D02*
X102170430Y-97374172D01*
X102932335Y-97374172D02*
X102970430Y-97450363D01*
X102970430Y-97450363D02*
X102970430Y-97602744D01*
X102970430Y-97602744D02*
X102932335Y-97678934D01*
X102932335Y-97678934D02*
X102894239Y-97717029D01*
X102894239Y-97717029D02*
X102818049Y-97755125D01*
X102818049Y-97755125D02*
X102589477Y-97755125D01*
X102589477Y-97755125D02*
X102513287Y-97717029D01*
X102513287Y-97717029D02*
X102475192Y-97678934D01*
X102475192Y-97678934D02*
X102437096Y-97602744D01*
X102437096Y-97602744D02*
X102437096Y-97450363D01*
X102437096Y-97450363D02*
X102475192Y-97374172D01*
X102970430Y-96650362D02*
X102551382Y-96650362D01*
X102551382Y-96650362D02*
X102475192Y-96688457D01*
X102475192Y-96688457D02*
X102437096Y-96764648D01*
X102437096Y-96764648D02*
X102437096Y-96917029D01*
X102437096Y-96917029D02*
X102475192Y-96993219D01*
X102932335Y-96650362D02*
X102970430Y-96726553D01*
X102970430Y-96726553D02*
X102970430Y-96917029D01*
X102970430Y-96917029D02*
X102932335Y-96993219D01*
X102932335Y-96993219D02*
X102856144Y-97031315D01*
X102856144Y-97031315D02*
X102779954Y-97031315D01*
X102779954Y-97031315D02*
X102703763Y-96993219D01*
X102703763Y-96993219D02*
X102665668Y-96917029D01*
X102665668Y-96917029D02*
X102665668Y-96726553D01*
X102665668Y-96726553D02*
X102627573Y-96650362D01*
X102970430Y-96269409D02*
X102437096Y-96269409D01*
X102589477Y-96269409D02*
X102513287Y-96231314D01*
X102513287Y-96231314D02*
X102475192Y-96193219D01*
X102475192Y-96193219D02*
X102437096Y-96117028D01*
X102437096Y-96117028D02*
X102437096Y-96040838D01*
X102932335Y-95202743D02*
X102970430Y-95088457D01*
X102970430Y-95088457D02*
X102970430Y-94897981D01*
X102970430Y-94897981D02*
X102932335Y-94821790D01*
X102932335Y-94821790D02*
X102894239Y-94783695D01*
X102894239Y-94783695D02*
X102818049Y-94745600D01*
X102818049Y-94745600D02*
X102741858Y-94745600D01*
X102741858Y-94745600D02*
X102665668Y-94783695D01*
X102665668Y-94783695D02*
X102627573Y-94821790D01*
X102627573Y-94821790D02*
X102589477Y-94897981D01*
X102589477Y-94897981D02*
X102551382Y-95050362D01*
X102551382Y-95050362D02*
X102513287Y-95126552D01*
X102513287Y-95126552D02*
X102475192Y-95164647D01*
X102475192Y-95164647D02*
X102399001Y-95202743D01*
X102399001Y-95202743D02*
X102322811Y-95202743D01*
X102322811Y-95202743D02*
X102246620Y-95164647D01*
X102246620Y-95164647D02*
X102208525Y-95126552D01*
X102208525Y-95126552D02*
X102170430Y-95050362D01*
X102170430Y-95050362D02*
X102170430Y-94859885D01*
X102170430Y-94859885D02*
X102208525Y-94745600D01*
X102932335Y-94097980D02*
X102970430Y-94174171D01*
X102970430Y-94174171D02*
X102970430Y-94326552D01*
X102970430Y-94326552D02*
X102932335Y-94402742D01*
X102932335Y-94402742D02*
X102856144Y-94440838D01*
X102856144Y-94440838D02*
X102551382Y-94440838D01*
X102551382Y-94440838D02*
X102475192Y-94402742D01*
X102475192Y-94402742D02*
X102437096Y-94326552D01*
X102437096Y-94326552D02*
X102437096Y-94174171D01*
X102437096Y-94174171D02*
X102475192Y-94097980D01*
X102475192Y-94097980D02*
X102551382Y-94059885D01*
X102551382Y-94059885D02*
X102627573Y-94059885D01*
X102627573Y-94059885D02*
X102703763Y-94440838D01*
X102437096Y-93717028D02*
X102970430Y-93717028D01*
X102513287Y-93717028D02*
X102475192Y-93678933D01*
X102475192Y-93678933D02*
X102437096Y-93602743D01*
X102437096Y-93602743D02*
X102437096Y-93488457D01*
X102437096Y-93488457D02*
X102475192Y-93412266D01*
X102475192Y-93412266D02*
X102551382Y-93374171D01*
X102551382Y-93374171D02*
X102970430Y-93374171D01*
X102932335Y-93031314D02*
X102970430Y-92955123D01*
X102970430Y-92955123D02*
X102970430Y-92802742D01*
X102970430Y-92802742D02*
X102932335Y-92726552D01*
X102932335Y-92726552D02*
X102856144Y-92688456D01*
X102856144Y-92688456D02*
X102818049Y-92688456D01*
X102818049Y-92688456D02*
X102741858Y-92726552D01*
X102741858Y-92726552D02*
X102703763Y-92802742D01*
X102703763Y-92802742D02*
X102703763Y-92917028D01*
X102703763Y-92917028D02*
X102665668Y-92993218D01*
X102665668Y-92993218D02*
X102589477Y-93031314D01*
X102589477Y-93031314D02*
X102551382Y-93031314D01*
X102551382Y-93031314D02*
X102475192Y-92993218D01*
X102475192Y-92993218D02*
X102437096Y-92917028D01*
X102437096Y-92917028D02*
X102437096Y-92802742D01*
X102437096Y-92802742D02*
X102475192Y-92726552D01*
X102970430Y-92231314D02*
X102932335Y-92307504D01*
X102932335Y-92307504D02*
X102894239Y-92345599D01*
X102894239Y-92345599D02*
X102818049Y-92383695D01*
X102818049Y-92383695D02*
X102589477Y-92383695D01*
X102589477Y-92383695D02*
X102513287Y-92345599D01*
X102513287Y-92345599D02*
X102475192Y-92307504D01*
X102475192Y-92307504D02*
X102437096Y-92231314D01*
X102437096Y-92231314D02*
X102437096Y-92117028D01*
X102437096Y-92117028D02*
X102475192Y-92040837D01*
X102475192Y-92040837D02*
X102513287Y-92002742D01*
X102513287Y-92002742D02*
X102589477Y-91964647D01*
X102589477Y-91964647D02*
X102818049Y-91964647D01*
X102818049Y-91964647D02*
X102894239Y-92002742D01*
X102894239Y-92002742D02*
X102932335Y-92040837D01*
X102932335Y-92040837D02*
X102970430Y-92117028D01*
X102970430Y-92117028D02*
X102970430Y-92231314D01*
X102970430Y-91621789D02*
X102437096Y-91621789D01*
X102589477Y-91621789D02*
X102513287Y-91583694D01*
X102513287Y-91583694D02*
X102475192Y-91545599D01*
X102475192Y-91545599D02*
X102437096Y-91469408D01*
X102437096Y-91469408D02*
X102437096Y-91393218D01*
X102970430Y-90517027D02*
X102170430Y-90517027D01*
X102170430Y-90517027D02*
X102741858Y-90250361D01*
X102741858Y-90250361D02*
X102170430Y-89983694D01*
X102170430Y-89983694D02*
X102970430Y-89983694D01*
X102970430Y-89488456D02*
X102932335Y-89564646D01*
X102932335Y-89564646D02*
X102894239Y-89602741D01*
X102894239Y-89602741D02*
X102818049Y-89640837D01*
X102818049Y-89640837D02*
X102589477Y-89640837D01*
X102589477Y-89640837D02*
X102513287Y-89602741D01*
X102513287Y-89602741D02*
X102475192Y-89564646D01*
X102475192Y-89564646D02*
X102437096Y-89488456D01*
X102437096Y-89488456D02*
X102437096Y-89374170D01*
X102437096Y-89374170D02*
X102475192Y-89297979D01*
X102475192Y-89297979D02*
X102513287Y-89259884D01*
X102513287Y-89259884D02*
X102589477Y-89221789D01*
X102589477Y-89221789D02*
X102818049Y-89221789D01*
X102818049Y-89221789D02*
X102894239Y-89259884D01*
X102894239Y-89259884D02*
X102932335Y-89297979D01*
X102932335Y-89297979D02*
X102970430Y-89374170D01*
X102970430Y-89374170D02*
X102970430Y-89488456D01*
X102970430Y-88536074D02*
X102170430Y-88536074D01*
X102932335Y-88536074D02*
X102970430Y-88612265D01*
X102970430Y-88612265D02*
X102970430Y-88764646D01*
X102970430Y-88764646D02*
X102932335Y-88840836D01*
X102932335Y-88840836D02*
X102894239Y-88878931D01*
X102894239Y-88878931D02*
X102818049Y-88917027D01*
X102818049Y-88917027D02*
X102589477Y-88917027D01*
X102589477Y-88917027D02*
X102513287Y-88878931D01*
X102513287Y-88878931D02*
X102475192Y-88840836D01*
X102475192Y-88840836D02*
X102437096Y-88764646D01*
X102437096Y-88764646D02*
X102437096Y-88612265D01*
X102437096Y-88612265D02*
X102475192Y-88536074D01*
X102437096Y-87812264D02*
X102970430Y-87812264D01*
X102437096Y-88155121D02*
X102856144Y-88155121D01*
X102856144Y-88155121D02*
X102932335Y-88117026D01*
X102932335Y-88117026D02*
X102970430Y-88040836D01*
X102970430Y-88040836D02*
X102970430Y-87926550D01*
X102970430Y-87926550D02*
X102932335Y-87850359D01*
X102932335Y-87850359D02*
X102894239Y-87812264D01*
X102970430Y-87317026D02*
X102932335Y-87393216D01*
X102932335Y-87393216D02*
X102856144Y-87431311D01*
X102856144Y-87431311D02*
X102170430Y-87431311D01*
X102932335Y-86707501D02*
X102970430Y-86783692D01*
X102970430Y-86783692D02*
X102970430Y-86936073D01*
X102970430Y-86936073D02*
X102932335Y-87012263D01*
X102932335Y-87012263D02*
X102856144Y-87050359D01*
X102856144Y-87050359D02*
X102551382Y-87050359D01*
X102551382Y-87050359D02*
X102475192Y-87012263D01*
X102475192Y-87012263D02*
X102437096Y-86936073D01*
X102437096Y-86936073D02*
X102437096Y-86783692D01*
X102437096Y-86783692D02*
X102475192Y-86707501D01*
X102475192Y-86707501D02*
X102551382Y-86669406D01*
X102551382Y-86669406D02*
X102627573Y-86669406D01*
X102627573Y-86669406D02*
X102703763Y-87050359D01*
X103496480Y-98821792D02*
X103458385Y-98897982D01*
X103458385Y-98897982D02*
X103458385Y-99012268D01*
X103458385Y-99012268D02*
X103496480Y-99126554D01*
X103496480Y-99126554D02*
X103572670Y-99202744D01*
X103572670Y-99202744D02*
X103648861Y-99240839D01*
X103648861Y-99240839D02*
X103801242Y-99278935D01*
X103801242Y-99278935D02*
X103915528Y-99278935D01*
X103915528Y-99278935D02*
X104067909Y-99240839D01*
X104067909Y-99240839D02*
X104144099Y-99202744D01*
X104144099Y-99202744D02*
X104220290Y-99126554D01*
X104220290Y-99126554D02*
X104258385Y-99012268D01*
X104258385Y-99012268D02*
X104258385Y-98936077D01*
X104258385Y-98936077D02*
X104220290Y-98821792D01*
X104220290Y-98821792D02*
X104182194Y-98783696D01*
X104182194Y-98783696D02*
X103915528Y-98783696D01*
X103915528Y-98783696D02*
X103915528Y-98936077D01*
X104258385Y-98440839D02*
X103725051Y-98440839D01*
X103877432Y-98440839D02*
X103801242Y-98402744D01*
X103801242Y-98402744D02*
X103763147Y-98364649D01*
X103763147Y-98364649D02*
X103725051Y-98288458D01*
X103725051Y-98288458D02*
X103725051Y-98212268D01*
X104258385Y-97831316D02*
X104220290Y-97907506D01*
X104220290Y-97907506D02*
X104182194Y-97945601D01*
X104182194Y-97945601D02*
X104106004Y-97983697D01*
X104106004Y-97983697D02*
X103877432Y-97983697D01*
X103877432Y-97983697D02*
X103801242Y-97945601D01*
X103801242Y-97945601D02*
X103763147Y-97907506D01*
X103763147Y-97907506D02*
X103725051Y-97831316D01*
X103725051Y-97831316D02*
X103725051Y-97717030D01*
X103725051Y-97717030D02*
X103763147Y-97640839D01*
X103763147Y-97640839D02*
X103801242Y-97602744D01*
X103801242Y-97602744D02*
X103877432Y-97564649D01*
X103877432Y-97564649D02*
X104106004Y-97564649D01*
X104106004Y-97564649D02*
X104182194Y-97602744D01*
X104182194Y-97602744D02*
X104220290Y-97640839D01*
X104220290Y-97640839D02*
X104258385Y-97717030D01*
X104258385Y-97717030D02*
X104258385Y-97831316D01*
X103725051Y-96878934D02*
X104258385Y-96878934D01*
X103725051Y-97221791D02*
X104144099Y-97221791D01*
X104144099Y-97221791D02*
X104220290Y-97183696D01*
X104220290Y-97183696D02*
X104258385Y-97107506D01*
X104258385Y-97107506D02*
X104258385Y-96993220D01*
X104258385Y-96993220D02*
X104220290Y-96917029D01*
X104220290Y-96917029D02*
X104182194Y-96878934D01*
X103725051Y-96497981D02*
X104525051Y-96497981D01*
X103763147Y-96497981D02*
X103725051Y-96421791D01*
X103725051Y-96421791D02*
X103725051Y-96269410D01*
X103725051Y-96269410D02*
X103763147Y-96193219D01*
X103763147Y-96193219D02*
X103801242Y-96155124D01*
X103801242Y-96155124D02*
X103877432Y-96117029D01*
X103877432Y-96117029D02*
X104106004Y-96117029D01*
X104106004Y-96117029D02*
X104182194Y-96155124D01*
X104182194Y-96155124D02*
X104220290Y-96193219D01*
X104220290Y-96193219D02*
X104258385Y-96269410D01*
X104258385Y-96269410D02*
X104258385Y-96421791D01*
X104258385Y-96421791D02*
X104220290Y-96497981D01*
X104182194Y-94707504D02*
X104220290Y-94745600D01*
X104220290Y-94745600D02*
X104258385Y-94859885D01*
X104258385Y-94859885D02*
X104258385Y-94936076D01*
X104258385Y-94936076D02*
X104220290Y-95050362D01*
X104220290Y-95050362D02*
X104144099Y-95126552D01*
X104144099Y-95126552D02*
X104067909Y-95164647D01*
X104067909Y-95164647D02*
X103915528Y-95202743D01*
X103915528Y-95202743D02*
X103801242Y-95202743D01*
X103801242Y-95202743D02*
X103648861Y-95164647D01*
X103648861Y-95164647D02*
X103572670Y-95126552D01*
X103572670Y-95126552D02*
X103496480Y-95050362D01*
X103496480Y-95050362D02*
X103458385Y-94936076D01*
X103458385Y-94936076D02*
X103458385Y-94859885D01*
X103458385Y-94859885D02*
X103496480Y-94745600D01*
X103496480Y-94745600D02*
X103534575Y-94707504D01*
X103458385Y-93983695D02*
X103458385Y-94364647D01*
X103458385Y-94364647D02*
X103839337Y-94402743D01*
X103839337Y-94402743D02*
X103801242Y-94364647D01*
X103801242Y-94364647D02*
X103763147Y-94288457D01*
X103763147Y-94288457D02*
X103763147Y-94097981D01*
X103763147Y-94097981D02*
X103801242Y-94021790D01*
X103801242Y-94021790D02*
X103839337Y-93983695D01*
X103839337Y-93983695D02*
X103915528Y-93945600D01*
X103915528Y-93945600D02*
X104106004Y-93945600D01*
X104106004Y-93945600D02*
X104182194Y-93983695D01*
X104182194Y-93983695D02*
X104220290Y-94021790D01*
X104220290Y-94021790D02*
X104258385Y-94097981D01*
X104258385Y-94097981D02*
X104258385Y-94288457D01*
X104258385Y-94288457D02*
X104220290Y-94364647D01*
X104220290Y-94364647D02*
X104182194Y-94402743D01*
X105546340Y-98783696D02*
X105165387Y-99050363D01*
X105546340Y-99240839D02*
X104746340Y-99240839D01*
X104746340Y-99240839D02*
X104746340Y-98936077D01*
X104746340Y-98936077D02*
X104784435Y-98859887D01*
X104784435Y-98859887D02*
X104822530Y-98821792D01*
X104822530Y-98821792D02*
X104898721Y-98783696D01*
X104898721Y-98783696D02*
X105013006Y-98783696D01*
X105013006Y-98783696D02*
X105089197Y-98821792D01*
X105089197Y-98821792D02*
X105127292Y-98859887D01*
X105127292Y-98859887D02*
X105165387Y-98936077D01*
X105165387Y-98936077D02*
X105165387Y-99240839D01*
X105546340Y-98097982D02*
X105127292Y-98097982D01*
X105127292Y-98097982D02*
X105051102Y-98136077D01*
X105051102Y-98136077D02*
X105013006Y-98212268D01*
X105013006Y-98212268D02*
X105013006Y-98364649D01*
X105013006Y-98364649D02*
X105051102Y-98440839D01*
X105508245Y-98097982D02*
X105546340Y-98174173D01*
X105546340Y-98174173D02*
X105546340Y-98364649D01*
X105546340Y-98364649D02*
X105508245Y-98440839D01*
X105508245Y-98440839D02*
X105432054Y-98478935D01*
X105432054Y-98478935D02*
X105355864Y-98478935D01*
X105355864Y-98478935D02*
X105279673Y-98440839D01*
X105279673Y-98440839D02*
X105241578Y-98364649D01*
X105241578Y-98364649D02*
X105241578Y-98174173D01*
X105241578Y-98174173D02*
X105203483Y-98097982D01*
X105546340Y-97717029D02*
X104746340Y-97717029D01*
X105241578Y-97640839D02*
X105546340Y-97412267D01*
X105013006Y-97412267D02*
X105317768Y-97717029D01*
X105508245Y-97107506D02*
X105546340Y-97031315D01*
X105546340Y-97031315D02*
X105546340Y-96878934D01*
X105546340Y-96878934D02*
X105508245Y-96802744D01*
X105508245Y-96802744D02*
X105432054Y-96764648D01*
X105432054Y-96764648D02*
X105393959Y-96764648D01*
X105393959Y-96764648D02*
X105317768Y-96802744D01*
X105317768Y-96802744D02*
X105279673Y-96878934D01*
X105279673Y-96878934D02*
X105279673Y-96993220D01*
X105279673Y-96993220D02*
X105241578Y-97069410D01*
X105241578Y-97069410D02*
X105165387Y-97107506D01*
X105165387Y-97107506D02*
X105127292Y-97107506D01*
X105127292Y-97107506D02*
X105051102Y-97069410D01*
X105051102Y-97069410D02*
X105013006Y-96993220D01*
X105013006Y-96993220D02*
X105013006Y-96878934D01*
X105013006Y-96878934D02*
X105051102Y-96802744D01*
X105546340Y-96421791D02*
X104746340Y-96421791D01*
X105546340Y-96078934D02*
X105127292Y-96078934D01*
X105127292Y-96078934D02*
X105051102Y-96117029D01*
X105051102Y-96117029D02*
X105013006Y-96193220D01*
X105013006Y-96193220D02*
X105013006Y-96307506D01*
X105013006Y-96307506D02*
X105051102Y-96383696D01*
X105051102Y-96383696D02*
X105089197Y-96421791D01*
X105546340Y-95697981D02*
X105013006Y-95697981D01*
X104746340Y-95697981D02*
X104784435Y-95736077D01*
X104784435Y-95736077D02*
X104822530Y-95697981D01*
X104822530Y-95697981D02*
X104784435Y-95659886D01*
X104784435Y-95659886D02*
X104746340Y-95697981D01*
X104746340Y-95697981D02*
X104822530Y-95697981D01*
X105013006Y-95431315D02*
X105013006Y-95126553D01*
X104746340Y-95317029D02*
X105432054Y-95317029D01*
X105432054Y-95317029D02*
X105508245Y-95278934D01*
X105508245Y-95278934D02*
X105546340Y-95202744D01*
X105546340Y-95202744D02*
X105546340Y-95126553D01*
X105546340Y-94859886D02*
X104746340Y-94859886D01*
X105546340Y-94517029D02*
X105127292Y-94517029D01*
X105127292Y-94517029D02*
X105051102Y-94555124D01*
X105051102Y-94555124D02*
X105013006Y-94631315D01*
X105013006Y-94631315D02*
X105013006Y-94745601D01*
X105013006Y-94745601D02*
X105051102Y-94821791D01*
X105051102Y-94821791D02*
X105089197Y-94859886D01*
X105546340Y-93793219D02*
X105127292Y-93793219D01*
X105127292Y-93793219D02*
X105051102Y-93831314D01*
X105051102Y-93831314D02*
X105013006Y-93907505D01*
X105013006Y-93907505D02*
X105013006Y-94059886D01*
X105013006Y-94059886D02*
X105051102Y-94136076D01*
X105508245Y-93793219D02*
X105546340Y-93869410D01*
X105546340Y-93869410D02*
X105546340Y-94059886D01*
X105546340Y-94059886D02*
X105508245Y-94136076D01*
X105508245Y-94136076D02*
X105432054Y-94174172D01*
X105432054Y-94174172D02*
X105355864Y-94174172D01*
X105355864Y-94174172D02*
X105279673Y-94136076D01*
X105279673Y-94136076D02*
X105241578Y-94059886D01*
X105241578Y-94059886D02*
X105241578Y-93869410D01*
X105241578Y-93869410D02*
X105203483Y-93793219D01*
X105546340Y-92802742D02*
X104746340Y-92802742D01*
X105546340Y-92345599D02*
X105089197Y-92688457D01*
X104746340Y-92345599D02*
X105203483Y-92802742D01*
X105546340Y-91393218D02*
X104746340Y-91393218D01*
X104746340Y-91393218D02*
X104746340Y-91088456D01*
X104746340Y-91088456D02*
X104784435Y-91012266D01*
X104784435Y-91012266D02*
X104822530Y-90974171D01*
X104822530Y-90974171D02*
X104898721Y-90936075D01*
X104898721Y-90936075D02*
X105013006Y-90936075D01*
X105013006Y-90936075D02*
X105089197Y-90974171D01*
X105089197Y-90974171D02*
X105127292Y-91012266D01*
X105127292Y-91012266D02*
X105165387Y-91088456D01*
X105165387Y-91088456D02*
X105165387Y-91393218D01*
X105241578Y-89983694D02*
X105241578Y-89374171D01*
X105546340Y-88574171D02*
X105546340Y-89031314D01*
X105546340Y-88802742D02*
X104746340Y-88802742D01*
X104746340Y-88802742D02*
X104860625Y-88878933D01*
X104860625Y-88878933D02*
X104936816Y-88955123D01*
X104936816Y-88955123D02*
X104974911Y-89031314D01*
X105546340Y-87812266D02*
X105546340Y-88269409D01*
X105546340Y-88040837D02*
X104746340Y-88040837D01*
X104746340Y-88040837D02*
X104860625Y-88117028D01*
X104860625Y-88117028D02*
X104936816Y-88193218D01*
X104936816Y-88193218D02*
X104974911Y-88269409D01*
X104822530Y-87507504D02*
X104784435Y-87469408D01*
X104784435Y-87469408D02*
X104746340Y-87393218D01*
X104746340Y-87393218D02*
X104746340Y-87202742D01*
X104746340Y-87202742D02*
X104784435Y-87126551D01*
X104784435Y-87126551D02*
X104822530Y-87088456D01*
X104822530Y-87088456D02*
X104898721Y-87050361D01*
X104898721Y-87050361D02*
X104974911Y-87050361D01*
X104974911Y-87050361D02*
X105089197Y-87088456D01*
X105089197Y-87088456D02*
X105546340Y-87545599D01*
X105546340Y-87545599D02*
X105546340Y-87050361D01*
X104746340Y-86783694D02*
X104746340Y-86250360D01*
X104746340Y-86250360D02*
X105546340Y-86593218D01*
X105546340Y-85907503D02*
X105546340Y-85755122D01*
X105546340Y-85755122D02*
X105508245Y-85678932D01*
X105508245Y-85678932D02*
X105470149Y-85640836D01*
X105470149Y-85640836D02*
X105355864Y-85564646D01*
X105355864Y-85564646D02*
X105203483Y-85526551D01*
X105203483Y-85526551D02*
X104898721Y-85526551D01*
X104898721Y-85526551D02*
X104822530Y-85564646D01*
X104822530Y-85564646D02*
X104784435Y-85602741D01*
X104784435Y-85602741D02*
X104746340Y-85678932D01*
X104746340Y-85678932D02*
X104746340Y-85831313D01*
X104746340Y-85831313D02*
X104784435Y-85907503D01*
X104784435Y-85907503D02*
X104822530Y-85945598D01*
X104822530Y-85945598D02*
X104898721Y-85983694D01*
X104898721Y-85983694D02*
X105089197Y-85983694D01*
X105089197Y-85983694D02*
X105165387Y-85945598D01*
X105165387Y-85945598D02*
X105203483Y-85907503D01*
X105203483Y-85907503D02*
X105241578Y-85831313D01*
X105241578Y-85831313D02*
X105241578Y-85678932D01*
X105241578Y-85678932D02*
X105203483Y-85602741D01*
X105203483Y-85602741D02*
X105165387Y-85564646D01*
X105165387Y-85564646D02*
X105089197Y-85526551D01*
X105089197Y-85069408D02*
X105051102Y-85145598D01*
X105051102Y-85145598D02*
X105013006Y-85183693D01*
X105013006Y-85183693D02*
X104936816Y-85221789D01*
X104936816Y-85221789D02*
X104898721Y-85221789D01*
X104898721Y-85221789D02*
X104822530Y-85183693D01*
X104822530Y-85183693D02*
X104784435Y-85145598D01*
X104784435Y-85145598D02*
X104746340Y-85069408D01*
X104746340Y-85069408D02*
X104746340Y-84917027D01*
X104746340Y-84917027D02*
X104784435Y-84840836D01*
X104784435Y-84840836D02*
X104822530Y-84802741D01*
X104822530Y-84802741D02*
X104898721Y-84764646D01*
X104898721Y-84764646D02*
X104936816Y-84764646D01*
X104936816Y-84764646D02*
X105013006Y-84802741D01*
X105013006Y-84802741D02*
X105051102Y-84840836D01*
X105051102Y-84840836D02*
X105089197Y-84917027D01*
X105089197Y-84917027D02*
X105089197Y-85069408D01*
X105089197Y-85069408D02*
X105127292Y-85145598D01*
X105127292Y-85145598D02*
X105165387Y-85183693D01*
X105165387Y-85183693D02*
X105241578Y-85221789D01*
X105241578Y-85221789D02*
X105393959Y-85221789D01*
X105393959Y-85221789D02*
X105470149Y-85183693D01*
X105470149Y-85183693D02*
X105508245Y-85145598D01*
X105508245Y-85145598D02*
X105546340Y-85069408D01*
X105546340Y-85069408D02*
X105546340Y-84917027D01*
X105546340Y-84917027D02*
X105508245Y-84840836D01*
X105508245Y-84840836D02*
X105470149Y-84802741D01*
X105470149Y-84802741D02*
X105393959Y-84764646D01*
X105393959Y-84764646D02*
X105241578Y-84764646D01*
X105241578Y-84764646D02*
X105165387Y-84802741D01*
X105165387Y-84802741D02*
X105127292Y-84840836D01*
X105127292Y-84840836D02*
X105089197Y-84917027D01*
X105089197Y-84307503D02*
X105051102Y-84383693D01*
X105051102Y-84383693D02*
X105013006Y-84421788D01*
X105013006Y-84421788D02*
X104936816Y-84459884D01*
X104936816Y-84459884D02*
X104898721Y-84459884D01*
X104898721Y-84459884D02*
X104822530Y-84421788D01*
X104822530Y-84421788D02*
X104784435Y-84383693D01*
X104784435Y-84383693D02*
X104746340Y-84307503D01*
X104746340Y-84307503D02*
X104746340Y-84155122D01*
X104746340Y-84155122D02*
X104784435Y-84078931D01*
X104784435Y-84078931D02*
X104822530Y-84040836D01*
X104822530Y-84040836D02*
X104898721Y-84002741D01*
X104898721Y-84002741D02*
X104936816Y-84002741D01*
X104936816Y-84002741D02*
X105013006Y-84040836D01*
X105013006Y-84040836D02*
X105051102Y-84078931D01*
X105051102Y-84078931D02*
X105089197Y-84155122D01*
X105089197Y-84155122D02*
X105089197Y-84307503D01*
X105089197Y-84307503D02*
X105127292Y-84383693D01*
X105127292Y-84383693D02*
X105165387Y-84421788D01*
X105165387Y-84421788D02*
X105241578Y-84459884D01*
X105241578Y-84459884D02*
X105393959Y-84459884D01*
X105393959Y-84459884D02*
X105470149Y-84421788D01*
X105470149Y-84421788D02*
X105508245Y-84383693D01*
X105508245Y-84383693D02*
X105546340Y-84307503D01*
X105546340Y-84307503D02*
X105546340Y-84155122D01*
X105546340Y-84155122D02*
X105508245Y-84078931D01*
X105508245Y-84078931D02*
X105470149Y-84040836D01*
X105470149Y-84040836D02*
X105393959Y-84002741D01*
X105393959Y-84002741D02*
X105241578Y-84002741D01*
X105241578Y-84002741D02*
X105165387Y-84040836D01*
X105165387Y-84040836D02*
X105127292Y-84078931D01*
X105127292Y-84078931D02*
X105089197Y-84155122D01*
X106834295Y-99240839D02*
X106034295Y-99240839D01*
X106415247Y-99240839D02*
X106415247Y-98783696D01*
X106834295Y-98783696D02*
X106034295Y-98783696D01*
X106796200Y-98097982D02*
X106834295Y-98174173D01*
X106834295Y-98174173D02*
X106834295Y-98326554D01*
X106834295Y-98326554D02*
X106796200Y-98402744D01*
X106796200Y-98402744D02*
X106720009Y-98440840D01*
X106720009Y-98440840D02*
X106415247Y-98440840D01*
X106415247Y-98440840D02*
X106339057Y-98402744D01*
X106339057Y-98402744D02*
X106300961Y-98326554D01*
X106300961Y-98326554D02*
X106300961Y-98174173D01*
X106300961Y-98174173D02*
X106339057Y-98097982D01*
X106339057Y-98097982D02*
X106415247Y-98059887D01*
X106415247Y-98059887D02*
X106491438Y-98059887D01*
X106491438Y-98059887D02*
X106567628Y-98440840D01*
X106300961Y-97717030D02*
X106834295Y-97717030D01*
X106377152Y-97717030D02*
X106339057Y-97678935D01*
X106339057Y-97678935D02*
X106300961Y-97602745D01*
X106300961Y-97602745D02*
X106300961Y-97488459D01*
X106300961Y-97488459D02*
X106339057Y-97412268D01*
X106339057Y-97412268D02*
X106415247Y-97374173D01*
X106415247Y-97374173D02*
X106834295Y-97374173D01*
X106834295Y-96993220D02*
X106300961Y-96993220D01*
X106453342Y-96993220D02*
X106377152Y-96955125D01*
X106377152Y-96955125D02*
X106339057Y-96917030D01*
X106339057Y-96917030D02*
X106300961Y-96840839D01*
X106300961Y-96840839D02*
X106300961Y-96764649D01*
X106834295Y-96497982D02*
X106300961Y-96497982D01*
X106034295Y-96497982D02*
X106072390Y-96536078D01*
X106072390Y-96536078D02*
X106110485Y-96497982D01*
X106110485Y-96497982D02*
X106072390Y-96459887D01*
X106072390Y-96459887D02*
X106034295Y-96497982D01*
X106034295Y-96497982D02*
X106110485Y-96497982D01*
X106300961Y-95774173D02*
X107100961Y-95774173D01*
X106796200Y-95774173D02*
X106834295Y-95850364D01*
X106834295Y-95850364D02*
X106834295Y-96002745D01*
X106834295Y-96002745D02*
X106796200Y-96078935D01*
X106796200Y-96078935D02*
X106758104Y-96117030D01*
X106758104Y-96117030D02*
X106681914Y-96155126D01*
X106681914Y-96155126D02*
X106453342Y-96155126D01*
X106453342Y-96155126D02*
X106377152Y-96117030D01*
X106377152Y-96117030D02*
X106339057Y-96078935D01*
X106339057Y-96078935D02*
X106300961Y-96002745D01*
X106300961Y-96002745D02*
X106300961Y-95850364D01*
X106300961Y-95850364D02*
X106339057Y-95774173D01*
X106300961Y-95050363D02*
X106834295Y-95050363D01*
X106300961Y-95393220D02*
X106720009Y-95393220D01*
X106720009Y-95393220D02*
X106796200Y-95355125D01*
X106796200Y-95355125D02*
X106834295Y-95278935D01*
X106834295Y-95278935D02*
X106834295Y-95164649D01*
X106834295Y-95164649D02*
X106796200Y-95088458D01*
X106796200Y-95088458D02*
X106758104Y-95050363D01*
X106796200Y-94364648D02*
X106834295Y-94440839D01*
X106834295Y-94440839D02*
X106834295Y-94593220D01*
X106834295Y-94593220D02*
X106796200Y-94669410D01*
X106796200Y-94669410D02*
X106720009Y-94707506D01*
X106720009Y-94707506D02*
X106415247Y-94707506D01*
X106415247Y-94707506D02*
X106339057Y-94669410D01*
X106339057Y-94669410D02*
X106300961Y-94593220D01*
X106300961Y-94593220D02*
X106300961Y-94440839D01*
X106300961Y-94440839D02*
X106339057Y-94364648D01*
X106339057Y-94364648D02*
X106415247Y-94326553D01*
X106415247Y-94326553D02*
X106491438Y-94326553D01*
X106491438Y-94326553D02*
X106567628Y-94707506D01*
X106834295Y-92917029D02*
X106453342Y-93183696D01*
X106834295Y-93374172D02*
X106034295Y-93374172D01*
X106034295Y-93374172D02*
X106034295Y-93069410D01*
X106034295Y-93069410D02*
X106072390Y-92993220D01*
X106072390Y-92993220D02*
X106110485Y-92955125D01*
X106110485Y-92955125D02*
X106186676Y-92917029D01*
X106186676Y-92917029D02*
X106300961Y-92917029D01*
X106300961Y-92917029D02*
X106377152Y-92955125D01*
X106377152Y-92955125D02*
X106415247Y-92993220D01*
X106415247Y-92993220D02*
X106453342Y-93069410D01*
X106453342Y-93069410D02*
X106453342Y-93374172D01*
X106834295Y-92231315D02*
X106415247Y-92231315D01*
X106415247Y-92231315D02*
X106339057Y-92269410D01*
X106339057Y-92269410D02*
X106300961Y-92345601D01*
X106300961Y-92345601D02*
X106300961Y-92497982D01*
X106300961Y-92497982D02*
X106339057Y-92574172D01*
X106796200Y-92231315D02*
X106834295Y-92307506D01*
X106834295Y-92307506D02*
X106834295Y-92497982D01*
X106834295Y-92497982D02*
X106796200Y-92574172D01*
X106796200Y-92574172D02*
X106720009Y-92612268D01*
X106720009Y-92612268D02*
X106643819Y-92612268D01*
X106643819Y-92612268D02*
X106567628Y-92574172D01*
X106567628Y-92574172D02*
X106529533Y-92497982D01*
X106529533Y-92497982D02*
X106529533Y-92307506D01*
X106529533Y-92307506D02*
X106491438Y-92231315D01*
X106300961Y-91850362D02*
X106834295Y-91850362D01*
X106377152Y-91850362D02*
X106339057Y-91812267D01*
X106339057Y-91812267D02*
X106300961Y-91736077D01*
X106300961Y-91736077D02*
X106300961Y-91621791D01*
X106300961Y-91621791D02*
X106339057Y-91545600D01*
X106339057Y-91545600D02*
X106415247Y-91507505D01*
X106415247Y-91507505D02*
X106834295Y-91507505D01*
X106300961Y-90783695D02*
X106948580Y-90783695D01*
X106948580Y-90783695D02*
X107024771Y-90821790D01*
X107024771Y-90821790D02*
X107062866Y-90859886D01*
X107062866Y-90859886D02*
X107100961Y-90936076D01*
X107100961Y-90936076D02*
X107100961Y-91050362D01*
X107100961Y-91050362D02*
X107062866Y-91126552D01*
X106796200Y-90783695D02*
X106834295Y-90859886D01*
X106834295Y-90859886D02*
X106834295Y-91012267D01*
X106834295Y-91012267D02*
X106796200Y-91088457D01*
X106796200Y-91088457D02*
X106758104Y-91126552D01*
X106758104Y-91126552D02*
X106681914Y-91164648D01*
X106681914Y-91164648D02*
X106453342Y-91164648D01*
X106453342Y-91164648D02*
X106377152Y-91126552D01*
X106377152Y-91126552D02*
X106339057Y-91088457D01*
X106339057Y-91088457D02*
X106300961Y-91012267D01*
X106300961Y-91012267D02*
X106300961Y-90859886D01*
X106300961Y-90859886D02*
X106339057Y-90783695D01*
X106834295Y-90059885D02*
X106415247Y-90059885D01*
X106415247Y-90059885D02*
X106339057Y-90097980D01*
X106339057Y-90097980D02*
X106300961Y-90174171D01*
X106300961Y-90174171D02*
X106300961Y-90326552D01*
X106300961Y-90326552D02*
X106339057Y-90402742D01*
X106796200Y-90059885D02*
X106834295Y-90136076D01*
X106834295Y-90136076D02*
X106834295Y-90326552D01*
X106834295Y-90326552D02*
X106796200Y-90402742D01*
X106796200Y-90402742D02*
X106720009Y-90440838D01*
X106720009Y-90440838D02*
X106643819Y-90440838D01*
X106643819Y-90440838D02*
X106567628Y-90402742D01*
X106567628Y-90402742D02*
X106529533Y-90326552D01*
X106529533Y-90326552D02*
X106529533Y-90136076D01*
X106529533Y-90136076D02*
X106491438Y-90059885D01*
X106300961Y-89678932D02*
X106834295Y-89678932D01*
X106377152Y-89678932D02*
X106339057Y-89640837D01*
X106339057Y-89640837D02*
X106300961Y-89564647D01*
X106300961Y-89564647D02*
X106300961Y-89450361D01*
X106300961Y-89450361D02*
X106339057Y-89374170D01*
X106339057Y-89374170D02*
X106415247Y-89336075D01*
X106415247Y-89336075D02*
X106834295Y-89336075D01*
X106529533Y-88345598D02*
X106529533Y-87736075D01*
X106834295Y-86936075D02*
X106834295Y-87393218D01*
X106834295Y-87164646D02*
X106034295Y-87164646D01*
X106034295Y-87164646D02*
X106148580Y-87240837D01*
X106148580Y-87240837D02*
X106224771Y-87317027D01*
X106224771Y-87317027D02*
X106262866Y-87393218D01*
X106834295Y-86174170D02*
X106834295Y-86631313D01*
X106834295Y-86402741D02*
X106034295Y-86402741D01*
X106034295Y-86402741D02*
X106148580Y-86478932D01*
X106148580Y-86478932D02*
X106224771Y-86555122D01*
X106224771Y-86555122D02*
X106262866Y-86631313D01*
X106034295Y-85907503D02*
X106034295Y-85412265D01*
X106034295Y-85412265D02*
X106339057Y-85678931D01*
X106339057Y-85678931D02*
X106339057Y-85564646D01*
X106339057Y-85564646D02*
X106377152Y-85488455D01*
X106377152Y-85488455D02*
X106415247Y-85450360D01*
X106415247Y-85450360D02*
X106491438Y-85412265D01*
X106491438Y-85412265D02*
X106681914Y-85412265D01*
X106681914Y-85412265D02*
X106758104Y-85450360D01*
X106758104Y-85450360D02*
X106796200Y-85488455D01*
X106796200Y-85488455D02*
X106834295Y-85564646D01*
X106834295Y-85564646D02*
X106834295Y-85793217D01*
X106834295Y-85793217D02*
X106796200Y-85869408D01*
X106796200Y-85869408D02*
X106758104Y-85907503D01*
X106034295Y-84917026D02*
X106034295Y-84840836D01*
X106034295Y-84840836D02*
X106072390Y-84764645D01*
X106072390Y-84764645D02*
X106110485Y-84726550D01*
X106110485Y-84726550D02*
X106186676Y-84688455D01*
X106186676Y-84688455D02*
X106339057Y-84650360D01*
X106339057Y-84650360D02*
X106529533Y-84650360D01*
X106529533Y-84650360D02*
X106681914Y-84688455D01*
X106681914Y-84688455D02*
X106758104Y-84726550D01*
X106758104Y-84726550D02*
X106796200Y-84764645D01*
X106796200Y-84764645D02*
X106834295Y-84840836D01*
X106834295Y-84840836D02*
X106834295Y-84917026D01*
X106834295Y-84917026D02*
X106796200Y-84993217D01*
X106796200Y-84993217D02*
X106758104Y-85031312D01*
X106758104Y-85031312D02*
X106681914Y-85069407D01*
X106681914Y-85069407D02*
X106529533Y-85107503D01*
X106529533Y-85107503D02*
X106339057Y-85107503D01*
X106339057Y-85107503D02*
X106186676Y-85069407D01*
X106186676Y-85069407D02*
X106110485Y-85031312D01*
X106110485Y-85031312D02*
X106072390Y-84993217D01*
X106072390Y-84993217D02*
X106034295Y-84917026D01*
X106377152Y-84193217D02*
X106339057Y-84269407D01*
X106339057Y-84269407D02*
X106300961Y-84307502D01*
X106300961Y-84307502D02*
X106224771Y-84345598D01*
X106224771Y-84345598D02*
X106186676Y-84345598D01*
X106186676Y-84345598D02*
X106110485Y-84307502D01*
X106110485Y-84307502D02*
X106072390Y-84269407D01*
X106072390Y-84269407D02*
X106034295Y-84193217D01*
X106034295Y-84193217D02*
X106034295Y-84040836D01*
X106034295Y-84040836D02*
X106072390Y-83964645D01*
X106072390Y-83964645D02*
X106110485Y-83926550D01*
X106110485Y-83926550D02*
X106186676Y-83888455D01*
X106186676Y-83888455D02*
X106224771Y-83888455D01*
X106224771Y-83888455D02*
X106300961Y-83926550D01*
X106300961Y-83926550D02*
X106339057Y-83964645D01*
X106339057Y-83964645D02*
X106377152Y-84040836D01*
X106377152Y-84040836D02*
X106377152Y-84193217D01*
X106377152Y-84193217D02*
X106415247Y-84269407D01*
X106415247Y-84269407D02*
X106453342Y-84307502D01*
X106453342Y-84307502D02*
X106529533Y-84345598D01*
X106529533Y-84345598D02*
X106681914Y-84345598D01*
X106681914Y-84345598D02*
X106758104Y-84307502D01*
X106758104Y-84307502D02*
X106796200Y-84269407D01*
X106796200Y-84269407D02*
X106834295Y-84193217D01*
X106834295Y-84193217D02*
X106834295Y-84040836D01*
X106834295Y-84040836D02*
X106796200Y-83964645D01*
X106796200Y-83964645D02*
X106758104Y-83926550D01*
X106758104Y-83926550D02*
X106681914Y-83888455D01*
X106681914Y-83888455D02*
X106529533Y-83888455D01*
X106529533Y-83888455D02*
X106453342Y-83926550D01*
X106453342Y-83926550D02*
X106415247Y-83964645D01*
X106415247Y-83964645D02*
X106377152Y-84040836D01*
X106034295Y-83621788D02*
X106034295Y-83126550D01*
X106034295Y-83126550D02*
X106339057Y-83393216D01*
X106339057Y-83393216D02*
X106339057Y-83278931D01*
X106339057Y-83278931D02*
X106377152Y-83202740D01*
X106377152Y-83202740D02*
X106415247Y-83164645D01*
X106415247Y-83164645D02*
X106491438Y-83126550D01*
X106491438Y-83126550D02*
X106681914Y-83126550D01*
X106681914Y-83126550D02*
X106758104Y-83164645D01*
X106758104Y-83164645D02*
X106796200Y-83202740D01*
X106796200Y-83202740D02*
X106834295Y-83278931D01*
X106834295Y-83278931D02*
X106834295Y-83507502D01*
X106834295Y-83507502D02*
X106796200Y-83583693D01*
X106796200Y-83583693D02*
X106758104Y-83621788D01*
X106034295Y-82631311D02*
X106034295Y-82555121D01*
X106034295Y-82555121D02*
X106072390Y-82478930D01*
X106072390Y-82478930D02*
X106110485Y-82440835D01*
X106110485Y-82440835D02*
X106186676Y-82402740D01*
X106186676Y-82402740D02*
X106339057Y-82364645D01*
X106339057Y-82364645D02*
X106529533Y-82364645D01*
X106529533Y-82364645D02*
X106681914Y-82402740D01*
X106681914Y-82402740D02*
X106758104Y-82440835D01*
X106758104Y-82440835D02*
X106796200Y-82478930D01*
X106796200Y-82478930D02*
X106834295Y-82555121D01*
X106834295Y-82555121D02*
X106834295Y-82631311D01*
X106834295Y-82631311D02*
X106796200Y-82707502D01*
X106796200Y-82707502D02*
X106758104Y-82745597D01*
X106758104Y-82745597D02*
X106681914Y-82783692D01*
X106681914Y-82783692D02*
X106529533Y-82821788D01*
X106529533Y-82821788D02*
X106339057Y-82821788D01*
X106339057Y-82821788D02*
X106186676Y-82783692D01*
X106186676Y-82783692D02*
X106110485Y-82745597D01*
X106110485Y-82745597D02*
X106072390Y-82707502D01*
X106072390Y-82707502D02*
X106034295Y-82631311D01*
X100452438Y-83480000D02*
X100404819Y-83575238D01*
X100404819Y-83575238D02*
X100404819Y-83718095D01*
X100404819Y-83718095D02*
X100452438Y-83860952D01*
X100452438Y-83860952D02*
X100547676Y-83956190D01*
X100547676Y-83956190D02*
X100642914Y-84003809D01*
X100642914Y-84003809D02*
X100833390Y-84051428D01*
X100833390Y-84051428D02*
X100976247Y-84051428D01*
X100976247Y-84051428D02*
X101166723Y-84003809D01*
X101166723Y-84003809D02*
X101261961Y-83956190D01*
X101261961Y-83956190D02*
X101357200Y-83860952D01*
X101357200Y-83860952D02*
X101404819Y-83718095D01*
X101404819Y-83718095D02*
X101404819Y-83622857D01*
X101404819Y-83622857D02*
X101357200Y-83480000D01*
X101357200Y-83480000D02*
X101309580Y-83432381D01*
X101309580Y-83432381D02*
X100976247Y-83432381D01*
X100976247Y-83432381D02*
X100976247Y-83622857D01*
X101404819Y-83003809D02*
X100404819Y-83003809D01*
X100404819Y-83003809D02*
X101404819Y-82432381D01*
X101404819Y-82432381D02*
X100404819Y-82432381D01*
X101404819Y-81956190D02*
X100404819Y-81956190D01*
X100404819Y-81956190D02*
X100404819Y-81718095D01*
X100404819Y-81718095D02*
X100452438Y-81575238D01*
X100452438Y-81575238D02*
X100547676Y-81480000D01*
X100547676Y-81480000D02*
X100642914Y-81432381D01*
X100642914Y-81432381D02*
X100833390Y-81384762D01*
X100833390Y-81384762D02*
X100976247Y-81384762D01*
X100976247Y-81384762D02*
X101166723Y-81432381D01*
X101166723Y-81432381D02*
X101261961Y-81480000D01*
X101261961Y-81480000D02*
X101357200Y-81575238D01*
X101357200Y-81575238D02*
X101404819Y-81718095D01*
X101404819Y-81718095D02*
X101404819Y-81956190D01*
X101500057Y-81194286D02*
X101500057Y-80432381D01*
X100404819Y-80337142D02*
X100404819Y-79765714D01*
X101404819Y-80051428D02*
X100404819Y-80051428D01*
X101404819Y-79432380D02*
X100404819Y-79432380D01*
X100404819Y-79432380D02*
X100404819Y-79051428D01*
X100404819Y-79051428D02*
X100452438Y-78956190D01*
X100452438Y-78956190D02*
X100500057Y-78908571D01*
X100500057Y-78908571D02*
X100595295Y-78860952D01*
X100595295Y-78860952D02*
X100738152Y-78860952D01*
X100738152Y-78860952D02*
X100833390Y-78908571D01*
X100833390Y-78908571D02*
X100881009Y-78956190D01*
X100881009Y-78956190D02*
X100928628Y-79051428D01*
X100928628Y-79051428D02*
X100928628Y-79432380D01*
X100738152Y-78003809D02*
X101404819Y-78003809D01*
X100357200Y-78241904D02*
X101071485Y-78479999D01*
X101071485Y-78479999D02*
X101071485Y-77860952D01*
X146067619Y-78134819D02*
X146067619Y-77134819D01*
X146067619Y-77611009D02*
X146639047Y-77611009D01*
X146639047Y-78134819D02*
X146639047Y-77134819D01*
X147115238Y-78134819D02*
X147115238Y-77134819D01*
X147115238Y-77134819D02*
X147496190Y-77134819D01*
X147496190Y-77134819D02*
X147591428Y-77182438D01*
X147591428Y-77182438D02*
X147639047Y-77230057D01*
X147639047Y-77230057D02*
X147686666Y-77325295D01*
X147686666Y-77325295D02*
X147686666Y-77468152D01*
X147686666Y-77468152D02*
X147639047Y-77563390D01*
X147639047Y-77563390D02*
X147591428Y-77611009D01*
X147591428Y-77611009D02*
X147496190Y-77658628D01*
X147496190Y-77658628D02*
X147115238Y-77658628D01*
X148448571Y-77611009D02*
X148115238Y-77611009D01*
X148115238Y-78134819D02*
X148115238Y-77134819D01*
X148115238Y-77134819D02*
X148591428Y-77134819D01*
X149496190Y-78134819D02*
X148924762Y-78134819D01*
X149210476Y-78134819D02*
X149210476Y-77134819D01*
X149210476Y-77134819D02*
X149115238Y-77277676D01*
X149115238Y-77277676D02*
X149020000Y-77372914D01*
X149020000Y-77372914D02*
X148924762Y-77420533D01*
X149686667Y-78230057D02*
X150448571Y-78230057D01*
X150543810Y-77134819D02*
X151115238Y-77134819D01*
X150829524Y-78134819D02*
X150829524Y-77134819D01*
X151448572Y-78134819D02*
X151448572Y-77134819D01*
X151448572Y-77134819D02*
X151829524Y-77134819D01*
X151829524Y-77134819D02*
X151924762Y-77182438D01*
X151924762Y-77182438D02*
X151972381Y-77230057D01*
X151972381Y-77230057D02*
X152020000Y-77325295D01*
X152020000Y-77325295D02*
X152020000Y-77468152D01*
X152020000Y-77468152D02*
X151972381Y-77563390D01*
X151972381Y-77563390D02*
X151924762Y-77611009D01*
X151924762Y-77611009D02*
X151829524Y-77658628D01*
X151829524Y-77658628D02*
X151448572Y-77658628D01*
X154763333Y-83504819D02*
X154430000Y-83028628D01*
X154191905Y-83504819D02*
X154191905Y-82504819D01*
X154191905Y-82504819D02*
X154572857Y-82504819D01*
X154572857Y-82504819D02*
X154668095Y-82552438D01*
X154668095Y-82552438D02*
X154715714Y-82600057D01*
X154715714Y-82600057D02*
X154763333Y-82695295D01*
X154763333Y-82695295D02*
X154763333Y-82838152D01*
X154763333Y-82838152D02*
X154715714Y-82933390D01*
X154715714Y-82933390D02*
X154668095Y-82981009D01*
X154668095Y-82981009D02*
X154572857Y-83028628D01*
X154572857Y-83028628D02*
X154191905Y-83028628D01*
X155620476Y-82838152D02*
X155620476Y-83504819D01*
X155382381Y-82457200D02*
X155144286Y-83171485D01*
X155144286Y-83171485D02*
X155763333Y-83171485D01*
X118969999Y-94352438D02*
X118874761Y-94304819D01*
X118874761Y-94304819D02*
X118731904Y-94304819D01*
X118731904Y-94304819D02*
X118589047Y-94352438D01*
X118589047Y-94352438D02*
X118493809Y-94447676D01*
X118493809Y-94447676D02*
X118446190Y-94542914D01*
X118446190Y-94542914D02*
X118398571Y-94733390D01*
X118398571Y-94733390D02*
X118398571Y-94876247D01*
X118398571Y-94876247D02*
X118446190Y-95066723D01*
X118446190Y-95066723D02*
X118493809Y-95161961D01*
X118493809Y-95161961D02*
X118589047Y-95257200D01*
X118589047Y-95257200D02*
X118731904Y-95304819D01*
X118731904Y-95304819D02*
X118827142Y-95304819D01*
X118827142Y-95304819D02*
X118969999Y-95257200D01*
X118969999Y-95257200D02*
X119017618Y-95209580D01*
X119017618Y-95209580D02*
X119017618Y-94876247D01*
X119017618Y-94876247D02*
X118827142Y-94876247D01*
X119446190Y-95304819D02*
X119446190Y-94304819D01*
X119446190Y-94304819D02*
X120017618Y-95304819D01*
X120017618Y-95304819D02*
X120017618Y-94304819D01*
X120493809Y-95304819D02*
X120493809Y-94304819D01*
X120493809Y-94304819D02*
X120731904Y-94304819D01*
X120731904Y-94304819D02*
X120874761Y-94352438D01*
X120874761Y-94352438D02*
X120969999Y-94447676D01*
X120969999Y-94447676D02*
X121017618Y-94542914D01*
X121017618Y-94542914D02*
X121065237Y-94733390D01*
X121065237Y-94733390D02*
X121065237Y-94876247D01*
X121065237Y-94876247D02*
X121017618Y-95066723D01*
X121017618Y-95066723D02*
X120969999Y-95161961D01*
X120969999Y-95161961D02*
X120874761Y-95257200D01*
X120874761Y-95257200D02*
X120731904Y-95304819D01*
X120731904Y-95304819D02*
X120493809Y-95304819D01*
X121255714Y-95400057D02*
X122017618Y-95400057D01*
X122112857Y-94304819D02*
X122684285Y-94304819D01*
X122398571Y-95304819D02*
X122398571Y-94304819D01*
X123017619Y-95304819D02*
X123017619Y-94304819D01*
X123017619Y-94304819D02*
X123398571Y-94304819D01*
X123398571Y-94304819D02*
X123493809Y-94352438D01*
X123493809Y-94352438D02*
X123541428Y-94400057D01*
X123541428Y-94400057D02*
X123589047Y-94495295D01*
X123589047Y-94495295D02*
X123589047Y-94638152D01*
X123589047Y-94638152D02*
X123541428Y-94733390D01*
X123541428Y-94733390D02*
X123493809Y-94781009D01*
X123493809Y-94781009D02*
X123398571Y-94828628D01*
X123398571Y-94828628D02*
X123017619Y-94828628D01*
X123922381Y-94304819D02*
X124541428Y-94304819D01*
X124541428Y-94304819D02*
X124208095Y-94685771D01*
X124208095Y-94685771D02*
X124350952Y-94685771D01*
X124350952Y-94685771D02*
X124446190Y-94733390D01*
X124446190Y-94733390D02*
X124493809Y-94781009D01*
X124493809Y-94781009D02*
X124541428Y-94876247D01*
X124541428Y-94876247D02*
X124541428Y-95114342D01*
X124541428Y-95114342D02*
X124493809Y-95209580D01*
X124493809Y-95209580D02*
X124446190Y-95257200D01*
X124446190Y-95257200D02*
X124350952Y-95304819D01*
X124350952Y-95304819D02*
X124065238Y-95304819D01*
X124065238Y-95304819D02*
X123970000Y-95257200D01*
X123970000Y-95257200D02*
X123922381Y-95209580D01*
X110683333Y-58594819D02*
X110350000Y-58118628D01*
X110111905Y-58594819D02*
X110111905Y-57594819D01*
X110111905Y-57594819D02*
X110492857Y-57594819D01*
X110492857Y-57594819D02*
X110588095Y-57642438D01*
X110588095Y-57642438D02*
X110635714Y-57690057D01*
X110635714Y-57690057D02*
X110683333Y-57785295D01*
X110683333Y-57785295D02*
X110683333Y-57928152D01*
X110683333Y-57928152D02*
X110635714Y-58023390D01*
X110635714Y-58023390D02*
X110588095Y-58071009D01*
X110588095Y-58071009D02*
X110492857Y-58118628D01*
X110492857Y-58118628D02*
X110111905Y-58118628D01*
X111064286Y-57690057D02*
X111111905Y-57642438D01*
X111111905Y-57642438D02*
X111207143Y-57594819D01*
X111207143Y-57594819D02*
X111445238Y-57594819D01*
X111445238Y-57594819D02*
X111540476Y-57642438D01*
X111540476Y-57642438D02*
X111588095Y-57690057D01*
X111588095Y-57690057D02*
X111635714Y-57785295D01*
X111635714Y-57785295D02*
X111635714Y-57880533D01*
X111635714Y-57880533D02*
X111588095Y-58023390D01*
X111588095Y-58023390D02*
X111016667Y-58594819D01*
X111016667Y-58594819D02*
X111635714Y-58594819D01*
X151633333Y-70409580D02*
X151585714Y-70457200D01*
X151585714Y-70457200D02*
X151442857Y-70504819D01*
X151442857Y-70504819D02*
X151347619Y-70504819D01*
X151347619Y-70504819D02*
X151204762Y-70457200D01*
X151204762Y-70457200D02*
X151109524Y-70361961D01*
X151109524Y-70361961D02*
X151061905Y-70266723D01*
X151061905Y-70266723D02*
X151014286Y-70076247D01*
X151014286Y-70076247D02*
X151014286Y-69933390D01*
X151014286Y-69933390D02*
X151061905Y-69742914D01*
X151061905Y-69742914D02*
X151109524Y-69647676D01*
X151109524Y-69647676D02*
X151204762Y-69552438D01*
X151204762Y-69552438D02*
X151347619Y-69504819D01*
X151347619Y-69504819D02*
X151442857Y-69504819D01*
X151442857Y-69504819D02*
X151585714Y-69552438D01*
X151585714Y-69552438D02*
X151633333Y-69600057D01*
X151966667Y-69504819D02*
X152585714Y-69504819D01*
X152585714Y-69504819D02*
X152252381Y-69885771D01*
X152252381Y-69885771D02*
X152395238Y-69885771D01*
X152395238Y-69885771D02*
X152490476Y-69933390D01*
X152490476Y-69933390D02*
X152538095Y-69981009D01*
X152538095Y-69981009D02*
X152585714Y-70076247D01*
X152585714Y-70076247D02*
X152585714Y-70314342D01*
X152585714Y-70314342D02*
X152538095Y-70409580D01*
X152538095Y-70409580D02*
X152490476Y-70457200D01*
X152490476Y-70457200D02*
X152395238Y-70504819D01*
X152395238Y-70504819D02*
X152109524Y-70504819D01*
X152109524Y-70504819D02*
X152014286Y-70457200D01*
X152014286Y-70457200D02*
X151966667Y-70409580D01*
X104029999Y-60162438D02*
X103934761Y-60114819D01*
X103934761Y-60114819D02*
X103791904Y-60114819D01*
X103791904Y-60114819D02*
X103649047Y-60162438D01*
X103649047Y-60162438D02*
X103553809Y-60257676D01*
X103553809Y-60257676D02*
X103506190Y-60352914D01*
X103506190Y-60352914D02*
X103458571Y-60543390D01*
X103458571Y-60543390D02*
X103458571Y-60686247D01*
X103458571Y-60686247D02*
X103506190Y-60876723D01*
X103506190Y-60876723D02*
X103553809Y-60971961D01*
X103553809Y-60971961D02*
X103649047Y-61067200D01*
X103649047Y-61067200D02*
X103791904Y-61114819D01*
X103791904Y-61114819D02*
X103887142Y-61114819D01*
X103887142Y-61114819D02*
X104029999Y-61067200D01*
X104029999Y-61067200D02*
X104077618Y-61019580D01*
X104077618Y-61019580D02*
X104077618Y-60686247D01*
X104077618Y-60686247D02*
X103887142Y-60686247D01*
X104506190Y-61114819D02*
X104506190Y-60114819D01*
X104506190Y-60114819D02*
X105077618Y-61114819D01*
X105077618Y-61114819D02*
X105077618Y-60114819D01*
X105553809Y-61114819D02*
X105553809Y-60114819D01*
X105553809Y-60114819D02*
X105791904Y-60114819D01*
X105791904Y-60114819D02*
X105934761Y-60162438D01*
X105934761Y-60162438D02*
X106029999Y-60257676D01*
X106029999Y-60257676D02*
X106077618Y-60352914D01*
X106077618Y-60352914D02*
X106125237Y-60543390D01*
X106125237Y-60543390D02*
X106125237Y-60686247D01*
X106125237Y-60686247D02*
X106077618Y-60876723D01*
X106077618Y-60876723D02*
X106029999Y-60971961D01*
X106029999Y-60971961D02*
X105934761Y-61067200D01*
X105934761Y-61067200D02*
X105791904Y-61114819D01*
X105791904Y-61114819D02*
X105553809Y-61114819D01*
X106315714Y-61210057D02*
X107077618Y-61210057D01*
X107172857Y-60114819D02*
X107744285Y-60114819D01*
X107458571Y-61114819D02*
X107458571Y-60114819D01*
X108077619Y-61114819D02*
X108077619Y-60114819D01*
X108077619Y-60114819D02*
X108458571Y-60114819D01*
X108458571Y-60114819D02*
X108553809Y-60162438D01*
X108553809Y-60162438D02*
X108601428Y-60210057D01*
X108601428Y-60210057D02*
X108649047Y-60305295D01*
X108649047Y-60305295D02*
X108649047Y-60448152D01*
X108649047Y-60448152D02*
X108601428Y-60543390D01*
X108601428Y-60543390D02*
X108553809Y-60591009D01*
X108553809Y-60591009D02*
X108458571Y-60638628D01*
X108458571Y-60638628D02*
X108077619Y-60638628D01*
X109030000Y-60210057D02*
X109077619Y-60162438D01*
X109077619Y-60162438D02*
X109172857Y-60114819D01*
X109172857Y-60114819D02*
X109410952Y-60114819D01*
X109410952Y-60114819D02*
X109506190Y-60162438D01*
X109506190Y-60162438D02*
X109553809Y-60210057D01*
X109553809Y-60210057D02*
X109601428Y-60305295D01*
X109601428Y-60305295D02*
X109601428Y-60400533D01*
X109601428Y-60400533D02*
X109553809Y-60543390D01*
X109553809Y-60543390D02*
X108982381Y-61114819D01*
X108982381Y-61114819D02*
X109601428Y-61114819D01*
X121414819Y-74276666D02*
X120938628Y-74609999D01*
X121414819Y-74848094D02*
X120414819Y-74848094D01*
X120414819Y-74848094D02*
X120414819Y-74467142D01*
X120414819Y-74467142D02*
X120462438Y-74371904D01*
X120462438Y-74371904D02*
X120510057Y-74324285D01*
X120510057Y-74324285D02*
X120605295Y-74276666D01*
X120605295Y-74276666D02*
X120748152Y-74276666D01*
X120748152Y-74276666D02*
X120843390Y-74324285D01*
X120843390Y-74324285D02*
X120891009Y-74371904D01*
X120891009Y-74371904D02*
X120938628Y-74467142D01*
X120938628Y-74467142D02*
X120938628Y-74848094D01*
X121414819Y-73800475D02*
X121414819Y-73609999D01*
X121414819Y-73609999D02*
X121367200Y-73514761D01*
X121367200Y-73514761D02*
X121319580Y-73467142D01*
X121319580Y-73467142D02*
X121176723Y-73371904D01*
X121176723Y-73371904D02*
X120986247Y-73324285D01*
X120986247Y-73324285D02*
X120605295Y-73324285D01*
X120605295Y-73324285D02*
X120510057Y-73371904D01*
X120510057Y-73371904D02*
X120462438Y-73419523D01*
X120462438Y-73419523D02*
X120414819Y-73514761D01*
X120414819Y-73514761D02*
X120414819Y-73705237D01*
X120414819Y-73705237D02*
X120462438Y-73800475D01*
X120462438Y-73800475D02*
X120510057Y-73848094D01*
X120510057Y-73848094D02*
X120605295Y-73895713D01*
X120605295Y-73895713D02*
X120843390Y-73895713D01*
X120843390Y-73895713D02*
X120938628Y-73848094D01*
X120938628Y-73848094D02*
X120986247Y-73800475D01*
X120986247Y-73800475D02*
X121033866Y-73705237D01*
X121033866Y-73705237D02*
X121033866Y-73514761D01*
X121033866Y-73514761D02*
X120986247Y-73419523D01*
X120986247Y-73419523D02*
X120938628Y-73371904D01*
X120938628Y-73371904D02*
X120843390Y-73324285D01*
X152473333Y-53504819D02*
X152140000Y-53028628D01*
X151901905Y-53504819D02*
X151901905Y-52504819D01*
X151901905Y-52504819D02*
X152282857Y-52504819D01*
X152282857Y-52504819D02*
X152378095Y-52552438D01*
X152378095Y-52552438D02*
X152425714Y-52600057D01*
X152425714Y-52600057D02*
X152473333Y-52695295D01*
X152473333Y-52695295D02*
X152473333Y-52838152D01*
X152473333Y-52838152D02*
X152425714Y-52933390D01*
X152425714Y-52933390D02*
X152378095Y-52981009D01*
X152378095Y-52981009D02*
X152282857Y-53028628D01*
X152282857Y-53028628D02*
X151901905Y-53028628D01*
X153330476Y-52504819D02*
X153140000Y-52504819D01*
X153140000Y-52504819D02*
X153044762Y-52552438D01*
X153044762Y-52552438D02*
X152997143Y-52600057D01*
X152997143Y-52600057D02*
X152901905Y-52742914D01*
X152901905Y-52742914D02*
X152854286Y-52933390D01*
X152854286Y-52933390D02*
X152854286Y-53314342D01*
X152854286Y-53314342D02*
X152901905Y-53409580D01*
X152901905Y-53409580D02*
X152949524Y-53457200D01*
X152949524Y-53457200D02*
X153044762Y-53504819D01*
X153044762Y-53504819D02*
X153235238Y-53504819D01*
X153235238Y-53504819D02*
X153330476Y-53457200D01*
X153330476Y-53457200D02*
X153378095Y-53409580D01*
X153378095Y-53409580D02*
X153425714Y-53314342D01*
X153425714Y-53314342D02*
X153425714Y-53076247D01*
X153425714Y-53076247D02*
X153378095Y-52981009D01*
X153378095Y-52981009D02*
X153330476Y-52933390D01*
X153330476Y-52933390D02*
X153235238Y-52885771D01*
X153235238Y-52885771D02*
X153044762Y-52885771D01*
X153044762Y-52885771D02*
X152949524Y-52933390D01*
X152949524Y-52933390D02*
X152901905Y-52981009D01*
X152901905Y-52981009D02*
X152854286Y-53076247D01*
X157659047Y-79927200D02*
X157801904Y-79974819D01*
X157801904Y-79974819D02*
X158039999Y-79974819D01*
X158039999Y-79974819D02*
X158135237Y-79927200D01*
X158135237Y-79927200D02*
X158182856Y-79879580D01*
X158182856Y-79879580D02*
X158230475Y-79784342D01*
X158230475Y-79784342D02*
X158230475Y-79689104D01*
X158230475Y-79689104D02*
X158182856Y-79593866D01*
X158182856Y-79593866D02*
X158135237Y-79546247D01*
X158135237Y-79546247D02*
X158039999Y-79498628D01*
X158039999Y-79498628D02*
X157849523Y-79451009D01*
X157849523Y-79451009D02*
X157754285Y-79403390D01*
X157754285Y-79403390D02*
X157706666Y-79355771D01*
X157706666Y-79355771D02*
X157659047Y-79260533D01*
X157659047Y-79260533D02*
X157659047Y-79165295D01*
X157659047Y-79165295D02*
X157706666Y-79070057D01*
X157706666Y-79070057D02*
X157754285Y-79022438D01*
X157754285Y-79022438D02*
X157849523Y-78974819D01*
X157849523Y-78974819D02*
X158087618Y-78974819D01*
X158087618Y-78974819D02*
X158230475Y-79022438D01*
X158659047Y-79974819D02*
X158659047Y-79308152D01*
X158659047Y-78974819D02*
X158611428Y-79022438D01*
X158611428Y-79022438D02*
X158659047Y-79070057D01*
X158659047Y-79070057D02*
X158706666Y-79022438D01*
X158706666Y-79022438D02*
X158659047Y-78974819D01*
X158659047Y-78974819D02*
X158659047Y-79070057D01*
X159563808Y-79308152D02*
X159563808Y-80117676D01*
X159563808Y-80117676D02*
X159516189Y-80212914D01*
X159516189Y-80212914D02*
X159468570Y-80260533D01*
X159468570Y-80260533D02*
X159373332Y-80308152D01*
X159373332Y-80308152D02*
X159230475Y-80308152D01*
X159230475Y-80308152D02*
X159135237Y-80260533D01*
X159563808Y-79927200D02*
X159468570Y-79974819D01*
X159468570Y-79974819D02*
X159278094Y-79974819D01*
X159278094Y-79974819D02*
X159182856Y-79927200D01*
X159182856Y-79927200D02*
X159135237Y-79879580D01*
X159135237Y-79879580D02*
X159087618Y-79784342D01*
X159087618Y-79784342D02*
X159087618Y-79498628D01*
X159087618Y-79498628D02*
X159135237Y-79403390D01*
X159135237Y-79403390D02*
X159182856Y-79355771D01*
X159182856Y-79355771D02*
X159278094Y-79308152D01*
X159278094Y-79308152D02*
X159468570Y-79308152D01*
X159468570Y-79308152D02*
X159563808Y-79355771D01*
X160039999Y-79308152D02*
X160039999Y-79974819D01*
X160039999Y-79403390D02*
X160087618Y-79355771D01*
X160087618Y-79355771D02*
X160182856Y-79308152D01*
X160182856Y-79308152D02*
X160325713Y-79308152D01*
X160325713Y-79308152D02*
X160420951Y-79355771D01*
X160420951Y-79355771D02*
X160468570Y-79451009D01*
X160468570Y-79451009D02*
X160468570Y-79974819D01*
X161373332Y-79974819D02*
X161373332Y-79451009D01*
X161373332Y-79451009D02*
X161325713Y-79355771D01*
X161325713Y-79355771D02*
X161230475Y-79308152D01*
X161230475Y-79308152D02*
X161039999Y-79308152D01*
X161039999Y-79308152D02*
X160944761Y-79355771D01*
X161373332Y-79927200D02*
X161278094Y-79974819D01*
X161278094Y-79974819D02*
X161039999Y-79974819D01*
X161039999Y-79974819D02*
X160944761Y-79927200D01*
X160944761Y-79927200D02*
X160897142Y-79831961D01*
X160897142Y-79831961D02*
X160897142Y-79736723D01*
X160897142Y-79736723D02*
X160944761Y-79641485D01*
X160944761Y-79641485D02*
X161039999Y-79593866D01*
X161039999Y-79593866D02*
X161278094Y-79593866D01*
X161278094Y-79593866D02*
X161373332Y-79546247D01*
X161992380Y-79974819D02*
X161897142Y-79927200D01*
X161897142Y-79927200D02*
X161849523Y-79831961D01*
X161849523Y-79831961D02*
X161849523Y-78974819D01*
X162135238Y-80070057D02*
X162897142Y-80070057D01*
X162992381Y-78974819D02*
X163563809Y-78974819D01*
X163278095Y-79974819D02*
X163278095Y-78974819D01*
X163897143Y-79974819D02*
X163897143Y-78974819D01*
X163897143Y-78974819D02*
X164278095Y-78974819D01*
X164278095Y-78974819D02*
X164373333Y-79022438D01*
X164373333Y-79022438D02*
X164420952Y-79070057D01*
X164420952Y-79070057D02*
X164468571Y-79165295D01*
X164468571Y-79165295D02*
X164468571Y-79308152D01*
X164468571Y-79308152D02*
X164420952Y-79403390D01*
X164420952Y-79403390D02*
X164373333Y-79451009D01*
X164373333Y-79451009D02*
X164278095Y-79498628D01*
X164278095Y-79498628D02*
X163897143Y-79498628D01*
X165420952Y-79974819D02*
X164849524Y-79974819D01*
X165135238Y-79974819D02*
X165135238Y-78974819D01*
X165135238Y-78974819D02*
X165040000Y-79117676D01*
X165040000Y-79117676D02*
X164944762Y-79212914D01*
X164944762Y-79212914D02*
X164849524Y-79260533D01*
X138941905Y-67124819D02*
X138941905Y-66124819D01*
X138941905Y-66124819D02*
X139180000Y-66124819D01*
X139180000Y-66124819D02*
X139322857Y-66172438D01*
X139322857Y-66172438D02*
X139418095Y-66267676D01*
X139418095Y-66267676D02*
X139465714Y-66362914D01*
X139465714Y-66362914D02*
X139513333Y-66553390D01*
X139513333Y-66553390D02*
X139513333Y-66696247D01*
X139513333Y-66696247D02*
X139465714Y-66886723D01*
X139465714Y-66886723D02*
X139418095Y-66981961D01*
X139418095Y-66981961D02*
X139322857Y-67077200D01*
X139322857Y-67077200D02*
X139180000Y-67124819D01*
X139180000Y-67124819D02*
X138941905Y-67124819D01*
X140370476Y-66458152D02*
X140370476Y-67124819D01*
X140132381Y-66077200D02*
X139894286Y-66791485D01*
X139894286Y-66791485D02*
X140513333Y-66791485D01*
X121344819Y-87012857D02*
X120868628Y-87346190D01*
X121344819Y-87584285D02*
X120344819Y-87584285D01*
X120344819Y-87584285D02*
X120344819Y-87203333D01*
X120344819Y-87203333D02*
X120392438Y-87108095D01*
X120392438Y-87108095D02*
X120440057Y-87060476D01*
X120440057Y-87060476D02*
X120535295Y-87012857D01*
X120535295Y-87012857D02*
X120678152Y-87012857D01*
X120678152Y-87012857D02*
X120773390Y-87060476D01*
X120773390Y-87060476D02*
X120821009Y-87108095D01*
X120821009Y-87108095D02*
X120868628Y-87203333D01*
X120868628Y-87203333D02*
X120868628Y-87584285D01*
X121344819Y-86060476D02*
X121344819Y-86631904D01*
X121344819Y-86346190D02*
X120344819Y-86346190D01*
X120344819Y-86346190D02*
X120487676Y-86441428D01*
X120487676Y-86441428D02*
X120582914Y-86536666D01*
X120582914Y-86536666D02*
X120630533Y-86631904D01*
X121344819Y-85108095D02*
X121344819Y-85679523D01*
X121344819Y-85393809D02*
X120344819Y-85393809D01*
X120344819Y-85393809D02*
X120487676Y-85489047D01*
X120487676Y-85489047D02*
X120582914Y-85584285D01*
X120582914Y-85584285D02*
X120630533Y-85679523D01*
X103299580Y-74256666D02*
X103347200Y-74304285D01*
X103347200Y-74304285D02*
X103394819Y-74447142D01*
X103394819Y-74447142D02*
X103394819Y-74542380D01*
X103394819Y-74542380D02*
X103347200Y-74685237D01*
X103347200Y-74685237D02*
X103251961Y-74780475D01*
X103251961Y-74780475D02*
X103156723Y-74828094D01*
X103156723Y-74828094D02*
X102966247Y-74875713D01*
X102966247Y-74875713D02*
X102823390Y-74875713D01*
X102823390Y-74875713D02*
X102632914Y-74828094D01*
X102632914Y-74828094D02*
X102537676Y-74780475D01*
X102537676Y-74780475D02*
X102442438Y-74685237D01*
X102442438Y-74685237D02*
X102394819Y-74542380D01*
X102394819Y-74542380D02*
X102394819Y-74447142D01*
X102394819Y-74447142D02*
X102442438Y-74304285D01*
X102442438Y-74304285D02*
X102490057Y-74256666D01*
X102394819Y-73351904D02*
X102394819Y-73828094D01*
X102394819Y-73828094D02*
X102871009Y-73875713D01*
X102871009Y-73875713D02*
X102823390Y-73828094D01*
X102823390Y-73828094D02*
X102775771Y-73732856D01*
X102775771Y-73732856D02*
X102775771Y-73494761D01*
X102775771Y-73494761D02*
X102823390Y-73399523D01*
X102823390Y-73399523D02*
X102871009Y-73351904D01*
X102871009Y-73351904D02*
X102966247Y-73304285D01*
X102966247Y-73304285D02*
X103204342Y-73304285D01*
X103204342Y-73304285D02*
X103299580Y-73351904D01*
X103299580Y-73351904D02*
X103347200Y-73399523D01*
X103347200Y-73399523D02*
X103394819Y-73494761D01*
X103394819Y-73494761D02*
X103394819Y-73732856D01*
X103394819Y-73732856D02*
X103347200Y-73828094D01*
X103347200Y-73828094D02*
X103299580Y-73875713D01*
X146371905Y-67304819D02*
X146371905Y-66304819D01*
X146371905Y-66304819D02*
X146610000Y-66304819D01*
X146610000Y-66304819D02*
X146752857Y-66352438D01*
X146752857Y-66352438D02*
X146848095Y-66447676D01*
X146848095Y-66447676D02*
X146895714Y-66542914D01*
X146895714Y-66542914D02*
X146943333Y-66733390D01*
X146943333Y-66733390D02*
X146943333Y-66876247D01*
X146943333Y-66876247D02*
X146895714Y-67066723D01*
X146895714Y-67066723D02*
X146848095Y-67161961D01*
X146848095Y-67161961D02*
X146752857Y-67257200D01*
X146752857Y-67257200D02*
X146610000Y-67304819D01*
X146610000Y-67304819D02*
X146371905Y-67304819D01*
X147276667Y-66304819D02*
X147895714Y-66304819D01*
X147895714Y-66304819D02*
X147562381Y-66685771D01*
X147562381Y-66685771D02*
X147705238Y-66685771D01*
X147705238Y-66685771D02*
X147800476Y-66733390D01*
X147800476Y-66733390D02*
X147848095Y-66781009D01*
X147848095Y-66781009D02*
X147895714Y-66876247D01*
X147895714Y-66876247D02*
X147895714Y-67114342D01*
X147895714Y-67114342D02*
X147848095Y-67209580D01*
X147848095Y-67209580D02*
X147800476Y-67257200D01*
X147800476Y-67257200D02*
X147705238Y-67304819D01*
X147705238Y-67304819D02*
X147419524Y-67304819D01*
X147419524Y-67304819D02*
X147324286Y-67257200D01*
X147324286Y-67257200D02*
X147276667Y-67209580D01*
X142000476Y-86704819D02*
X142190952Y-86704819D01*
X142190952Y-86704819D02*
X142286190Y-86752438D01*
X142286190Y-86752438D02*
X142381428Y-86847676D01*
X142381428Y-86847676D02*
X142429047Y-87038152D01*
X142429047Y-87038152D02*
X142429047Y-87371485D01*
X142429047Y-87371485D02*
X142381428Y-87561961D01*
X142381428Y-87561961D02*
X142286190Y-87657200D01*
X142286190Y-87657200D02*
X142190952Y-87704819D01*
X142190952Y-87704819D02*
X142000476Y-87704819D01*
X142000476Y-87704819D02*
X141905238Y-87657200D01*
X141905238Y-87657200D02*
X141810000Y-87561961D01*
X141810000Y-87561961D02*
X141762381Y-87371485D01*
X141762381Y-87371485D02*
X141762381Y-87038152D01*
X141762381Y-87038152D02*
X141810000Y-86847676D01*
X141810000Y-86847676D02*
X141905238Y-86752438D01*
X141905238Y-86752438D02*
X142000476Y-86704819D01*
X142857619Y-87704819D02*
X142857619Y-86704819D01*
X142857619Y-86704819D02*
X143238571Y-86704819D01*
X143238571Y-86704819D02*
X143333809Y-86752438D01*
X143333809Y-86752438D02*
X143381428Y-86800057D01*
X143381428Y-86800057D02*
X143429047Y-86895295D01*
X143429047Y-86895295D02*
X143429047Y-87038152D01*
X143429047Y-87038152D02*
X143381428Y-87133390D01*
X143381428Y-87133390D02*
X143333809Y-87181009D01*
X143333809Y-87181009D02*
X143238571Y-87228628D01*
X143238571Y-87228628D02*
X142857619Y-87228628D01*
X143810000Y-86800057D02*
X143857619Y-86752438D01*
X143857619Y-86752438D02*
X143952857Y-86704819D01*
X143952857Y-86704819D02*
X144190952Y-86704819D01*
X144190952Y-86704819D02*
X144286190Y-86752438D01*
X144286190Y-86752438D02*
X144333809Y-86800057D01*
X144333809Y-86800057D02*
X144381428Y-86895295D01*
X144381428Y-86895295D02*
X144381428Y-86990533D01*
X144381428Y-86990533D02*
X144333809Y-87133390D01*
X144333809Y-87133390D02*
X143762381Y-87704819D01*
X143762381Y-87704819D02*
X144381428Y-87704819D01*
X144571905Y-87800057D02*
X145333809Y-87800057D01*
X145429048Y-86704819D02*
X146000476Y-86704819D01*
X145714762Y-87704819D02*
X145714762Y-86704819D01*
X146333810Y-87704819D02*
X146333810Y-86704819D01*
X146333810Y-86704819D02*
X146714762Y-86704819D01*
X146714762Y-86704819D02*
X146810000Y-86752438D01*
X146810000Y-86752438D02*
X146857619Y-86800057D01*
X146857619Y-86800057D02*
X146905238Y-86895295D01*
X146905238Y-86895295D02*
X146905238Y-87038152D01*
X146905238Y-87038152D02*
X146857619Y-87133390D01*
X146857619Y-87133390D02*
X146810000Y-87181009D01*
X146810000Y-87181009D02*
X146714762Y-87228628D01*
X146714762Y-87228628D02*
X146333810Y-87228628D01*
X147857619Y-87704819D02*
X147286191Y-87704819D01*
X147571905Y-87704819D02*
X147571905Y-86704819D01*
X147571905Y-86704819D02*
X147476667Y-86847676D01*
X147476667Y-86847676D02*
X147381429Y-86942914D01*
X147381429Y-86942914D02*
X147286191Y-86990533D01*
X142747142Y-96264819D02*
X142413809Y-95788628D01*
X142175714Y-96264819D02*
X142175714Y-95264819D01*
X142175714Y-95264819D02*
X142556666Y-95264819D01*
X142556666Y-95264819D02*
X142651904Y-95312438D01*
X142651904Y-95312438D02*
X142699523Y-95360057D01*
X142699523Y-95360057D02*
X142747142Y-95455295D01*
X142747142Y-95455295D02*
X142747142Y-95598152D01*
X142747142Y-95598152D02*
X142699523Y-95693390D01*
X142699523Y-95693390D02*
X142651904Y-95741009D01*
X142651904Y-95741009D02*
X142556666Y-95788628D01*
X142556666Y-95788628D02*
X142175714Y-95788628D01*
X143699523Y-96264819D02*
X143128095Y-96264819D01*
X143413809Y-96264819D02*
X143413809Y-95264819D01*
X143413809Y-95264819D02*
X143318571Y-95407676D01*
X143318571Y-95407676D02*
X143223333Y-95502914D01*
X143223333Y-95502914D02*
X143128095Y-95550533D01*
X144080476Y-95360057D02*
X144128095Y-95312438D01*
X144128095Y-95312438D02*
X144223333Y-95264819D01*
X144223333Y-95264819D02*
X144461428Y-95264819D01*
X144461428Y-95264819D02*
X144556666Y-95312438D01*
X144556666Y-95312438D02*
X144604285Y-95360057D01*
X144604285Y-95360057D02*
X144651904Y-95455295D01*
X144651904Y-95455295D02*
X144651904Y-95550533D01*
X144651904Y-95550533D02*
X144604285Y-95693390D01*
X144604285Y-95693390D02*
X144032857Y-96264819D01*
X144032857Y-96264819D02*
X144651904Y-96264819D01*
X139753333Y-81114819D02*
X139420000Y-80638628D01*
X139181905Y-81114819D02*
X139181905Y-80114819D01*
X139181905Y-80114819D02*
X139562857Y-80114819D01*
X139562857Y-80114819D02*
X139658095Y-80162438D01*
X139658095Y-80162438D02*
X139705714Y-80210057D01*
X139705714Y-80210057D02*
X139753333Y-80305295D01*
X139753333Y-80305295D02*
X139753333Y-80448152D01*
X139753333Y-80448152D02*
X139705714Y-80543390D01*
X139705714Y-80543390D02*
X139658095Y-80591009D01*
X139658095Y-80591009D02*
X139562857Y-80638628D01*
X139562857Y-80638628D02*
X139181905Y-80638628D01*
X140086667Y-80114819D02*
X140705714Y-80114819D01*
X140705714Y-80114819D02*
X140372381Y-80495771D01*
X140372381Y-80495771D02*
X140515238Y-80495771D01*
X140515238Y-80495771D02*
X140610476Y-80543390D01*
X140610476Y-80543390D02*
X140658095Y-80591009D01*
X140658095Y-80591009D02*
X140705714Y-80686247D01*
X140705714Y-80686247D02*
X140705714Y-80924342D01*
X140705714Y-80924342D02*
X140658095Y-81019580D01*
X140658095Y-81019580D02*
X140610476Y-81067200D01*
X140610476Y-81067200D02*
X140515238Y-81114819D01*
X140515238Y-81114819D02*
X140229524Y-81114819D01*
X140229524Y-81114819D02*
X140134286Y-81067200D01*
X140134286Y-81067200D02*
X140086667Y-81019580D01*
X156473333Y-88989580D02*
X156425714Y-89037200D01*
X156425714Y-89037200D02*
X156282857Y-89084819D01*
X156282857Y-89084819D02*
X156187619Y-89084819D01*
X156187619Y-89084819D02*
X156044762Y-89037200D01*
X156044762Y-89037200D02*
X155949524Y-88941961D01*
X155949524Y-88941961D02*
X155901905Y-88846723D01*
X155901905Y-88846723D02*
X155854286Y-88656247D01*
X155854286Y-88656247D02*
X155854286Y-88513390D01*
X155854286Y-88513390D02*
X155901905Y-88322914D01*
X155901905Y-88322914D02*
X155949524Y-88227676D01*
X155949524Y-88227676D02*
X156044762Y-88132438D01*
X156044762Y-88132438D02*
X156187619Y-88084819D01*
X156187619Y-88084819D02*
X156282857Y-88084819D01*
X156282857Y-88084819D02*
X156425714Y-88132438D01*
X156425714Y-88132438D02*
X156473333Y-88180057D01*
X157425714Y-89084819D02*
X156854286Y-89084819D01*
X157140000Y-89084819D02*
X157140000Y-88084819D01*
X157140000Y-88084819D02*
X157044762Y-88227676D01*
X157044762Y-88227676D02*
X156949524Y-88322914D01*
X156949524Y-88322914D02*
X156854286Y-88370533D01*
X158702438Y-69380000D02*
X158654819Y-69475238D01*
X158654819Y-69475238D02*
X158654819Y-69618095D01*
X158654819Y-69618095D02*
X158702438Y-69760952D01*
X158702438Y-69760952D02*
X158797676Y-69856190D01*
X158797676Y-69856190D02*
X158892914Y-69903809D01*
X158892914Y-69903809D02*
X159083390Y-69951428D01*
X159083390Y-69951428D02*
X159226247Y-69951428D01*
X159226247Y-69951428D02*
X159416723Y-69903809D01*
X159416723Y-69903809D02*
X159511961Y-69856190D01*
X159511961Y-69856190D02*
X159607200Y-69760952D01*
X159607200Y-69760952D02*
X159654819Y-69618095D01*
X159654819Y-69618095D02*
X159654819Y-69522857D01*
X159654819Y-69522857D02*
X159607200Y-69380000D01*
X159607200Y-69380000D02*
X159559580Y-69332381D01*
X159559580Y-69332381D02*
X159226247Y-69332381D01*
X159226247Y-69332381D02*
X159226247Y-69522857D01*
X159654819Y-68903809D02*
X158654819Y-68903809D01*
X158654819Y-68903809D02*
X159654819Y-68332381D01*
X159654819Y-68332381D02*
X158654819Y-68332381D01*
X159654819Y-67856190D02*
X158654819Y-67856190D01*
X158654819Y-67856190D02*
X158654819Y-67618095D01*
X158654819Y-67618095D02*
X158702438Y-67475238D01*
X158702438Y-67475238D02*
X158797676Y-67380000D01*
X158797676Y-67380000D02*
X158892914Y-67332381D01*
X158892914Y-67332381D02*
X159083390Y-67284762D01*
X159083390Y-67284762D02*
X159226247Y-67284762D01*
X159226247Y-67284762D02*
X159416723Y-67332381D01*
X159416723Y-67332381D02*
X159511961Y-67380000D01*
X159511961Y-67380000D02*
X159607200Y-67475238D01*
X159607200Y-67475238D02*
X159654819Y-67618095D01*
X159654819Y-67618095D02*
X159654819Y-67856190D01*
X159750057Y-67094286D02*
X159750057Y-66332381D01*
X158654819Y-66237142D02*
X158654819Y-65665714D01*
X159654819Y-65951428D02*
X158654819Y-65951428D01*
X159654819Y-65332380D02*
X158654819Y-65332380D01*
X158654819Y-65332380D02*
X158654819Y-64951428D01*
X158654819Y-64951428D02*
X158702438Y-64856190D01*
X158702438Y-64856190D02*
X158750057Y-64808571D01*
X158750057Y-64808571D02*
X158845295Y-64760952D01*
X158845295Y-64760952D02*
X158988152Y-64760952D01*
X158988152Y-64760952D02*
X159083390Y-64808571D01*
X159083390Y-64808571D02*
X159131009Y-64856190D01*
X159131009Y-64856190D02*
X159178628Y-64951428D01*
X159178628Y-64951428D02*
X159178628Y-65332380D01*
X158654819Y-63856190D02*
X158654819Y-64332380D01*
X158654819Y-64332380D02*
X159131009Y-64379999D01*
X159131009Y-64379999D02*
X159083390Y-64332380D01*
X159083390Y-64332380D02*
X159035771Y-64237142D01*
X159035771Y-64237142D02*
X159035771Y-63999047D01*
X159035771Y-63999047D02*
X159083390Y-63903809D01*
X159083390Y-63903809D02*
X159131009Y-63856190D01*
X159131009Y-63856190D02*
X159226247Y-63808571D01*
X159226247Y-63808571D02*
X159464342Y-63808571D01*
X159464342Y-63808571D02*
X159559580Y-63856190D01*
X159559580Y-63856190D02*
X159607200Y-63903809D01*
X159607200Y-63903809D02*
X159654819Y-63999047D01*
X159654819Y-63999047D02*
X159654819Y-64237142D01*
X159654819Y-64237142D02*
X159607200Y-64332380D01*
X159607200Y-64332380D02*
X159559580Y-64379999D01*
X112073333Y-85589580D02*
X112025714Y-85637200D01*
X112025714Y-85637200D02*
X111882857Y-85684819D01*
X111882857Y-85684819D02*
X111787619Y-85684819D01*
X111787619Y-85684819D02*
X111644762Y-85637200D01*
X111644762Y-85637200D02*
X111549524Y-85541961D01*
X111549524Y-85541961D02*
X111501905Y-85446723D01*
X111501905Y-85446723D02*
X111454286Y-85256247D01*
X111454286Y-85256247D02*
X111454286Y-85113390D01*
X111454286Y-85113390D02*
X111501905Y-84922914D01*
X111501905Y-84922914D02*
X111549524Y-84827676D01*
X111549524Y-84827676D02*
X111644762Y-84732438D01*
X111644762Y-84732438D02*
X111787619Y-84684819D01*
X111787619Y-84684819D02*
X111882857Y-84684819D01*
X111882857Y-84684819D02*
X112025714Y-84732438D01*
X112025714Y-84732438D02*
X112073333Y-84780057D01*
X112930476Y-84684819D02*
X112740000Y-84684819D01*
X112740000Y-84684819D02*
X112644762Y-84732438D01*
X112644762Y-84732438D02*
X112597143Y-84780057D01*
X112597143Y-84780057D02*
X112501905Y-84922914D01*
X112501905Y-84922914D02*
X112454286Y-85113390D01*
X112454286Y-85113390D02*
X112454286Y-85494342D01*
X112454286Y-85494342D02*
X112501905Y-85589580D01*
X112501905Y-85589580D02*
X112549524Y-85637200D01*
X112549524Y-85637200D02*
X112644762Y-85684819D01*
X112644762Y-85684819D02*
X112835238Y-85684819D01*
X112835238Y-85684819D02*
X112930476Y-85637200D01*
X112930476Y-85637200D02*
X112978095Y-85589580D01*
X112978095Y-85589580D02*
X113025714Y-85494342D01*
X113025714Y-85494342D02*
X113025714Y-85256247D01*
X113025714Y-85256247D02*
X112978095Y-85161009D01*
X112978095Y-85161009D02*
X112930476Y-85113390D01*
X112930476Y-85113390D02*
X112835238Y-85065771D01*
X112835238Y-85065771D02*
X112644762Y-85065771D01*
X112644762Y-85065771D02*
X112549524Y-85113390D01*
X112549524Y-85113390D02*
X112501905Y-85161009D01*
X112501905Y-85161009D02*
X112454286Y-85256247D01*
X164744819Y-57736666D02*
X164268628Y-58069999D01*
X164744819Y-58308094D02*
X163744819Y-58308094D01*
X163744819Y-58308094D02*
X163744819Y-57927142D01*
X163744819Y-57927142D02*
X163792438Y-57831904D01*
X163792438Y-57831904D02*
X163840057Y-57784285D01*
X163840057Y-57784285D02*
X163935295Y-57736666D01*
X163935295Y-57736666D02*
X164078152Y-57736666D01*
X164078152Y-57736666D02*
X164173390Y-57784285D01*
X164173390Y-57784285D02*
X164221009Y-57831904D01*
X164221009Y-57831904D02*
X164268628Y-57927142D01*
X164268628Y-57927142D02*
X164268628Y-58308094D01*
X163744819Y-56831904D02*
X163744819Y-57308094D01*
X163744819Y-57308094D02*
X164221009Y-57355713D01*
X164221009Y-57355713D02*
X164173390Y-57308094D01*
X164173390Y-57308094D02*
X164125771Y-57212856D01*
X164125771Y-57212856D02*
X164125771Y-56974761D01*
X164125771Y-56974761D02*
X164173390Y-56879523D01*
X164173390Y-56879523D02*
X164221009Y-56831904D01*
X164221009Y-56831904D02*
X164316247Y-56784285D01*
X164316247Y-56784285D02*
X164554342Y-56784285D01*
X164554342Y-56784285D02*
X164649580Y-56831904D01*
X164649580Y-56831904D02*
X164697200Y-56879523D01*
X164697200Y-56879523D02*
X164744819Y-56974761D01*
X164744819Y-56974761D02*
X164744819Y-57212856D01*
X164744819Y-57212856D02*
X164697200Y-57308094D01*
X164697200Y-57308094D02*
X164649580Y-57355713D01*
X153961905Y-67404819D02*
X153961905Y-66404819D01*
X153961905Y-66404819D02*
X154200000Y-66404819D01*
X154200000Y-66404819D02*
X154342857Y-66452438D01*
X154342857Y-66452438D02*
X154438095Y-66547676D01*
X154438095Y-66547676D02*
X154485714Y-66642914D01*
X154485714Y-66642914D02*
X154533333Y-66833390D01*
X154533333Y-66833390D02*
X154533333Y-66976247D01*
X154533333Y-66976247D02*
X154485714Y-67166723D01*
X154485714Y-67166723D02*
X154438095Y-67261961D01*
X154438095Y-67261961D02*
X154342857Y-67357200D01*
X154342857Y-67357200D02*
X154200000Y-67404819D01*
X154200000Y-67404819D02*
X153961905Y-67404819D01*
X154914286Y-66500057D02*
X154961905Y-66452438D01*
X154961905Y-66452438D02*
X155057143Y-66404819D01*
X155057143Y-66404819D02*
X155295238Y-66404819D01*
X155295238Y-66404819D02*
X155390476Y-66452438D01*
X155390476Y-66452438D02*
X155438095Y-66500057D01*
X155438095Y-66500057D02*
X155485714Y-66595295D01*
X155485714Y-66595295D02*
X155485714Y-66690533D01*
X155485714Y-66690533D02*
X155438095Y-66833390D01*
X155438095Y-66833390D02*
X154866667Y-67404819D01*
X154866667Y-67404819D02*
X155485714Y-67404819D01*
X125163333Y-53864819D02*
X124830000Y-53388628D01*
X124591905Y-53864819D02*
X124591905Y-52864819D01*
X124591905Y-52864819D02*
X124972857Y-52864819D01*
X124972857Y-52864819D02*
X125068095Y-52912438D01*
X125068095Y-52912438D02*
X125115714Y-52960057D01*
X125115714Y-52960057D02*
X125163333Y-53055295D01*
X125163333Y-53055295D02*
X125163333Y-53198152D01*
X125163333Y-53198152D02*
X125115714Y-53293390D01*
X125115714Y-53293390D02*
X125068095Y-53341009D01*
X125068095Y-53341009D02*
X124972857Y-53388628D01*
X124972857Y-53388628D02*
X124591905Y-53388628D01*
X126115714Y-53864819D02*
X125544286Y-53864819D01*
X125830000Y-53864819D02*
X125830000Y-52864819D01*
X125830000Y-52864819D02*
X125734762Y-53007676D01*
X125734762Y-53007676D02*
X125639524Y-53102914D01*
X125639524Y-53102914D02*
X125544286Y-53150533D01*
X162226666Y-86074819D02*
X162559999Y-87074819D01*
X162559999Y-87074819D02*
X162893332Y-86074819D01*
X163083809Y-86408152D02*
X163464761Y-86408152D01*
X163226666Y-86074819D02*
X163226666Y-86931961D01*
X163226666Y-86931961D02*
X163274285Y-87027200D01*
X163274285Y-87027200D02*
X163369523Y-87074819D01*
X163369523Y-87074819D02*
X163464761Y-87074819D01*
X164226666Y-86408152D02*
X164226666Y-87217676D01*
X164226666Y-87217676D02*
X164179047Y-87312914D01*
X164179047Y-87312914D02*
X164131428Y-87360533D01*
X164131428Y-87360533D02*
X164036190Y-87408152D01*
X164036190Y-87408152D02*
X163893333Y-87408152D01*
X163893333Y-87408152D02*
X163798095Y-87360533D01*
X164226666Y-87027200D02*
X164131428Y-87074819D01*
X164131428Y-87074819D02*
X163940952Y-87074819D01*
X163940952Y-87074819D02*
X163845714Y-87027200D01*
X163845714Y-87027200D02*
X163798095Y-86979580D01*
X163798095Y-86979580D02*
X163750476Y-86884342D01*
X163750476Y-86884342D02*
X163750476Y-86598628D01*
X163750476Y-86598628D02*
X163798095Y-86503390D01*
X163798095Y-86503390D02*
X163845714Y-86455771D01*
X163845714Y-86455771D02*
X163940952Y-86408152D01*
X163940952Y-86408152D02*
X164131428Y-86408152D01*
X164131428Y-86408152D02*
X164226666Y-86455771D01*
X164702857Y-87074819D02*
X164702857Y-86074819D01*
X164702857Y-86074819D02*
X164940952Y-86074819D01*
X164940952Y-86074819D02*
X165083809Y-86122438D01*
X165083809Y-86122438D02*
X165179047Y-86217676D01*
X165179047Y-86217676D02*
X165226666Y-86312914D01*
X165226666Y-86312914D02*
X165274285Y-86503390D01*
X165274285Y-86503390D02*
X165274285Y-86646247D01*
X165274285Y-86646247D02*
X165226666Y-86836723D01*
X165226666Y-86836723D02*
X165179047Y-86931961D01*
X165179047Y-86931961D02*
X165083809Y-87027200D01*
X165083809Y-87027200D02*
X164940952Y-87074819D01*
X164940952Y-87074819D02*
X164702857Y-87074819D01*
X165464762Y-87170057D02*
X166226666Y-87170057D01*
X166321905Y-86074819D02*
X166893333Y-86074819D01*
X166607619Y-87074819D02*
X166607619Y-86074819D01*
X167226667Y-87074819D02*
X167226667Y-86074819D01*
X167226667Y-86074819D02*
X167607619Y-86074819D01*
X167607619Y-86074819D02*
X167702857Y-86122438D01*
X167702857Y-86122438D02*
X167750476Y-86170057D01*
X167750476Y-86170057D02*
X167798095Y-86265295D01*
X167798095Y-86265295D02*
X167798095Y-86408152D01*
X167798095Y-86408152D02*
X167750476Y-86503390D01*
X167750476Y-86503390D02*
X167702857Y-86551009D01*
X167702857Y-86551009D02*
X167607619Y-86598628D01*
X167607619Y-86598628D02*
X167226667Y-86598628D01*
X103349999Y-47622438D02*
X103254761Y-47574819D01*
X103254761Y-47574819D02*
X103111904Y-47574819D01*
X103111904Y-47574819D02*
X102969047Y-47622438D01*
X102969047Y-47622438D02*
X102873809Y-47717676D01*
X102873809Y-47717676D02*
X102826190Y-47812914D01*
X102826190Y-47812914D02*
X102778571Y-48003390D01*
X102778571Y-48003390D02*
X102778571Y-48146247D01*
X102778571Y-48146247D02*
X102826190Y-48336723D01*
X102826190Y-48336723D02*
X102873809Y-48431961D01*
X102873809Y-48431961D02*
X102969047Y-48527200D01*
X102969047Y-48527200D02*
X103111904Y-48574819D01*
X103111904Y-48574819D02*
X103207142Y-48574819D01*
X103207142Y-48574819D02*
X103349999Y-48527200D01*
X103349999Y-48527200D02*
X103397618Y-48479580D01*
X103397618Y-48479580D02*
X103397618Y-48146247D01*
X103397618Y-48146247D02*
X103207142Y-48146247D01*
X103826190Y-48574819D02*
X103826190Y-47574819D01*
X103826190Y-47574819D02*
X104397618Y-48574819D01*
X104397618Y-48574819D02*
X104397618Y-47574819D01*
X104873809Y-48574819D02*
X104873809Y-47574819D01*
X104873809Y-47574819D02*
X105111904Y-47574819D01*
X105111904Y-47574819D02*
X105254761Y-47622438D01*
X105254761Y-47622438D02*
X105349999Y-47717676D01*
X105349999Y-47717676D02*
X105397618Y-47812914D01*
X105397618Y-47812914D02*
X105445237Y-48003390D01*
X105445237Y-48003390D02*
X105445237Y-48146247D01*
X105445237Y-48146247D02*
X105397618Y-48336723D01*
X105397618Y-48336723D02*
X105349999Y-48431961D01*
X105349999Y-48431961D02*
X105254761Y-48527200D01*
X105254761Y-48527200D02*
X105111904Y-48574819D01*
X105111904Y-48574819D02*
X104873809Y-48574819D01*
X105635714Y-48670057D02*
X106397618Y-48670057D01*
X106492857Y-47574819D02*
X107064285Y-47574819D01*
X106778571Y-48574819D02*
X106778571Y-47574819D01*
X107397619Y-48574819D02*
X107397619Y-47574819D01*
X107397619Y-47574819D02*
X107778571Y-47574819D01*
X107778571Y-47574819D02*
X107873809Y-47622438D01*
X107873809Y-47622438D02*
X107921428Y-47670057D01*
X107921428Y-47670057D02*
X107969047Y-47765295D01*
X107969047Y-47765295D02*
X107969047Y-47908152D01*
X107969047Y-47908152D02*
X107921428Y-48003390D01*
X107921428Y-48003390D02*
X107873809Y-48051009D01*
X107873809Y-48051009D02*
X107778571Y-48098628D01*
X107778571Y-48098628D02*
X107397619Y-48098628D01*
X108826190Y-47574819D02*
X108635714Y-47574819D01*
X108635714Y-47574819D02*
X108540476Y-47622438D01*
X108540476Y-47622438D02*
X108492857Y-47670057D01*
X108492857Y-47670057D02*
X108397619Y-47812914D01*
X108397619Y-47812914D02*
X108350000Y-48003390D01*
X108350000Y-48003390D02*
X108350000Y-48384342D01*
X108350000Y-48384342D02*
X108397619Y-48479580D01*
X108397619Y-48479580D02*
X108445238Y-48527200D01*
X108445238Y-48527200D02*
X108540476Y-48574819D01*
X108540476Y-48574819D02*
X108730952Y-48574819D01*
X108730952Y-48574819D02*
X108826190Y-48527200D01*
X108826190Y-48527200D02*
X108873809Y-48479580D01*
X108873809Y-48479580D02*
X108921428Y-48384342D01*
X108921428Y-48384342D02*
X108921428Y-48146247D01*
X108921428Y-48146247D02*
X108873809Y-48051009D01*
X108873809Y-48051009D02*
X108826190Y-48003390D01*
X108826190Y-48003390D02*
X108730952Y-47955771D01*
X108730952Y-47955771D02*
X108540476Y-47955771D01*
X108540476Y-47955771D02*
X108445238Y-48003390D01*
X108445238Y-48003390D02*
X108397619Y-48051009D01*
X108397619Y-48051009D02*
X108350000Y-48146247D01*
X113224819Y-63698094D02*
X112224819Y-63698094D01*
X112224819Y-63698094D02*
X112224819Y-63459999D01*
X112224819Y-63459999D02*
X112272438Y-63317142D01*
X112272438Y-63317142D02*
X112367676Y-63221904D01*
X112367676Y-63221904D02*
X112462914Y-63174285D01*
X112462914Y-63174285D02*
X112653390Y-63126666D01*
X112653390Y-63126666D02*
X112796247Y-63126666D01*
X112796247Y-63126666D02*
X112986723Y-63174285D01*
X112986723Y-63174285D02*
X113081961Y-63221904D01*
X113081961Y-63221904D02*
X113177200Y-63317142D01*
X113177200Y-63317142D02*
X113224819Y-63459999D01*
X113224819Y-63459999D02*
X113224819Y-63698094D01*
X113224819Y-62174285D02*
X113224819Y-62745713D01*
X113224819Y-62459999D02*
X112224819Y-62459999D01*
X112224819Y-62459999D02*
X112367676Y-62555237D01*
X112367676Y-62555237D02*
X112462914Y-62650475D01*
X112462914Y-62650475D02*
X112510533Y-62745713D01*
X126898095Y-93484819D02*
X126898095Y-94294342D01*
X126898095Y-94294342D02*
X126945714Y-94389580D01*
X126945714Y-94389580D02*
X126993333Y-94437200D01*
X126993333Y-94437200D02*
X127088571Y-94484819D01*
X127088571Y-94484819D02*
X127279047Y-94484819D01*
X127279047Y-94484819D02*
X127374285Y-94437200D01*
X127374285Y-94437200D02*
X127421904Y-94389580D01*
X127421904Y-94389580D02*
X127469523Y-94294342D01*
X127469523Y-94294342D02*
X127469523Y-93484819D01*
X127898095Y-93580057D02*
X127945714Y-93532438D01*
X127945714Y-93532438D02*
X128040952Y-93484819D01*
X128040952Y-93484819D02*
X128279047Y-93484819D01*
X128279047Y-93484819D02*
X128374285Y-93532438D01*
X128374285Y-93532438D02*
X128421904Y-93580057D01*
X128421904Y-93580057D02*
X128469523Y-93675295D01*
X128469523Y-93675295D02*
X128469523Y-93770533D01*
X128469523Y-93770533D02*
X128421904Y-93913390D01*
X128421904Y-93913390D02*
X127850476Y-94484819D01*
X127850476Y-94484819D02*
X128469523Y-94484819D01*
X134118095Y-67174819D02*
X134118095Y-67984342D01*
X134118095Y-67984342D02*
X134165714Y-68079580D01*
X134165714Y-68079580D02*
X134213333Y-68127200D01*
X134213333Y-68127200D02*
X134308571Y-68174819D01*
X134308571Y-68174819D02*
X134499047Y-68174819D01*
X134499047Y-68174819D02*
X134594285Y-68127200D01*
X134594285Y-68127200D02*
X134641904Y-68079580D01*
X134641904Y-68079580D02*
X134689523Y-67984342D01*
X134689523Y-67984342D02*
X134689523Y-67174819D01*
X135689523Y-68174819D02*
X135118095Y-68174819D01*
X135403809Y-68174819D02*
X135403809Y-67174819D01*
X135403809Y-67174819D02*
X135308571Y-67317676D01*
X135308571Y-67317676D02*
X135213333Y-67412914D01*
X135213333Y-67412914D02*
X135118095Y-67460533D01*
X162259999Y-80522438D02*
X162164761Y-80474819D01*
X162164761Y-80474819D02*
X162021904Y-80474819D01*
X162021904Y-80474819D02*
X161879047Y-80522438D01*
X161879047Y-80522438D02*
X161783809Y-80617676D01*
X161783809Y-80617676D02*
X161736190Y-80712914D01*
X161736190Y-80712914D02*
X161688571Y-80903390D01*
X161688571Y-80903390D02*
X161688571Y-81046247D01*
X161688571Y-81046247D02*
X161736190Y-81236723D01*
X161736190Y-81236723D02*
X161783809Y-81331961D01*
X161783809Y-81331961D02*
X161879047Y-81427200D01*
X161879047Y-81427200D02*
X162021904Y-81474819D01*
X162021904Y-81474819D02*
X162117142Y-81474819D01*
X162117142Y-81474819D02*
X162259999Y-81427200D01*
X162259999Y-81427200D02*
X162307618Y-81379580D01*
X162307618Y-81379580D02*
X162307618Y-81046247D01*
X162307618Y-81046247D02*
X162117142Y-81046247D01*
X162736190Y-81474819D02*
X162736190Y-80474819D01*
X162736190Y-80474819D02*
X163307618Y-81474819D01*
X163307618Y-81474819D02*
X163307618Y-80474819D01*
X163783809Y-81474819D02*
X163783809Y-80474819D01*
X163783809Y-80474819D02*
X164021904Y-80474819D01*
X164021904Y-80474819D02*
X164164761Y-80522438D01*
X164164761Y-80522438D02*
X164259999Y-80617676D01*
X164259999Y-80617676D02*
X164307618Y-80712914D01*
X164307618Y-80712914D02*
X164355237Y-80903390D01*
X164355237Y-80903390D02*
X164355237Y-81046247D01*
X164355237Y-81046247D02*
X164307618Y-81236723D01*
X164307618Y-81236723D02*
X164259999Y-81331961D01*
X164259999Y-81331961D02*
X164164761Y-81427200D01*
X164164761Y-81427200D02*
X164021904Y-81474819D01*
X164021904Y-81474819D02*
X163783809Y-81474819D01*
X164545714Y-81570057D02*
X165307618Y-81570057D01*
X165402857Y-80474819D02*
X165974285Y-80474819D01*
X165688571Y-81474819D02*
X165688571Y-80474819D01*
X166307619Y-81474819D02*
X166307619Y-80474819D01*
X166307619Y-80474819D02*
X166688571Y-80474819D01*
X166688571Y-80474819D02*
X166783809Y-80522438D01*
X166783809Y-80522438D02*
X166831428Y-80570057D01*
X166831428Y-80570057D02*
X166879047Y-80665295D01*
X166879047Y-80665295D02*
X166879047Y-80808152D01*
X166879047Y-80808152D02*
X166831428Y-80903390D01*
X166831428Y-80903390D02*
X166783809Y-80951009D01*
X166783809Y-80951009D02*
X166688571Y-80998628D01*
X166688571Y-80998628D02*
X166307619Y-80998628D01*
X167831428Y-81474819D02*
X167260000Y-81474819D01*
X167545714Y-81474819D02*
X167545714Y-80474819D01*
X167545714Y-80474819D02*
X167450476Y-80617676D01*
X167450476Y-80617676D02*
X167355238Y-80712914D01*
X167355238Y-80712914D02*
X167260000Y-80760533D01*
X143453333Y-58704819D02*
X143120000Y-58228628D01*
X142881905Y-58704819D02*
X142881905Y-57704819D01*
X142881905Y-57704819D02*
X143262857Y-57704819D01*
X143262857Y-57704819D02*
X143358095Y-57752438D01*
X143358095Y-57752438D02*
X143405714Y-57800057D01*
X143405714Y-57800057D02*
X143453333Y-57895295D01*
X143453333Y-57895295D02*
X143453333Y-58038152D01*
X143453333Y-58038152D02*
X143405714Y-58133390D01*
X143405714Y-58133390D02*
X143358095Y-58181009D01*
X143358095Y-58181009D02*
X143262857Y-58228628D01*
X143262857Y-58228628D02*
X142881905Y-58228628D01*
X143786667Y-57704819D02*
X144453333Y-57704819D01*
X144453333Y-57704819D02*
X144024762Y-58704819D01*
X146954819Y-75136666D02*
X146478628Y-75469999D01*
X146954819Y-75708094D02*
X145954819Y-75708094D01*
X145954819Y-75708094D02*
X145954819Y-75327142D01*
X145954819Y-75327142D02*
X146002438Y-75231904D01*
X146002438Y-75231904D02*
X146050057Y-75184285D01*
X146050057Y-75184285D02*
X146145295Y-75136666D01*
X146145295Y-75136666D02*
X146288152Y-75136666D01*
X146288152Y-75136666D02*
X146383390Y-75184285D01*
X146383390Y-75184285D02*
X146431009Y-75231904D01*
X146431009Y-75231904D02*
X146478628Y-75327142D01*
X146478628Y-75327142D02*
X146478628Y-75708094D01*
X146383390Y-74565237D02*
X146335771Y-74660475D01*
X146335771Y-74660475D02*
X146288152Y-74708094D01*
X146288152Y-74708094D02*
X146192914Y-74755713D01*
X146192914Y-74755713D02*
X146145295Y-74755713D01*
X146145295Y-74755713D02*
X146050057Y-74708094D01*
X146050057Y-74708094D02*
X146002438Y-74660475D01*
X146002438Y-74660475D02*
X145954819Y-74565237D01*
X145954819Y-74565237D02*
X145954819Y-74374761D01*
X145954819Y-74374761D02*
X146002438Y-74279523D01*
X146002438Y-74279523D02*
X146050057Y-74231904D01*
X146050057Y-74231904D02*
X146145295Y-74184285D01*
X146145295Y-74184285D02*
X146192914Y-74184285D01*
X146192914Y-74184285D02*
X146288152Y-74231904D01*
X146288152Y-74231904D02*
X146335771Y-74279523D01*
X146335771Y-74279523D02*
X146383390Y-74374761D01*
X146383390Y-74374761D02*
X146383390Y-74565237D01*
X146383390Y-74565237D02*
X146431009Y-74660475D01*
X146431009Y-74660475D02*
X146478628Y-74708094D01*
X146478628Y-74708094D02*
X146573866Y-74755713D01*
X146573866Y-74755713D02*
X146764342Y-74755713D01*
X146764342Y-74755713D02*
X146859580Y-74708094D01*
X146859580Y-74708094D02*
X146907200Y-74660475D01*
X146907200Y-74660475D02*
X146954819Y-74565237D01*
X146954819Y-74565237D02*
X146954819Y-74374761D01*
X146954819Y-74374761D02*
X146907200Y-74279523D01*
X146907200Y-74279523D02*
X146859580Y-74231904D01*
X146859580Y-74231904D02*
X146764342Y-74184285D01*
X146764342Y-74184285D02*
X146573866Y-74184285D01*
X146573866Y-74184285D02*
X146478628Y-74231904D01*
X146478628Y-74231904D02*
X146431009Y-74279523D01*
X146431009Y-74279523D02*
X146383390Y-74374761D01*
X151973333Y-88879580D02*
X151925714Y-88927200D01*
X151925714Y-88927200D02*
X151782857Y-88974819D01*
X151782857Y-88974819D02*
X151687619Y-88974819D01*
X151687619Y-88974819D02*
X151544762Y-88927200D01*
X151544762Y-88927200D02*
X151449524Y-88831961D01*
X151449524Y-88831961D02*
X151401905Y-88736723D01*
X151401905Y-88736723D02*
X151354286Y-88546247D01*
X151354286Y-88546247D02*
X151354286Y-88403390D01*
X151354286Y-88403390D02*
X151401905Y-88212914D01*
X151401905Y-88212914D02*
X151449524Y-88117676D01*
X151449524Y-88117676D02*
X151544762Y-88022438D01*
X151544762Y-88022438D02*
X151687619Y-87974819D01*
X151687619Y-87974819D02*
X151782857Y-87974819D01*
X151782857Y-87974819D02*
X151925714Y-88022438D01*
X151925714Y-88022438D02*
X151973333Y-88070057D01*
X152354286Y-88070057D02*
X152401905Y-88022438D01*
X152401905Y-88022438D02*
X152497143Y-87974819D01*
X152497143Y-87974819D02*
X152735238Y-87974819D01*
X152735238Y-87974819D02*
X152830476Y-88022438D01*
X152830476Y-88022438D02*
X152878095Y-88070057D01*
X152878095Y-88070057D02*
X152925714Y-88165295D01*
X152925714Y-88165295D02*
X152925714Y-88260533D01*
X152925714Y-88260533D02*
X152878095Y-88403390D01*
X152878095Y-88403390D02*
X152306667Y-88974819D01*
X152306667Y-88974819D02*
X152925714Y-88974819D01*
X123577200Y-63863332D02*
X123624819Y-63720475D01*
X123624819Y-63720475D02*
X123624819Y-63482380D01*
X123624819Y-63482380D02*
X123577200Y-63387142D01*
X123577200Y-63387142D02*
X123529580Y-63339523D01*
X123529580Y-63339523D02*
X123434342Y-63291904D01*
X123434342Y-63291904D02*
X123339104Y-63291904D01*
X123339104Y-63291904D02*
X123243866Y-63339523D01*
X123243866Y-63339523D02*
X123196247Y-63387142D01*
X123196247Y-63387142D02*
X123148628Y-63482380D01*
X123148628Y-63482380D02*
X123101009Y-63672856D01*
X123101009Y-63672856D02*
X123053390Y-63768094D01*
X123053390Y-63768094D02*
X123005771Y-63815713D01*
X123005771Y-63815713D02*
X122910533Y-63863332D01*
X122910533Y-63863332D02*
X122815295Y-63863332D01*
X122815295Y-63863332D02*
X122720057Y-63815713D01*
X122720057Y-63815713D02*
X122672438Y-63768094D01*
X122672438Y-63768094D02*
X122624819Y-63672856D01*
X122624819Y-63672856D02*
X122624819Y-63434761D01*
X122624819Y-63434761D02*
X122672438Y-63291904D01*
X122624819Y-62958570D02*
X123624819Y-62720475D01*
X123624819Y-62720475D02*
X122910533Y-62529999D01*
X122910533Y-62529999D02*
X123624819Y-62339523D01*
X123624819Y-62339523D02*
X122624819Y-62101428D01*
X123624819Y-61196666D02*
X123624819Y-61768094D01*
X123624819Y-61482380D02*
X122624819Y-61482380D01*
X122624819Y-61482380D02*
X122767676Y-61577618D01*
X122767676Y-61577618D02*
X122862914Y-61672856D01*
X122862914Y-61672856D02*
X122910533Y-61768094D01*
X110217142Y-77324819D02*
X109883809Y-76848628D01*
X109645714Y-77324819D02*
X109645714Y-76324819D01*
X109645714Y-76324819D02*
X110026666Y-76324819D01*
X110026666Y-76324819D02*
X110121904Y-76372438D01*
X110121904Y-76372438D02*
X110169523Y-76420057D01*
X110169523Y-76420057D02*
X110217142Y-76515295D01*
X110217142Y-76515295D02*
X110217142Y-76658152D01*
X110217142Y-76658152D02*
X110169523Y-76753390D01*
X110169523Y-76753390D02*
X110121904Y-76801009D01*
X110121904Y-76801009D02*
X110026666Y-76848628D01*
X110026666Y-76848628D02*
X109645714Y-76848628D01*
X111169523Y-77324819D02*
X110598095Y-77324819D01*
X110883809Y-77324819D02*
X110883809Y-76324819D01*
X110883809Y-76324819D02*
X110788571Y-76467676D01*
X110788571Y-76467676D02*
X110693333Y-76562914D01*
X110693333Y-76562914D02*
X110598095Y-76610533D01*
X111788571Y-76324819D02*
X111883809Y-76324819D01*
X111883809Y-76324819D02*
X111979047Y-76372438D01*
X111979047Y-76372438D02*
X112026666Y-76420057D01*
X112026666Y-76420057D02*
X112074285Y-76515295D01*
X112074285Y-76515295D02*
X112121904Y-76705771D01*
X112121904Y-76705771D02*
X112121904Y-76943866D01*
X112121904Y-76943866D02*
X112074285Y-77134342D01*
X112074285Y-77134342D02*
X112026666Y-77229580D01*
X112026666Y-77229580D02*
X111979047Y-77277200D01*
X111979047Y-77277200D02*
X111883809Y-77324819D01*
X111883809Y-77324819D02*
X111788571Y-77324819D01*
X111788571Y-77324819D02*
X111693333Y-77277200D01*
X111693333Y-77277200D02*
X111645714Y-77229580D01*
X111645714Y-77229580D02*
X111598095Y-77134342D01*
X111598095Y-77134342D02*
X111550476Y-76943866D01*
X111550476Y-76943866D02*
X111550476Y-76705771D01*
X111550476Y-76705771D02*
X111598095Y-76515295D01*
X111598095Y-76515295D02*
X111645714Y-76420057D01*
X111645714Y-76420057D02*
X111693333Y-76372438D01*
X111693333Y-76372438D02*
X111788571Y-76324819D01*
X134467619Y-87614819D02*
X134467619Y-86614819D01*
X134467619Y-87091009D02*
X135039047Y-87091009D01*
X135039047Y-87614819D02*
X135039047Y-86614819D01*
X135515238Y-87614819D02*
X135515238Y-86614819D01*
X135515238Y-86614819D02*
X135896190Y-86614819D01*
X135896190Y-86614819D02*
X135991428Y-86662438D01*
X135991428Y-86662438D02*
X136039047Y-86710057D01*
X136039047Y-86710057D02*
X136086666Y-86805295D01*
X136086666Y-86805295D02*
X136086666Y-86948152D01*
X136086666Y-86948152D02*
X136039047Y-87043390D01*
X136039047Y-87043390D02*
X135991428Y-87091009D01*
X135991428Y-87091009D02*
X135896190Y-87138628D01*
X135896190Y-87138628D02*
X135515238Y-87138628D01*
X136848571Y-87091009D02*
X136515238Y-87091009D01*
X136515238Y-87614819D02*
X136515238Y-86614819D01*
X136515238Y-86614819D02*
X136991428Y-86614819D01*
X137324762Y-86710057D02*
X137372381Y-86662438D01*
X137372381Y-86662438D02*
X137467619Y-86614819D01*
X137467619Y-86614819D02*
X137705714Y-86614819D01*
X137705714Y-86614819D02*
X137800952Y-86662438D01*
X137800952Y-86662438D02*
X137848571Y-86710057D01*
X137848571Y-86710057D02*
X137896190Y-86805295D01*
X137896190Y-86805295D02*
X137896190Y-86900533D01*
X137896190Y-86900533D02*
X137848571Y-87043390D01*
X137848571Y-87043390D02*
X137277143Y-87614819D01*
X137277143Y-87614819D02*
X137896190Y-87614819D01*
X138086667Y-87710057D02*
X138848571Y-87710057D01*
X138943810Y-86614819D02*
X139515238Y-86614819D01*
X139229524Y-87614819D02*
X139229524Y-86614819D01*
X139848572Y-87614819D02*
X139848572Y-86614819D01*
X139848572Y-86614819D02*
X140229524Y-86614819D01*
X140229524Y-86614819D02*
X140324762Y-86662438D01*
X140324762Y-86662438D02*
X140372381Y-86710057D01*
X140372381Y-86710057D02*
X140420000Y-86805295D01*
X140420000Y-86805295D02*
X140420000Y-86948152D01*
X140420000Y-86948152D02*
X140372381Y-87043390D01*
X140372381Y-87043390D02*
X140324762Y-87091009D01*
X140324762Y-87091009D02*
X140229524Y-87138628D01*
X140229524Y-87138628D02*
X139848572Y-87138628D01*
X112439580Y-73016666D02*
X112487200Y-73064285D01*
X112487200Y-73064285D02*
X112534819Y-73207142D01*
X112534819Y-73207142D02*
X112534819Y-73302380D01*
X112534819Y-73302380D02*
X112487200Y-73445237D01*
X112487200Y-73445237D02*
X112391961Y-73540475D01*
X112391961Y-73540475D02*
X112296723Y-73588094D01*
X112296723Y-73588094D02*
X112106247Y-73635713D01*
X112106247Y-73635713D02*
X111963390Y-73635713D01*
X111963390Y-73635713D02*
X111772914Y-73588094D01*
X111772914Y-73588094D02*
X111677676Y-73540475D01*
X111677676Y-73540475D02*
X111582438Y-73445237D01*
X111582438Y-73445237D02*
X111534819Y-73302380D01*
X111534819Y-73302380D02*
X111534819Y-73207142D01*
X111534819Y-73207142D02*
X111582438Y-73064285D01*
X111582438Y-73064285D02*
X111630057Y-73016666D01*
X111868152Y-72159523D02*
X112534819Y-72159523D01*
X111487200Y-72397618D02*
X112201485Y-72635713D01*
X112201485Y-72635713D02*
X112201485Y-72016666D01*
X165526666Y-68794819D02*
X165526666Y-69509104D01*
X165526666Y-69509104D02*
X165479047Y-69651961D01*
X165479047Y-69651961D02*
X165383809Y-69747200D01*
X165383809Y-69747200D02*
X165240952Y-69794819D01*
X165240952Y-69794819D02*
X165145714Y-69794819D01*
X166479047Y-68794819D02*
X166002857Y-68794819D01*
X166002857Y-68794819D02*
X165955238Y-69271009D01*
X165955238Y-69271009D02*
X166002857Y-69223390D01*
X166002857Y-69223390D02*
X166098095Y-69175771D01*
X166098095Y-69175771D02*
X166336190Y-69175771D01*
X166336190Y-69175771D02*
X166431428Y-69223390D01*
X166431428Y-69223390D02*
X166479047Y-69271009D01*
X166479047Y-69271009D02*
X166526666Y-69366247D01*
X166526666Y-69366247D02*
X166526666Y-69604342D01*
X166526666Y-69604342D02*
X166479047Y-69699580D01*
X166479047Y-69699580D02*
X166431428Y-69747200D01*
X166431428Y-69747200D02*
X166336190Y-69794819D01*
X166336190Y-69794819D02*
X166098095Y-69794819D01*
X166098095Y-69794819D02*
X166002857Y-69747200D01*
X166002857Y-69747200D02*
X165955238Y-69699580D01*
X103004819Y-70809523D02*
X103004819Y-70619047D01*
X103004819Y-70619047D02*
X103052438Y-70523809D01*
X103052438Y-70523809D02*
X103147676Y-70428571D01*
X103147676Y-70428571D02*
X103338152Y-70380952D01*
X103338152Y-70380952D02*
X103671485Y-70380952D01*
X103671485Y-70380952D02*
X103861961Y-70428571D01*
X103861961Y-70428571D02*
X103957200Y-70523809D01*
X103957200Y-70523809D02*
X104004819Y-70619047D01*
X104004819Y-70619047D02*
X104004819Y-70809523D01*
X104004819Y-70809523D02*
X103957200Y-70904761D01*
X103957200Y-70904761D02*
X103861961Y-70999999D01*
X103861961Y-70999999D02*
X103671485Y-71047618D01*
X103671485Y-71047618D02*
X103338152Y-71047618D01*
X103338152Y-71047618D02*
X103147676Y-70999999D01*
X103147676Y-70999999D02*
X103052438Y-70904761D01*
X103052438Y-70904761D02*
X103004819Y-70809523D01*
X104004819Y-69952380D02*
X103004819Y-69952380D01*
X103004819Y-69952380D02*
X103004819Y-69571428D01*
X103004819Y-69571428D02*
X103052438Y-69476190D01*
X103052438Y-69476190D02*
X103100057Y-69428571D01*
X103100057Y-69428571D02*
X103195295Y-69380952D01*
X103195295Y-69380952D02*
X103338152Y-69380952D01*
X103338152Y-69380952D02*
X103433390Y-69428571D01*
X103433390Y-69428571D02*
X103481009Y-69476190D01*
X103481009Y-69476190D02*
X103528628Y-69571428D01*
X103528628Y-69571428D02*
X103528628Y-69952380D01*
X104004819Y-68428571D02*
X104004819Y-68999999D01*
X104004819Y-68714285D02*
X103004819Y-68714285D01*
X103004819Y-68714285D02*
X103147676Y-68809523D01*
X103147676Y-68809523D02*
X103242914Y-68904761D01*
X103242914Y-68904761D02*
X103290533Y-68999999D01*
X104100057Y-68238095D02*
X104100057Y-67476190D01*
X103004819Y-67380951D02*
X103004819Y-66809523D01*
X104004819Y-67095237D02*
X103004819Y-67095237D01*
X104004819Y-66476189D02*
X103004819Y-66476189D01*
X103004819Y-66476189D02*
X103004819Y-66095237D01*
X103004819Y-66095237D02*
X103052438Y-65999999D01*
X103052438Y-65999999D02*
X103100057Y-65952380D01*
X103100057Y-65952380D02*
X103195295Y-65904761D01*
X103195295Y-65904761D02*
X103338152Y-65904761D01*
X103338152Y-65904761D02*
X103433390Y-65952380D01*
X103433390Y-65952380D02*
X103481009Y-65999999D01*
X103481009Y-65999999D02*
X103528628Y-66095237D01*
X103528628Y-66095237D02*
X103528628Y-66476189D01*
X104004819Y-64952380D02*
X104004819Y-65523808D01*
X104004819Y-65238094D02*
X103004819Y-65238094D01*
X103004819Y-65238094D02*
X103147676Y-65333332D01*
X103147676Y-65333332D02*
X103242914Y-65428570D01*
X103242914Y-65428570D02*
X103290533Y-65523808D01*
D11*
%TO.C,GND_TP4*%
X102400000Y-79750000D02*
X103730000Y-79750000D01*
X102400000Y-81080000D02*
X102400000Y-79750000D01*
X102400000Y-82350000D02*
X102400000Y-82410000D01*
X102400000Y-82350000D02*
X105060000Y-82350000D01*
X102400000Y-82410000D02*
X105060000Y-82410000D01*
X105060000Y-82350000D02*
X105060000Y-82410000D01*
%TO.C,HPF1_TP*%
X149690000Y-79580000D02*
X151020000Y-79580000D01*
X149690000Y-80910000D02*
X149690000Y-79580000D01*
X149690000Y-82180000D02*
X149690000Y-82240000D01*
X149690000Y-82180000D02*
X152350000Y-82180000D01*
X149690000Y-82240000D02*
X152350000Y-82240000D01*
X152350000Y-82180000D02*
X152350000Y-82240000D01*
%TO.C,R4*%
X150890000Y-85420000D02*
X151660000Y-85420000D01*
X151660000Y-84050000D02*
X151660000Y-86790000D01*
X151660000Y-86790000D02*
X158200000Y-86790000D01*
X158200000Y-84050000D02*
X151660000Y-84050000D01*
X158200000Y-86790000D02*
X158200000Y-84050000D01*
X158970000Y-85420000D02*
X158200000Y-85420000D01*
%TO.C,GND_TP3*%
X120470000Y-96490000D02*
X121800000Y-96490000D01*
X120470000Y-97820000D02*
X120470000Y-96490000D01*
X120470000Y-99090000D02*
X120470000Y-99150000D01*
X120470000Y-99090000D02*
X123130000Y-99090000D01*
X120470000Y-99150000D02*
X123130000Y-99150000D01*
X123130000Y-99090000D02*
X123130000Y-99150000D01*
%TO.C,R2*%
X106810000Y-55770000D02*
X107580000Y-55770000D01*
X107580000Y-54400000D02*
X107580000Y-57140000D01*
X107580000Y-57140000D02*
X114120000Y-57140000D01*
X114120000Y-54400000D02*
X107580000Y-54400000D01*
X114120000Y-57140000D02*
X114120000Y-54400000D01*
X114890000Y-55770000D02*
X114120000Y-55770000D01*
%TO.C,C3*%
X154420000Y-73800000D02*
G75*
G02*
X149180000Y-73800000I-2620000J0D01*
G01*
X149180000Y-73800000D02*
G75*
G02*
X154420000Y-73800000I2620000J0D01*
G01*
%TO.C,GND_TP2*%
X105200000Y-61660000D02*
X106530000Y-61660000D01*
X105200000Y-62990000D02*
X105200000Y-61660000D01*
X105200000Y-64260000D02*
X105200000Y-64320000D01*
X105200000Y-64260000D02*
X107860000Y-64260000D01*
X105200000Y-64320000D02*
X107860000Y-64320000D01*
X107860000Y-64260000D02*
X107860000Y-64320000D01*
%TO.C,R9*%
X121960000Y-70840000D02*
X121960000Y-77380000D01*
X121960000Y-77380000D02*
X124700000Y-77380000D01*
X123330000Y-70070000D02*
X123330000Y-70840000D01*
X123330000Y-78150000D02*
X123330000Y-77380000D01*
X124700000Y-70840000D02*
X121960000Y-70840000D01*
X124700000Y-77380000D02*
X124700000Y-70840000D01*
%TO.C,R6*%
X148950000Y-55680000D02*
X149720000Y-55680000D01*
X149720000Y-54310000D02*
X149720000Y-57050000D01*
X149720000Y-57050000D02*
X156260000Y-57050000D01*
X156260000Y-54310000D02*
X149720000Y-54310000D01*
X156260000Y-57050000D02*
X156260000Y-54310000D01*
X157030000Y-55680000D02*
X156260000Y-55680000D01*
%TO.C,Signal_TP1*%
X157170000Y-80420000D02*
X158500000Y-80420000D01*
X157170000Y-81750000D02*
X157170000Y-80420000D01*
X157170000Y-83020000D02*
X157170000Y-83080000D01*
X157170000Y-83020000D02*
X159830000Y-83020000D01*
X157170000Y-83080000D02*
X159830000Y-83080000D01*
X159830000Y-83020000D02*
X159830000Y-83080000D01*
%TO.C,D4*%
X142240000Y-64255000D02*
X142240000Y-61165000D01*
X136690000Y-62710462D02*
G75*
G02*
X142240000Y-61165170I2990000J462D01*
G01*
X142239999Y-64254830D02*
G75*
G02*
X136690001Y-62709538I-2559999J1544830D01*
G01*
X142180000Y-62710000D02*
G75*
G02*
X137180000Y-62710000I-2500000J0D01*
G01*
X137180000Y-62710000D02*
G75*
G02*
X142180000Y-62710000I2500000J0D01*
G01*
%TO.C,R11*%
X116750000Y-84550000D02*
X116750000Y-91090000D01*
X116750000Y-91090000D02*
X119490000Y-91090000D01*
X118120000Y-83780000D02*
X118120000Y-84550000D01*
X118120000Y-91860000D02*
X118120000Y-91090000D01*
X119490000Y-84550000D02*
X116750000Y-84550000D01*
X119490000Y-91090000D02*
X119490000Y-84550000D01*
%TO.C,C5*%
X109220000Y-74490000D02*
G75*
G02*
X103980000Y-74490000I-2620000J0D01*
G01*
X103980000Y-74490000D02*
G75*
G02*
X109220000Y-74490000I2620000J0D01*
G01*
%TO.C,D3*%
X144855000Y-61165000D02*
X144855000Y-64255000D01*
X144855001Y-61165170D02*
G75*
G02*
X150404999Y-62710462I2559999J-1544830D01*
G01*
X150405000Y-62709538D02*
G75*
G02*
X144855000Y-64254830I-2990000J-462D01*
G01*
X149915000Y-62710000D02*
G75*
G02*
X144915000Y-62710000I-2500000J0D01*
G01*
X144915000Y-62710000D02*
G75*
G02*
X149915000Y-62710000I2500000J0D01*
G01*
%TO.C,OP2_TP1*%
X143480000Y-88250000D02*
X144810000Y-88250000D01*
X143480000Y-89580000D02*
X143480000Y-88250000D01*
X143480000Y-90850000D02*
X143480000Y-90910000D01*
X143480000Y-90850000D02*
X146140000Y-90850000D01*
X143480000Y-90910000D02*
X146140000Y-90910000D01*
X146140000Y-90850000D02*
X146140000Y-90910000D01*
%TO.C,R12*%
X136830000Y-93380000D02*
X137600000Y-93380000D01*
X137600000Y-92010000D02*
X137600000Y-94750000D01*
X137600000Y-94750000D02*
X144140000Y-94750000D01*
X144140000Y-92010000D02*
X137600000Y-92010000D01*
X144140000Y-94750000D02*
X144140000Y-92010000D01*
X144910000Y-93380000D02*
X144140000Y-93380000D01*
%TO.C,R3*%
X137190000Y-83070000D02*
X137960000Y-83070000D01*
X137960000Y-81700000D02*
X137960000Y-84440000D01*
X137960000Y-84440000D02*
X144500000Y-84440000D01*
X144500000Y-81700000D02*
X137960000Y-81700000D01*
X144500000Y-84440000D02*
X144500000Y-81700000D01*
X145270000Y-83070000D02*
X144500000Y-83070000D01*
%TO.C,C1*%
X162300000Y-91400000D02*
G75*
G02*
X157060000Y-91400000I-2620000J0D01*
G01*
X157060000Y-91400000D02*
G75*
G02*
X162300000Y-91400000I2620000J0D01*
G01*
%TO.C,GND_TP5*%
X160480000Y-66450000D02*
X161810000Y-66450000D01*
X160480000Y-67780000D02*
X160480000Y-66450000D01*
X160480000Y-69050000D02*
X160480000Y-69110000D01*
X160480000Y-69050000D02*
X163140000Y-69050000D01*
X160480000Y-69110000D02*
X163140000Y-69110000D01*
X163140000Y-69050000D02*
X163140000Y-69110000D01*
%TO.C,C6*%
X110130000Y-86580000D02*
X110130000Y-94020000D01*
X114870000Y-86580000D02*
X110130000Y-86580000D01*
X114870000Y-86580000D02*
X114870000Y-94020000D01*
X114870000Y-94020000D02*
X110130000Y-94020000D01*
%TO.C,R5*%
X160530000Y-54550000D02*
X160530000Y-61090000D01*
X160530000Y-61090000D02*
X163270000Y-61090000D01*
X161900000Y-53780000D02*
X161900000Y-54550000D01*
X161900000Y-61860000D02*
X161900000Y-61090000D01*
X163270000Y-54550000D02*
X160530000Y-54550000D01*
X163270000Y-61090000D02*
X163270000Y-54550000D01*
%TO.C,D2*%
X152305000Y-61215000D02*
X152305000Y-64305000D01*
X152305001Y-61215170D02*
G75*
G02*
X157854999Y-62760462I2559999J-1544830D01*
G01*
X157855000Y-62759538D02*
G75*
G02*
X152305000Y-64304830I-2990000J-462D01*
G01*
X157365000Y-62760000D02*
G75*
G02*
X152365000Y-62760000I-2500000J0D01*
G01*
X152365000Y-62760000D02*
G75*
G02*
X157365000Y-62760000I2500000J0D01*
G01*
%TO.C,R1*%
X121290000Y-55780000D02*
X122060000Y-55780000D01*
X122060000Y-54410000D02*
X122060000Y-57150000D01*
X122060000Y-57150000D02*
X128600000Y-57150000D01*
X128600000Y-54410000D02*
X122060000Y-54410000D01*
X128600000Y-57150000D02*
X128600000Y-54410000D01*
X129370000Y-55780000D02*
X128600000Y-55780000D01*
%TO.C,VtgD_TP*%
X164300000Y-87540000D02*
X165630000Y-87540000D01*
X164300000Y-88870000D02*
X164300000Y-87540000D01*
X164300000Y-90140000D02*
X164300000Y-90200000D01*
X164300000Y-90140000D02*
X166960000Y-90140000D01*
X164300000Y-90200000D02*
X166960000Y-90200000D01*
X166960000Y-90140000D02*
X166960000Y-90200000D01*
%TO.C,GND_TP6*%
X104520000Y-49120000D02*
X105850000Y-49120000D01*
X104520000Y-50450000D02*
X104520000Y-49120000D01*
X104520000Y-51720000D02*
X104520000Y-51780000D01*
X104520000Y-51720000D02*
X107180000Y-51720000D01*
X104520000Y-51780000D02*
X107180000Y-51780000D01*
X107180000Y-51720000D02*
X107180000Y-51780000D01*
%TO.C,D1*%
X114750000Y-61185000D02*
X114750000Y-64275000D01*
X114750001Y-61185170D02*
G75*
G02*
X120299999Y-62730462I2559999J-1544830D01*
G01*
X120300000Y-62729538D02*
G75*
G02*
X114750000Y-64274830I-2990000J-462D01*
G01*
X119810000Y-62730000D02*
G75*
G02*
X114810000Y-62730000I-2500000J0D01*
G01*
X114810000Y-62730000D02*
G75*
G02*
X119810000Y-62730000I2500000J0D01*
G01*
%TO.C,U2*%
X125010000Y-82750000D02*
X125010000Y-93030000D01*
X125010000Y-93030000D02*
X126660000Y-93030000D01*
X128660000Y-93030000D02*
X130310000Y-93030000D01*
X130310000Y-82750000D02*
X125010000Y-82750000D01*
X130310000Y-93030000D02*
X130310000Y-82750000D01*
X126660000Y-93030000D02*
G75*
G02*
X128660000Y-93030000I1000000J0D01*
G01*
%TO.C,U1*%
X131940000Y-68660000D02*
X131940000Y-78940000D01*
X131940000Y-78940000D02*
X133590000Y-78940000D01*
X135590000Y-78940000D02*
X137240000Y-78940000D01*
X137240000Y-68660000D02*
X131940000Y-68660000D01*
X137240000Y-78940000D02*
X137240000Y-68660000D01*
X133590000Y-78940000D02*
G75*
G02*
X135590000Y-78940000I1000000J0D01*
G01*
%TO.C,GND_TP1*%
X163970000Y-82410000D02*
X165300000Y-82410000D01*
X163970000Y-83740000D02*
X163970000Y-82410000D01*
X163970000Y-85010000D02*
X163970000Y-85070000D01*
X163970000Y-85010000D02*
X166630000Y-85010000D01*
X163970000Y-85070000D02*
X166630000Y-85070000D01*
X166630000Y-85010000D02*
X166630000Y-85070000D01*
%TO.C,R7*%
X135470000Y-55740000D02*
X136240000Y-55740000D01*
X136240000Y-54370000D02*
X136240000Y-57110000D01*
X136240000Y-57110000D02*
X142780000Y-57110000D01*
X142780000Y-54370000D02*
X136240000Y-54370000D01*
X142780000Y-57110000D02*
X142780000Y-54370000D01*
X143550000Y-55740000D02*
X142780000Y-55740000D01*
%TO.C,R8*%
X142740000Y-70750000D02*
X142740000Y-77290000D01*
X142740000Y-77290000D02*
X145480000Y-77290000D01*
X144110000Y-69980000D02*
X144110000Y-70750000D01*
X144110000Y-78060000D02*
X144110000Y-77290000D01*
X145480000Y-70750000D02*
X142740000Y-70750000D01*
X145480000Y-77290000D02*
X145480000Y-70750000D01*
%TO.C,C2*%
X148750000Y-90680000D02*
X148750000Y-93920000D01*
X148750000Y-90680000D02*
X156190000Y-90680000D01*
X148750000Y-93920000D02*
X156190000Y-93920000D01*
X156190000Y-90680000D02*
X156190000Y-93920000D01*
%TO.C,SW1*%
X125930000Y-61600000D02*
X125930000Y-63100000D01*
X127180000Y-65600000D02*
X131680000Y-65600000D01*
X131680000Y-59100000D02*
X127180000Y-59100000D01*
X132930000Y-63100000D02*
X132930000Y-61600000D01*
%TO.C,R10*%
X109000000Y-79380000D02*
X109770000Y-79380000D01*
X109770000Y-78010000D02*
X109770000Y-80750000D01*
X109770000Y-80750000D02*
X116310000Y-80750000D01*
X116310000Y-78010000D02*
X109770000Y-78010000D01*
X116310000Y-80750000D02*
X116310000Y-78010000D01*
X117080000Y-79380000D02*
X116310000Y-79380000D01*
%TO.C,HPF2_TP*%
X136090000Y-88160000D02*
X137420000Y-88160000D01*
X136090000Y-89490000D02*
X136090000Y-88160000D01*
X136090000Y-90760000D02*
X136090000Y-90820000D01*
X136090000Y-90760000D02*
X138750000Y-90760000D01*
X136090000Y-90820000D02*
X138750000Y-90820000D01*
X138750000Y-90760000D02*
X138750000Y-90820000D01*
%TO.C,C4*%
X113210000Y-69130000D02*
X117950000Y-69130000D01*
X113210000Y-76570000D02*
X113210000Y-69130000D01*
X113210000Y-76570000D02*
X117950000Y-76570000D01*
X117950000Y-76570000D02*
X117950000Y-69130000D01*
%TO.C,J5*%
X155970000Y-78295000D02*
X155970000Y-76965000D01*
X157080000Y-78295000D02*
X155970000Y-78295000D01*
X158540000Y-71525000D02*
X158130000Y-71525000D01*
X158540000Y-72245000D02*
X158130000Y-72245000D01*
X158540000Y-74065000D02*
X158130000Y-74065000D01*
X158540000Y-74785000D02*
X158130000Y-74785000D01*
X158540000Y-76605000D02*
X158190000Y-76605000D01*
X158540000Y-77325000D02*
X158190000Y-77325000D01*
X158540000Y-78295000D02*
X158540000Y-70555000D01*
X167170000Y-70555000D02*
X158540000Y-70555000D01*
X167170000Y-73155000D02*
X158540000Y-73155000D01*
X167170000Y-75695000D02*
X158540000Y-75695000D01*
X167170000Y-75813100D02*
X158540000Y-75813100D01*
X167170000Y-75931195D02*
X158540000Y-75931195D01*
X167170000Y-76049290D02*
X158540000Y-76049290D01*
X167170000Y-76167385D02*
X158540000Y-76167385D01*
X167170000Y-76285480D02*
X158540000Y-76285480D01*
X167170000Y-76403575D02*
X158540000Y-76403575D01*
X167170000Y-76521670D02*
X158540000Y-76521670D01*
X167170000Y-76639765D02*
X158540000Y-76639765D01*
X167170000Y-76757860D02*
X158540000Y-76757860D01*
X167170000Y-76875955D02*
X158540000Y-76875955D01*
X167170000Y-76994050D02*
X158540000Y-76994050D01*
X167170000Y-77112145D02*
X158540000Y-77112145D01*
X167170000Y-77230240D02*
X158540000Y-77230240D01*
X167170000Y-77348335D02*
X158540000Y-77348335D01*
X167170000Y-77466430D02*
X158540000Y-77466430D01*
X167170000Y-77584525D02*
X158540000Y-77584525D01*
X167170000Y-77702620D02*
X158540000Y-77702620D01*
X167170000Y-77820715D02*
X158540000Y-77820715D01*
X167170000Y-77938810D02*
X158540000Y-77938810D01*
X167170000Y-78056905D02*
X158540000Y-78056905D01*
X167170000Y-78175000D02*
X158540000Y-78175000D01*
X167170000Y-78295000D02*
X158540000Y-78295000D01*
X167170000Y-78295000D02*
X167170000Y-70555000D01*
%TO.C,OP1_TP1*%
X105300000Y-66670000D02*
X106630000Y-66670000D01*
X105300000Y-68000000D02*
X105300000Y-66670000D01*
X105300000Y-69270000D02*
X105300000Y-69330000D01*
X105300000Y-69270000D02*
X107960000Y-69270000D01*
X105300000Y-69330000D02*
X107960000Y-69330000D01*
X107960000Y-69270000D02*
X107960000Y-69330000D01*
%TD*%
M02*
